<svg width="28" height="28" viewBox="0 0 28 28" fill="none" xmlns="http://www.w3.org/2000/svg">
<path d="M18.0833 23.9167H9.91659C9.59442 23.9167 9.33325 24.1779 9.33325 24.5V25.6667C9.33325 25.9889 9.59442 26.25 9.91659 26.25H18.0833C18.4054 26.25 18.6666 25.9889 18.6666 25.6667V24.5C18.6666 24.1779 18.4054 23.9167 18.0833 23.9167Z" fill="#A4B0C0"/>
<path d="M14 28C14.9665 28 15.75 27.7388 15.75 27.4166C15.75 27.0945 14.9665 26.8333 14 26.8333C13.0335 26.8333 12.25 27.0945 12.25 27.4166C12.25 27.7388 13.0335 28 14 28Z" fill="#A4B0C0"/>
<path d="M23.8839 9.10292C24.0432 11.0257 23.6379 12.9533 22.7177 14.6491C21.7974 16.3449 20.4023 17.7353 18.7034 18.6497C18.3377 18.8493 18.0328 19.144 17.8209 19.5027C17.6091 19.8614 17.4982 20.2708 17.4999 20.6873V21H10.4999V20.6879C10.5031 20.273 10.3938 19.865 10.1838 19.5072C9.97376 19.1494 9.6708 18.8551 9.30703 18.6556C7.7929 17.842 6.51625 16.6487 5.60231 15.193C4.68837 13.7372 4.16851 12.0689 4.09374 10.3516C4.01897 8.63433 4.39184 6.92713 5.17579 5.39742C5.95974 3.86772 7.12784 2.56805 8.56552 1.6259C10.0032 0.683743 11.6611 0.131462 13.3766 0.0232232C15.092 -0.0850161 16.8062 0.254504 18.3509 1.00848C19.8956 1.76246 21.2178 2.905 22.1878 4.32404C23.1578 5.74307 23.7423 7.38988 23.8839 9.10292Z" fill="#FED049"/>
<path d="M18.7016 18.6492C18.3364 18.8487 18.0319 19.1432 17.8203 19.5016C17.6088 19.86 17.4981 20.2689 17.4999 20.685V21H13.7899C13.808 20.6285 13.9084 20.2657 14.0839 19.9378C14.2595 19.6099 14.5058 19.3252 14.8049 19.1042C17.5915 17.2463 20.304 14.8873 20.9492 11.4316C21.4037 8.40594 20.7147 5.31945 19.0166 2.77435C18.5978 2.05975 18.0269 1.44601 17.3444 0.976649C16.6619 0.507285 15.8846 0.193778 15.0674 0.0583496C17.1719 0.286037 19.1484 1.18117 20.7076 2.61282C22.2669 4.04446 23.3271 5.93748 23.7332 8.01497C24.1393 10.0924 23.87 12.2454 22.9647 14.1588C22.0593 16.0722 20.5654 17.6457 18.7016 18.6492Z" fill="#F6B445"/>
<path d="M18.0833 21H9.91659C9.59442 21 9.33325 21.2612 9.33325 21.5833V22.75C9.33325 23.0722 9.59442 23.3333 9.91659 23.3333H18.0833C18.4054 23.3333 18.6666 23.0722 18.6666 22.75V21.5833C18.6666 21.2612 18.4054 21 18.0833 21Z" fill="#A4B0C0"/>
<path d="M10.5 26.25H17.5L16.6752 27.0748C16.4564 27.2936 16.1597 27.4166 15.8503 27.4167H12.1497C11.8403 27.4166 11.5436 27.2936 11.3248 27.0748L10.5 26.25Z" fill="#D0D7DF"/>
<path d="M17.5 23.3333H10.5V23.9166H17.5V23.3333Z" fill="#D0D7DF"/>
</svg>
