<svg width="372" height="372" viewBox="0 0 372 372" fill="none" xmlns="http://www.w3.org/2000/svg">
<path d="M293 286.808C285.665 294.368 279.1 298.813 274.077 302.168C225.07 334.891 169.049 325.459 151.729 322.236C123.785 317.036 100.196 313.366 79.9291 295.055C33.8771 253.449 36.1171 166.655 71.3071 112.889C75.4791 106.514 110.615 54.4309 166.757 47.0889C168.13 46.9099 169.157 46.8079 170.057 46.7129C178.742 45.7929 232.562 40.9399 276.446 77.7059C282.728 82.9689 292.837 92.4619 302.212 106.94C336.48 159.883 336.588 241.874 293 286.808Z" fill="#F4F7FA"/>
<path d="M176.967 74.8709L203.8 297.919C204.2 301.263 201.9 304.261 198.668 304.581L86.9002 316.852C80.0532 317.278 76.3002 313.78 75.8812 310.224L47.7072 73.0869C47.2872 69.5499 50.6462 66.3479 57.5222 66.3479L170.31 68.7229C173.575 68.7779 176.567 71.5439 176.967 74.8709Z" fill="url(#paint0_linear_628_632)"/>
<path d="M182 74.4868L208.98 298.65C209.38 302.012 207.071 305.025 203.831 305.35L87.9551 316.884C84.3221 317.246 80.9931 314.618 80.5681 311.043L52.2361 72.6808C51.8141 69.1258 54.4821 66.2688 58.1551 66.3308L175.315 68.3078C178.592 68.3628 181.6 71.1438 182 74.4868Z" fill="url(#paint1_linear_628_632)"/>
<path d="M179.8 86.8519L204.808 294.7C205.186 297.84 203.02 300.65 199.986 300.945L91.0092 311.534C87.6322 311.862 84.5372 309.409 84.1412 306.082L57.9592 85.8899C57.5652 82.5799 60.0422 79.9019 63.4542 79.9389L173.554 81.1109C176.614 81.1439 179.423 83.7269 179.8 86.8519Z" fill="url(#paint2_linear_628_632)"/>
<path d="M121.359 74.3329C121.502 75.5259 120.646 76.4819 119.445 76.4659C118.244 76.4499 117.152 75.4659 117.009 74.2739C116.866 73.0819 117.726 72.1229 118.928 72.1409C120.13 72.1589 121.217 73.1399 121.359 74.3329Z" fill="url(#paint3_linear_628_632)"/>
<g style="mix-blend-mode:soft-light" opacity="0.5">
<path d="M160.957 226.37C138.647 185.122 105.32 172.775 95.2852 130.264C89.8622 107.286 93.5572 85.292 99.7852 67.034L58.1582 66.334C54.4862 66.272 51.8182 69.134 52.2402 72.684L80.5682 311.043C80.9932 314.618 84.3222 317.243 87.9552 316.884L179.045 307.815C179.718 270.856 170.9 244.756 160.957 226.37Z" fill="white"/>
</g>
<path d="M231.084 150.92L85.1911 155.311C81.4851 155.423 78.1311 152.734 77.7111 149.305L71.2371 96.3659C70.8171 92.9369 73.5031 90.1579 77.2231 90.1589L223.659 90.2069C226.878 90.2069 229.796 92.7829 230.184 95.9599L236.184 144.994C236.57 148.17 234.292 150.823 231.084 150.92Z" fill="url(#paint4_linear_628_632)"/>
<path opacity="0.3" d="M247.688 286.681L103.01 301C99.334 301.364 96.01 298.88 95.585 295.451L89.111 242.512C88.691 239.083 91.352 236.099 95.041 235.848L240.263 225.969C243.456 225.752 246.352 228.151 246.74 231.327L252.74 280.362C252.836 281.111 252.781 281.871 252.577 282.598C252.374 283.325 252.026 284.003 251.554 284.593C251.083 285.183 250.498 285.671 249.833 286.03C249.169 286.389 248.44 286.61 247.688 286.681Z" fill="url(#paint5_linear_628_632)"/>
<path opacity="0.3" d="M239.386 218.8L94.1001 228.155C90.4091 228.393 87.0681 225.806 86.6481 222.377L80.1741 169.438C79.7541 166.009 82.4271 163.128 86.1321 163.003L231.961 158.087C235.167 157.979 238.074 160.467 238.461 163.643L244.461 212.678C244.848 215.854 242.581 218.6 239.386 218.8Z" fill="url(#paint6_linear_628_632)"/>
<path d="M172 111.528L174.656 130.744C174.943 132.82 173.919 134.744 171.916 136.312C171.41 136.706 170.875 137.063 170.316 137.378C167.116 139.201 162.406 140.336 157.016 140.336C151.626 140.336 146.6 139.2 142.9 137.378C139.393 135.655 137.063 133.319 136.707 130.744L134.051 111.528H172Z" fill="url(#paint7_linear_628_632)"/>
<path style="mix-blend-mode:multiply" opacity="0.3" d="M171.928 136.312C171.422 136.707 170.887 137.063 170.328 137.378C167.128 139.201 162.414 140.336 157.028 140.336C151.642 140.336 146.605 139.2 142.9 137.378C139.392 135.655 137.061 133.319 136.7 130.744L135.322 120.772C138.193 121.937 142.241 124.218 143.45 127.903C145.341 133.67 153.621 135.624 161.405 134.321C164.836 133.746 168.634 134.649 171.928 136.312Z" fill="url(#paint8_linear_628_632)"/>
<path d="M182.213 113.316L151.806 99.396L125.247 113.316H124.174L124.237 113.769L155.875 128.247L183.511 113.769L183.448 113.316H182.213Z" fill="url(#paint9_linear_628_632)"/>
<path d="M151.714 98.7329L124.09 113.211L155.716 127.689L183.34 113.211L151.714 98.7329Z" fill="url(#paint10_linear_628_632)"/>
<path d="M185.941 133.311C185.724 133.311 185.465 133.137 185.435 132.922L182.812 113.944C182.753 113.515 182.463 113.137 182.029 113.137H153.705C153.6 113.141 153.498 113.107 153.416 113.041C153.335 112.975 153.28 112.882 153.262 112.779C153.232 112.564 153.389 112.422 153.606 112.422H181.93C182.798 112.422 183.597 113.086 183.716 113.944L186.339 132.922C186.369 133.137 186.158 133.311 185.941 133.311Z" fill="url(#paint11_linear_628_632)"/>
<path d="M186.485 129.862L186.057 129.273C185.98 129.164 185.878 129.074 185.759 129.013C185.641 128.951 185.509 128.918 185.375 128.917C185.254 128.915 185.134 128.95 185.033 129.017C184.932 129.084 184.853 129.18 184.808 129.293L184.582 129.906C184.528 130.06 184.515 130.226 184.543 130.387L185.257 135.55C185.272 135.661 185.771 135.75 186.369 135.75C186.967 135.75 187.44 135.66 187.425 135.55L186.709 130.372C186.676 130.186 186.599 130.012 186.485 129.862Z" fill="url(#paint12_linear_628_632)"/>
<path d="M122.9 185.522L121.236 173.174H112.978L114.642 185.522C114.804 186.722 114.172 187.8 113.06 188.207C105.821 190.857 101.325 198.128 102.228 204.829C103.357 213.215 112.51 217.529 123.083 217.529C133.656 217.529 141.645 213.213 140.516 204.829C139.616 198.129 133.158 190.857 125.205 188.207C123.982 187.8 123.061 186.725 122.9 185.522Z" fill="url(#paint13_linear_628_632)"/>
<path d="M104.722 199.024C103.722 200.656 103.285 202.501 103.548 204.455C104.448 211.107 113.128 216.5 122.948 216.5C132.768 216.5 139.994 211.107 139.097 204.455C138.834 202.501 137.897 200.655 136.46 199.024H104.722Z" fill="url(#paint14_linear_628_632)"/>
<path d="M120.589 200.359C129.348 200.359 136.449 199.761 136.449 199.024C136.449 198.287 129.348 197.689 120.589 197.689C111.83 197.689 104.729 198.287 104.729 199.024C104.729 199.761 111.83 200.359 120.589 200.359Z" fill="url(#paint15_linear_628_632)"/>
<g style="mix-blend-mode:soft-light" opacity="0.3">
<path d="M124 212.009C121.861 212.002 117.445 211.988 113.619 208.793C111.304 206.86 108.214 202.934 109.019 199.693C110.234 194.775 119.438 195.34 119.519 191.259C119.556 189.403 117.657 189.074 116.79 185.859C115.833 182.314 117.653 180.906 117.19 177.668C117.022 176.505 116.543 174.985 115.24 173.177H112.987L114.651 185.525C114.813 186.725 114.181 187.803 113.069 188.21C105.83 190.86 101.334 198.131 102.237 204.832C103.366 213.218 112.519 217.532 123.092 217.532C133.665 217.532 141.654 213.216 140.525 204.832C140.458 204.346 140.365 203.865 140.247 203.389C137.7 206.6 132.236 212.036 124 212.009Z" fill="white"/>
</g>
<path d="M121.1 174.691H113.53C112.804 174.691 112.139 174.121 112.044 173.417C111.944 172.717 112.461 172.143 113.186 172.143H120.756C121.482 172.143 122.147 172.713 122.242 173.417C122.333 174.121 121.821 174.691 121.1 174.691Z" fill="url(#paint16_linear_628_632)"/>
<path d="M100.086 172.919C94.9321 173.074 90.9981 176.138 90.6731 180.019C90.6731 180.019 90.6731 180.029 90.6731 180.034C90.6557 180.248 90.6494 180.463 90.6541 180.678C90.6541 180.693 90.6541 180.707 90.6541 180.721C90.6541 180.821 90.6621 180.921 90.6701 181.027C90.6701 181.045 90.6701 181.064 90.6701 181.082C90.6791 181.182 90.6901 181.292 90.7041 181.397C91.3111 185.906 96.5161 189.322 102.252 189.032C102.405 189.025 102.552 189.014 102.706 189.001H102.75C102.892 188.988 103.033 188.973 103.173 188.956L103.238 188.948C103.373 188.931 103.507 188.911 103.638 188.89L103.713 188.878C103.844 188.857 103.973 188.833 104.101 188.808L104.179 188.792C104.306 188.766 104.432 188.738 104.557 188.708L104.63 188.691C104.754 188.66 104.877 188.629 104.998 188.591L105.064 188.572C105.173 188.54 105.281 188.508 105.388 188.472L105.47 188.446C105.579 188.411 105.686 188.373 105.792 188.335L105.862 188.311C109.52 186.968 111.812 183.945 111.362 180.565C110.771 176.174 105.755 172.75 100.086 172.919Z" fill="url(#paint17_linear_628_632)"/>
<path d="M112.458 180.566C113.05 184.957 109.006 188.746 103.358 189.031C97.6221 189.321 92.4171 185.905 91.8101 181.396C91.2031 176.887 95.4352 173.096 101.187 172.919C106.851 172.75 111.867 176.174 112.458 180.566Z" fill="url(#paint18_linear_628_632)"/>
<g style="mix-blend-mode:multiply" opacity="0.3">
<path d="M105.573 186.86C104.014 184.544 104.973 182.271 103.085 180.805C101.163 179.305 99.1242 180.853 96.5322 179.669C95.5262 179.209 94.3512 178.299 93.3072 176.369C92.1322 177.787 91.5542 179.533 91.8072 181.395C92.4142 185.904 97.6192 189.32 103.355 189.03C104.588 188.973 105.806 188.731 106.967 188.312C106.425 187.909 105.953 187.418 105.573 186.86Z" fill="url(#paint19_linear_628_632)"/>
</g>
<path d="M101.752 181.044C101.787 181.269 101.9 181.474 102.073 181.622C102.246 181.77 102.466 181.852 102.693 181.852C102.798 181.853 102.902 181.831 102.997 181.787C103.093 181.744 103.178 181.68 103.246 181.601C103.315 181.521 103.365 181.428 103.394 181.327C103.422 181.226 103.429 181.119 103.412 181.016C103.377 180.792 103.264 180.587 103.092 180.439C102.921 180.291 102.702 180.209 102.475 180.208C102.37 180.206 102.265 180.228 102.169 180.271C102.073 180.314 101.988 180.378 101.919 180.457C101.85 180.537 101.799 180.631 101.77 180.732C101.742 180.833 101.735 180.94 101.752 181.044Z" fill="white"/>
<path d="M100.161 182.943C97.8972 180.327 97.2042 177.425 98.5922 176.371C98.9407 176.12 99.3628 175.991 99.7922 176.006C101.314 176.006 103.342 177.246 104.96 179.153C107.131 181.711 107.803 184.527 106.499 185.598C106.17 185.857 105.764 185.998 105.345 185.998C103.852 186.05 101.817 184.855 100.161 182.943ZM98.9552 176.8C97.8332 177.655 98.5692 180.341 100.555 182.638C102.07 184.391 103.968 185.532 105.278 185.49C105.594 185.491 105.901 185.388 106.151 185.195C107.212 184.326 106.498 181.711 104.583 179.457C103.096 177.708 101.199 176.527 99.8622 176.529C99.5383 176.517 99.2194 176.612 98.9552 176.8Z" fill="white"/>
<path d="M99.8362 185.818C98.1732 184.811 98.1022 181.889 99.6692 179.21C100.811 177.257 102.516 176.01 104.012 176.01C104.455 176.005 104.89 176.129 105.263 176.367C106.844 177.383 106.929 180.201 105.451 182.824C104.351 184.784 102.651 186.095 101.132 186.147C100.677 186.168 100.226 186.053 99.8362 185.818ZM100.136 179.505C98.7642 181.857 98.7362 184.564 100.082 185.381C100.377 185.555 100.716 185.639 101.058 185.621C102.394 185.578 103.972 184.331 104.988 182.534C106.294 180.224 106.305 177.604 105.019 176.779C104.737 176.602 104.409 176.511 104.075 176.517C102.769 176.519 101.185 177.714 100.141 179.505H100.136Z" fill="white"/>
<path d="M96.7001 181.143C96.6211 180.604 96.8001 180.136 97.2101 179.662C98.0951 178.631 99.9871 177.962 102.129 177.92L102.284 177.914C105.402 177.894 107.992 179.173 108.241 180.837C108.368 181.683 107.883 182.47 106.874 183.088C105.906 183.681 104.544 184.01 103.041 184.073L102.876 184.01C99.6911 184.156 96.9481 182.875 96.7001 181.143ZM102.206 178.443C100.199 178.488 98.4441 179.094 97.6441 180.029C97.3231 180.404 97.1901 180.798 97.2491 181.199C97.4561 182.615 99.9811 183.706 102.826 183.633H102.974C104.395 183.576 105.674 183.24 106.574 182.688C107.424 182.17 107.837 181.528 107.74 180.879C107.54 179.514 105.14 178.423 102.35 178.446L102.206 178.443Z" fill="white"/>
<path d="M138.074 246.718L142.909 284.59C142.967 285.034 142.936 285.486 142.816 285.918C142.696 286.35 142.491 286.753 142.213 287.104C141.934 287.455 141.588 287.747 141.194 287.961C140.801 288.176 140.368 288.309 139.922 288.353L112.584 291.194C110.529 291.408 108.648 289.968 108.4 288.017L103.371 248.4C103.139 246.569 104.439 245 106.314 244.744C106.436 244.727 106.558 244.717 106.681 244.713L134.2 243.5C136.115 243.419 137.837 244.856 138.074 246.718Z" fill="url(#paint20_linear_628_632)"/>
<path d="M140.077 246.617L144.907 284.434C145.145 286.295 143.907 287.985 142.007 288.182L114.76 291.013C112.712 291.226 110.752 289.797 110.505 287.849L105.483 248.3C105.251 246.472 106.588 244.905 108.457 244.648C108.576 244.631 108.741 244.62 108.864 244.615L136.293 243.4C138.2 243.319 139.839 244.758 140.077 246.617Z" fill="url(#paint21_linear_628_632)"/>
<path d="M140.07 246.564L141.28 256.04L106.735 258.15L105.476 248.239C105.249 246.455 106.523 244.946 108.321 244.639C108.501 244.619 108.683 244.61 108.864 244.613L136.293 243.4C137.205 243.356 138.1 243.658 138.8 244.244C139.5 244.83 139.953 245.658 140.07 246.564Z" fill="url(#paint22_linear_628_632)"/>
<path d="M140.908 253.125L141.408 257.066C138.093 258.228 131.896 259.256 124.771 259.716C121.65 259.916 118.634 259.992 115.907 259.951C112.295 259.896 109.235 259.638 106.868 259.224L106.345 255.102C107.183 254.862 107.955 254.639 108.878 254.422C111.244 253.889 113.636 253.477 116.044 253.188C118.47 252.882 121.126 252.642 123.891 252.488C127.467 252.288 130.828 252.263 133.749 252.378L134.426 252.407C135.126 252.441 135.805 252.483 136.45 252.533C136.678 252.551 136.904 252.57 137.124 252.59C137.632 252.636 138.071 252.69 138.535 252.745C139.43 252.854 140.226 252.98 140.908 253.125Z" fill="url(#paint23_linear_628_632)"/>
<path d="M139.3 254.09C139.318 254.222 139.308 254.356 139.271 254.484C139.233 254.612 139.17 254.731 139.084 254.833C138.998 254.934 138.892 255.017 138.772 255.075C138.652 255.134 138.521 255.166 138.388 255.171L110.017 256.865C109.396 256.902 108.831 256.457 108.756 255.872L107.914 249.238C107.839 248.653 108.284 248.154 108.906 248.123L137.312 246.746C137.593 246.734 137.868 246.827 138.085 247.005C138.301 247.184 138.444 247.437 138.486 247.715L139.3 254.09Z" fill="white"/>
<path d="M138.623 253.986C138.635 254.07 138.629 254.155 138.605 254.236C138.582 254.317 138.542 254.392 138.487 254.456C138.433 254.521 138.365 254.573 138.289 254.61C138.213 254.646 138.13 254.667 138.046 254.669L109.823 256.335C109.635 256.349 109.449 256.293 109.301 256.176C109.153 256.06 109.054 255.893 109.023 255.707L108.184 249.107C108.175 249.019 108.184 248.93 108.211 248.846C108.238 248.761 108.282 248.684 108.341 248.618C108.4 248.552 108.473 248.499 108.553 248.463C108.634 248.426 108.722 248.407 108.81 248.407L137.066 247.027C137.243 247.02 137.417 247.078 137.554 247.191C137.691 247.304 137.782 247.463 137.808 247.639L138.623 253.986Z" fill="url(#paint24_linear_628_632)"/>
<g opacity="0.3">
<path d="M134.135 250.349C134.157 250.525 134.025 250.649 133.844 250.654H133.829C133.745 250.664 133.66 250.642 133.592 250.592C133.524 250.541 133.478 250.466 133.464 250.383L133.298 249.077C133.293 249.036 133.296 248.995 133.308 248.956C133.32 248.916 133.341 248.88 133.368 248.85C133.396 248.819 133.429 248.795 133.467 248.778C133.504 248.762 133.545 248.753 133.586 248.754H133.601C133.687 248.747 133.773 248.774 133.841 248.827C133.909 248.881 133.955 248.958 133.968 249.044L134.135 250.349Z" fill="url(#paint25_linear_628_632)"/>
<path d="M136.805 250.213C136.81 250.253 136.806 250.293 136.793 250.331C136.781 250.37 136.76 250.405 136.733 250.434C136.705 250.463 136.672 250.487 136.634 250.502C136.597 250.517 136.557 250.524 136.517 250.522H136.5C136.416 250.531 136.332 250.508 136.264 250.457C136.197 250.406 136.151 250.331 136.137 250.248L135.971 248.943C135.966 248.902 135.969 248.861 135.981 248.821C135.993 248.782 136.013 248.746 136.04 248.715C136.067 248.684 136.1 248.659 136.138 248.642C136.175 248.626 136.216 248.617 136.257 248.617H136.272C136.358 248.611 136.443 248.638 136.511 248.692C136.578 248.746 136.623 248.824 136.636 248.909L136.805 250.213Z" fill="url(#paint26_linear_628_632)"/>
</g>
<path opacity="0.3" d="M134.508 253.274C134.515 253.317 134.512 253.36 134.501 253.402C134.491 253.444 134.471 253.483 134.445 253.517C134.418 253.552 134.385 253.58 134.348 253.601C134.31 253.622 134.268 253.635 134.225 253.64H134.21C134.119 253.638 134.032 253.604 133.964 253.544C133.896 253.483 133.851 253.401 133.838 253.311L133.666 251.966C133.66 251.923 133.663 251.88 133.674 251.839C133.685 251.797 133.704 251.758 133.731 251.724C133.757 251.69 133.79 251.662 133.828 251.642C133.866 251.621 133.907 251.608 133.95 251.604H133.965C134.056 251.605 134.143 251.639 134.211 251.699C134.279 251.759 134.323 251.841 134.336 251.931L134.508 253.274Z" fill="url(#paint27_linear_628_632)"/>
<path opacity="0.3" d="M137.178 253.138C137.201 253.313 137.062 253.373 136.9 253.518H136.885C136.793 253.512 136.705 253.475 136.638 253.412C136.57 253.35 136.526 253.265 136.513 253.174L136.333 251.767C136.311 251.592 136.426 251.347 136.606 251.338H136.621C136.801 251.329 136.976 251.555 136.999 251.731L137.178 253.138Z" fill="url(#paint28_linear_628_632)"/>
<path opacity="0.3" d="M136.234 250.92C136.239 250.961 136.236 251.003 136.224 251.043C136.212 251.084 136.191 251.121 136.164 251.152C136.137 251.184 136.103 251.21 136.066 251.228C136.028 251.246 135.987 251.256 135.945 251.257L134.661 251.328C134.481 251.338 134.384 251.201 134.361 251.028V251.014C134.338 250.838 134.397 250.69 134.578 250.681L135.899 250.609C135.983 250.606 136.065 250.635 136.127 250.691C136.19 250.747 136.228 250.825 136.234 250.909V250.92Z" fill="url(#paint29_linear_628_632)"/>
<path opacity="0.3" d="M135.878 248.193C135.883 248.234 135.879 248.276 135.867 248.315C135.855 248.355 135.835 248.391 135.809 248.423C135.782 248.454 135.749 248.48 135.712 248.498C135.675 248.516 135.634 248.526 135.593 248.528L134.307 248.594C134.126 248.603 134.027 248.466 134.007 248.294V248.28C133.984 248.104 134.047 247.957 134.227 247.948L135.547 247.881C135.631 247.878 135.712 247.908 135.774 247.964C135.836 248.02 135.874 248.098 135.88 248.181L135.878 248.193Z" fill="url(#paint30_linear_628_632)"/>
<path opacity="0.3" d="M136.607 253.778C136.612 253.82 136.608 253.862 136.595 253.902C136.583 253.942 136.562 253.979 136.534 254.011C136.507 254.043 136.473 254.068 136.435 254.086C136.397 254.104 136.356 254.114 136.314 254.116L134.96 254.194C134.872 254.198 134.786 254.17 134.717 254.115C134.649 254.06 134.603 253.981 134.589 253.894V253.88C134.584 253.839 134.588 253.797 134.6 253.757C134.611 253.718 134.631 253.681 134.658 253.65C134.685 253.618 134.718 253.592 134.755 253.574C134.792 253.556 134.833 253.546 134.874 253.544L136.232 253.465C136.32 253.46 136.407 253.488 136.476 253.544C136.545 253.599 136.592 253.678 136.606 253.765L136.607 253.778Z" fill="url(#paint31_linear_628_632)"/>
<g style="mix-blend-mode:soft-light" opacity="0.3">
<path d="M130.429 286.917C130.401 287.552 130.286 288.179 130.087 288.783C130.015 288.996 129.93 289.219 129.836 289.447L114.763 291.013C112.715 291.226 110.755 289.797 110.508 287.849L105.476 248.239C105.249 246.455 106.52 244.916 108.317 244.606C108.363 244.617 108.431 244.628 108.478 244.64C110.478 245.148 112.731 246.157 114.256 248.153C115.21 249.401 115.893 251.038 116.062 253.187C116.109 253.777 116.119 254.37 116.092 254.961C116.075 255.326 116.06 255.698 116.044 256.078C116.025 256.553 116.008 257.038 115.994 257.531C115.973 258.32 115.964 259.131 115.978 259.946C115.992 260.73 116.028 261.521 116.096 262.309C116.109 262.461 116.123 262.609 116.139 262.765C116.19 263.258 116.254 263.748 116.334 264.234C116.389 264.566 116.451 264.896 116.522 265.223C116.922 267.063 117.58 268.809 118.65 270.317C119.46 271.457 120.571 272.317 121.725 273.112C122.025 273.322 122.337 273.527 122.643 273.731C123.689 274.413 124.685 275.168 125.625 275.99L125.692 276.052C126.142 276.456 126.568 276.887 126.966 277.343C127.404 277.846 127.796 278.387 128.138 278.959C128.268 279.177 128.392 279.398 128.509 279.623C128.709 280.008 128.892 280.405 129.058 280.81C129.133 280.992 129.207 281.176 129.278 281.363C129.282 281.37 129.285 281.377 129.287 281.385C129.585 282.138 129.838 282.908 130.046 283.691C130.322 284.758 130.484 285.85 130.429 286.917Z" fill="white"/>
</g>
<g style="mix-blend-mode:multiply">
<path d="M116.455 264.651C116.466 264.745 116.457 264.84 116.429 264.931C116.402 265.021 116.355 265.105 116.294 265.176C116.232 265.248 116.156 265.306 116.071 265.347C115.985 265.387 115.893 265.41 115.798 265.413L110.782 265.77C110.583 265.787 110.386 265.728 110.228 265.606C110.071 265.483 109.966 265.306 109.933 265.109L109.704 263.309C109.694 263.214 109.703 263.118 109.731 263.027C109.76 262.936 109.807 262.851 109.87 262.779C109.933 262.707 110.01 262.649 110.096 262.608C110.183 262.568 110.277 262.546 110.372 262.543L115.39 262.206C115.587 262.191 115.782 262.251 115.938 262.373C116.093 262.495 116.196 262.671 116.228 262.866L116.455 264.651Z" fill="url(#paint32_linear_628_632)"/>
<path d="M124.663 264.075C124.674 264.167 124.666 264.261 124.639 264.35C124.612 264.439 124.567 264.521 124.507 264.592C124.447 264.663 124.372 264.721 124.289 264.761C124.205 264.802 124.114 264.825 124.021 264.829L119.111 265.178C118.915 265.194 118.721 265.135 118.567 265.014C118.412 264.892 118.31 264.717 118.279 264.523L118.052 262.739C118.041 262.646 118.049 262.551 118.077 262.461C118.104 262.371 118.15 262.288 118.211 262.217C118.273 262.146 118.348 262.088 118.433 262.048C118.518 262.007 118.61 261.985 118.704 261.982L123.616 261.653C123.81 261.639 124.002 261.698 124.154 261.819C124.306 261.939 124.407 262.113 124.437 262.305L124.663 264.075Z" fill="url(#paint33_linear_628_632)"/>
<path d="M132.429 263.53C132.44 263.621 132.433 263.713 132.407 263.801C132.381 263.889 132.337 263.97 132.278 264.04C132.219 264.11 132.146 264.167 132.064 264.207C131.982 264.248 131.893 264.271 131.801 264.275L126.99 264.617C126.797 264.632 126.606 264.573 126.455 264.453C126.304 264.333 126.203 264.16 126.174 263.969L125.949 262.203C125.938 262.111 125.946 262.018 125.972 261.929C125.999 261.841 126.044 261.759 126.104 261.688C126.164 261.618 126.237 261.561 126.321 261.52C126.404 261.48 126.495 261.457 126.587 261.454L131.401 261.131C131.591 261.12 131.779 261.18 131.927 261.299C132.075 261.419 132.172 261.59 132.201 261.778L132.429 263.53Z" fill="url(#paint34_linear_628_632)"/>
<path d="M140.305 262.977C140.317 263.066 140.31 263.157 140.285 263.244C140.26 263.33 140.217 263.411 140.159 263.48C140.102 263.549 140.03 263.606 139.95 263.646C139.869 263.686 139.781 263.709 139.691 263.714L134.979 264.049C134.79 264.062 134.602 264.003 134.454 263.884C134.305 263.765 134.207 263.595 134.179 263.407L133.956 261.659C133.944 261.569 133.952 261.477 133.977 261.389C134.003 261.302 134.046 261.221 134.105 261.151C134.164 261.082 134.236 261.025 134.318 260.985C134.4 260.945 134.489 260.922 134.58 260.918L139.294 260.603C139.482 260.591 139.668 260.65 139.814 260.769C139.96 260.888 140.057 261.057 140.084 261.243L140.305 262.977Z" fill="url(#paint35_linear_628_632)"/>
<path d="M117.186 270.4C117.197 270.494 117.188 270.59 117.16 270.68C117.133 270.771 117.087 270.855 117.025 270.927C116.964 270.999 116.888 271.057 116.803 271.099C116.718 271.14 116.625 271.164 116.53 271.168L111.518 271.562C111.32 271.581 111.122 271.523 110.965 271.401C110.807 271.28 110.702 271.103 110.67 270.906L110.441 269.106C110.431 269.011 110.441 268.915 110.47 268.824C110.498 268.733 110.545 268.649 110.607 268.576C110.67 268.504 110.746 268.445 110.832 268.403C110.918 268.362 111.012 268.338 111.107 268.334L116.122 267.961C116.319 267.944 116.514 268.002 116.669 268.124C116.825 268.245 116.928 268.421 116.959 268.615L117.186 270.4Z" fill="url(#paint36_linear_628_632)"/>
<path d="M125.387 269.761C125.398 269.854 125.39 269.947 125.364 270.037C125.337 270.126 125.292 270.209 125.232 270.28C125.172 270.351 125.098 270.409 125.014 270.451C124.93 270.492 124.839 270.515 124.746 270.52L119.84 270.906C119.645 270.923 119.45 270.866 119.296 270.745C119.142 270.625 119.039 270.45 119.008 270.256L118.781 268.472C118.77 268.378 118.779 268.284 118.806 268.193C118.834 268.103 118.879 268.02 118.941 267.948C119.002 267.876 119.077 267.818 119.162 267.777C119.247 267.736 119.339 267.713 119.433 267.709L124.341 267.343C124.535 267.328 124.727 267.386 124.879 267.506C125.031 267.626 125.132 267.799 125.162 267.991L125.387 269.761Z" fill="url(#paint37_linear_628_632)"/>
<path d="M133.147 269.158C133.159 269.249 133.151 269.342 133.126 269.43C133.1 269.518 133.056 269.6 132.997 269.67C132.938 269.741 132.866 269.798 132.784 269.839C132.702 269.88 132.612 269.904 132.52 269.909L127.713 270.287C127.521 270.303 127.33 270.245 127.178 270.126C127.027 270.006 126.926 269.834 126.897 269.643L126.672 267.877C126.661 267.785 126.669 267.692 126.695 267.603C126.722 267.514 126.766 267.432 126.826 267.361C126.886 267.29 126.96 267.232 127.043 267.191C127.126 267.15 127.217 267.126 127.309 267.122L132.119 266.764C132.309 266.751 132.497 266.81 132.645 266.929C132.793 267.048 132.891 267.218 132.919 267.406L133.147 269.158Z" fill="url(#paint38_linear_628_632)"/>
<path d="M141.016 268.547C141.028 268.637 141.021 268.728 140.996 268.814C140.971 268.901 140.928 268.982 140.871 269.051C140.813 269.121 140.742 269.178 140.662 269.219C140.581 269.26 140.493 269.284 140.403 269.289L135.695 269.659C135.506 269.674 135.318 269.617 135.169 269.498C135.021 269.38 134.923 269.21 134.895 269.022L134.672 267.274C134.661 267.184 134.668 267.092 134.693 267.004C134.719 266.916 134.762 266.835 134.821 266.765C134.879 266.695 134.952 266.638 135.033 266.597C135.115 266.556 135.204 266.533 135.295 266.528L140.006 266.177C140.194 266.164 140.379 266.223 140.525 266.34C140.671 266.458 140.768 266.627 140.795 266.813L141.016 268.547Z" fill="url(#paint39_linear_628_632)"/>
<path d="M117.9 276.012C117.91 276.106 117.901 276.202 117.873 276.292C117.846 276.383 117.8 276.467 117.738 276.539C117.677 276.612 117.602 276.671 117.517 276.713C117.432 276.756 117.34 276.781 117.245 276.786L112.237 277.216C112.039 277.236 111.842 277.18 111.684 277.059C111.526 276.938 111.421 276.761 111.389 276.565L111.16 274.765C111.149 274.67 111.159 274.573 111.187 274.481C111.215 274.39 111.262 274.305 111.324 274.232C111.387 274.159 111.464 274.1 111.55 274.058C111.636 274.016 111.73 273.992 111.826 273.988L116.837 273.578C117.033 273.56 117.228 273.617 117.384 273.737C117.539 273.858 117.642 274.033 117.673 274.227L117.9 276.012Z" fill="url(#paint40_linear_628_632)"/>
<path d="M126.1 275.316C126.111 275.409 126.103 275.503 126.076 275.592C126.049 275.682 126.004 275.765 125.944 275.836C125.884 275.908 125.81 275.966 125.727 276.008C125.643 276.05 125.552 276.075 125.459 276.08L120.559 276.502C120.364 276.521 120.17 276.464 120.016 276.345C119.861 276.225 119.758 276.05 119.728 275.857L119.501 274.072C119.49 273.978 119.499 273.883 119.526 273.793C119.554 273.703 119.599 273.619 119.66 273.547C119.721 273.475 119.796 273.416 119.881 273.375C119.966 273.333 120.058 273.309 120.152 273.304L125.052 272.904C125.245 272.887 125.437 272.944 125.589 273.063C125.741 273.182 125.843 273.355 125.872 273.546L126.1 275.316Z" fill="url(#paint41_linear_628_632)"/>
<path d="M133.849 274.657C133.86 274.748 133.853 274.841 133.827 274.929C133.801 275.017 133.758 275.1 133.699 275.17C133.64 275.241 133.568 275.299 133.486 275.341C133.404 275.383 133.314 275.407 133.222 275.413L128.422 275.826C128.231 275.843 128.04 275.787 127.888 275.668C127.737 275.549 127.636 275.377 127.607 275.187L127.382 273.42C127.371 273.328 127.379 273.234 127.406 273.145C127.432 273.056 127.477 272.974 127.537 272.902C127.596 272.831 127.67 272.773 127.753 272.731C127.836 272.69 127.926 272.665 128.019 272.66L132.825 272.268C133.014 272.253 133.202 272.31 133.351 272.428C133.499 272.546 133.597 272.716 133.625 272.904L133.849 274.657Z" fill="url(#paint42_linear_628_632)"/>
<path d="M141.711 273.988C141.723 274.078 141.716 274.169 141.691 274.256C141.667 274.344 141.624 274.425 141.567 274.495C141.509 274.565 141.438 274.622 141.357 274.664C141.277 274.705 141.189 274.73 141.098 274.736L136.398 275.136C136.209 275.152 136.021 275.096 135.873 274.978C135.724 274.861 135.626 274.691 135.598 274.503L135.375 272.755C135.364 272.664 135.371 272.572 135.396 272.484C135.422 272.396 135.465 272.314 135.524 272.244C135.582 272.174 135.654 272.116 135.736 272.074C135.818 272.033 135.907 272.009 135.998 272.003L140.704 271.619C140.891 271.604 141.077 271.661 141.223 271.778C141.37 271.895 141.466 272.063 141.493 272.249L141.711 273.988Z" fill="url(#paint43_linear_628_632)"/>
<path d="M118.6 281.494C118.611 281.589 118.603 281.685 118.575 281.776C118.548 281.867 118.502 281.952 118.441 282.025C118.379 282.098 118.304 282.157 118.219 282.2C118.133 282.243 118.04 282.268 117.945 282.273L112.945 282.738C112.748 282.76 112.55 282.705 112.393 282.585C112.235 282.465 112.129 282.289 112.098 282.093L111.868 280.293C111.858 280.198 111.867 280.101 111.896 280.009C111.924 279.917 111.971 279.832 112.033 279.759C112.096 279.686 112.172 279.626 112.258 279.584C112.344 279.541 112.438 279.516 112.534 279.511L117.54 279.066C117.735 279.046 117.931 279.101 118.087 279.221C118.242 279.34 118.346 279.515 118.376 279.709L118.6 281.494Z" fill="url(#paint44_linear_628_632)"/>
<path d="M126.786 280.739C126.797 280.832 126.789 280.926 126.762 281.016C126.735 281.106 126.691 281.189 126.631 281.261C126.571 281.334 126.497 281.393 126.414 281.435C126.331 281.478 126.24 281.504 126.146 281.51L121.246 281.965C121.052 281.985 120.858 281.93 120.703 281.811C120.549 281.693 120.446 281.519 120.416 281.326L120.189 279.541C120.179 279.447 120.188 279.352 120.215 279.262C120.243 279.172 120.288 279.088 120.349 279.015C120.41 278.943 120.484 278.884 120.569 278.841C120.653 278.799 120.745 278.773 120.839 278.767L125.739 278.331C125.931 278.313 126.123 278.368 126.276 278.487C126.428 278.606 126.529 278.778 126.558 278.969L126.786 280.739Z" fill="url(#paint45_linear_628_632)"/>
<path d="M134.533 280.026C134.544 280.117 134.537 280.21 134.511 280.299C134.485 280.387 134.442 280.47 134.383 280.541C134.325 280.612 134.252 280.67 134.171 280.713C134.089 280.755 133.999 280.78 133.907 280.787L129.107 281.234C128.916 281.253 128.725 281.198 128.573 281.08C128.421 280.963 128.321 280.791 128.292 280.601L128.067 278.833C128.056 278.741 128.064 278.647 128.091 278.558C128.117 278.468 128.161 278.385 128.221 278.314C128.28 278.242 128.354 278.184 128.437 278.141C128.52 278.099 128.61 278.074 128.703 278.068L133.503 277.641C133.692 277.625 133.88 277.681 134.029 277.798C134.177 277.916 134.275 278.086 134.303 278.273L134.533 280.026Z" fill="url(#paint46_linear_628_632)"/>
<path d="M119.346 287.378C119.357 287.473 119.348 287.569 119.32 287.66C119.293 287.752 119.247 287.836 119.186 287.91C119.125 287.983 119.05 288.043 118.965 288.087C118.88 288.13 118.787 288.156 118.692 288.163L113.692 288.663C113.496 288.686 113.298 288.633 113.14 288.514C112.982 288.394 112.877 288.218 112.846 288.023L112.616 286.218C112.606 286.122 112.615 286.025 112.643 285.933C112.672 285.841 112.718 285.756 112.78 285.682C112.842 285.608 112.919 285.548 113.005 285.504C113.091 285.461 113.185 285.435 113.281 285.429L118.281 284.946C118.476 284.924 118.671 284.979 118.827 285.098C118.982 285.216 119.086 285.391 119.116 285.584L119.346 287.378Z" fill="url(#paint47_linear_628_632)"/>
<path d="M127.527 286.561C127.538 286.654 127.529 286.749 127.503 286.838C127.476 286.928 127.432 287.012 127.372 287.084C127.312 287.157 127.239 287.216 127.156 287.26C127.073 287.303 126.982 287.329 126.888 287.337L121.994 287.83C121.801 287.852 121.606 287.799 121.451 287.681C121.297 287.563 121.194 287.389 121.164 287.197L120.937 285.411C120.926 285.317 120.934 285.221 120.961 285.13C120.988 285.039 121.034 284.955 121.094 284.882C121.155 284.809 121.23 284.749 121.314 284.706C121.399 284.663 121.491 284.637 121.586 284.631L126.486 284.158C126.678 284.138 126.87 284.192 127.023 284.31C127.175 284.427 127.276 284.599 127.305 284.79L127.527 286.561Z" fill="url(#paint48_linear_628_632)"/>
<path d="M135.268 285.789C135.279 285.881 135.272 285.974 135.246 286.062C135.22 286.151 135.177 286.234 135.119 286.305C135.06 286.377 134.988 286.436 134.906 286.479C134.825 286.522 134.735 286.548 134.643 286.556L129.843 287.039C129.653 287.06 129.462 287.006 129.31 286.889C129.158 286.772 129.058 286.6 129.029 286.411L128.804 284.643C128.793 284.55 128.801 284.456 128.828 284.367C128.854 284.277 128.899 284.194 128.958 284.122C129.017 284.05 129.091 283.991 129.174 283.948C129.256 283.905 129.347 283.879 129.44 283.872L134.24 283.409C134.429 283.391 134.617 283.446 134.766 283.562C134.914 283.679 135.013 283.849 135.04 284.036L135.268 285.789Z" fill="url(#paint49_linear_628_632)"/>
<path d="M141.356 276.944L136.656 277.362C136.264 277.396 136.023 277.838 136.072 278.221L136.197 279.207L136.297 280.029L136.771 283.745L136.911 284.839L137.002 285.553C137.051 285.936 137.392 286.279 137.784 286.239L142.484 285.766C142.87 285.727 143.16 285.324 143.111 284.944L143.021 284.235L142.882 283.151L142.412 279.465L142.312 278.649L142.188 277.672C142.133 277.292 141.743 276.909 141.356 276.944Z" fill="url(#paint50_linear_628_632)"/>
</g>
<path d="M116.736 264.631C116.747 264.725 116.738 264.82 116.71 264.91C116.683 265 116.637 265.084 116.575 265.156C116.513 265.227 116.438 265.285 116.352 265.326C116.267 265.367 116.174 265.39 116.08 265.393L111.068 265.75C110.869 265.767 110.671 265.708 110.514 265.586C110.357 265.463 110.251 265.286 110.219 265.089L109.99 263.289C109.98 263.194 109.989 263.098 110.017 263.007C110.046 262.916 110.093 262.831 110.155 262.759C110.218 262.687 110.295 262.629 110.381 262.589C110.468 262.548 110.562 262.525 110.657 262.523L115.672 262.188C115.869 262.173 116.064 262.232 116.219 262.354C116.374 262.476 116.478 262.652 116.509 262.847L116.736 264.631Z" fill="url(#paint51_linear_628_632)"/>
<path d="M124.663 264.075C124.674 264.167 124.666 264.261 124.639 264.35C124.612 264.439 124.567 264.521 124.507 264.592C124.447 264.663 124.372 264.721 124.289 264.761C124.205 264.802 124.114 264.825 124.021 264.829L119.111 265.178C118.915 265.194 118.721 265.135 118.567 265.014C118.412 264.892 118.31 264.717 118.279 264.523L118.052 262.739C118.041 262.646 118.049 262.551 118.077 262.461C118.104 262.371 118.15 262.288 118.211 262.217C118.273 262.146 118.348 262.088 118.433 262.048C118.518 262.007 118.61 261.985 118.704 261.982L123.616 261.653C123.81 261.639 124.002 261.698 124.154 261.819C124.306 261.939 124.407 262.113 124.437 262.305L124.663 264.075Z" fill="url(#paint52_linear_628_632)"/>
<path d="M132.7 263.511C132.711 263.602 132.704 263.694 132.678 263.782C132.652 263.869 132.608 263.951 132.549 264.021C132.491 264.091 132.418 264.148 132.336 264.188C132.254 264.229 132.164 264.252 132.073 264.256L127.265 264.598C127.072 264.612 126.881 264.553 126.73 264.433C126.579 264.313 126.478 264.14 126.449 263.949L126.224 262.184C126.213 262.092 126.221 261.999 126.247 261.91C126.274 261.822 126.318 261.74 126.378 261.669C126.438 261.599 126.512 261.542 126.596 261.501C126.679 261.461 126.77 261.438 126.862 261.435L131.672 261.113C131.862 261.102 132.049 261.162 132.197 261.281C132.345 261.401 132.443 261.572 132.472 261.76L132.7 263.511Z" fill="url(#paint53_linear_628_632)"/>
<path d="M140.569 262.958C140.581 263.047 140.574 263.138 140.55 263.225C140.525 263.311 140.482 263.392 140.424 263.461C140.367 263.53 140.295 263.587 140.215 263.627C140.134 263.667 140.046 263.691 139.956 263.695L135.247 264.03C135.057 264.043 134.87 263.984 134.722 263.865C134.573 263.746 134.475 263.576 134.447 263.388L134.224 261.641C134.213 261.551 134.22 261.459 134.246 261.372C134.271 261.284 134.315 261.203 134.373 261.134C134.432 261.064 134.505 261.007 134.586 260.967C134.668 260.927 134.757 260.904 134.848 260.9L139.558 260.585C139.746 260.573 139.932 260.632 140.078 260.751C140.224 260.869 140.321 261.039 140.348 261.225L140.569 262.958Z" fill="url(#paint54_linear_628_632)"/>
<path d="M117.467 270.376C117.478 270.47 117.469 270.565 117.442 270.656C117.414 270.746 117.368 270.83 117.307 270.902C117.245 270.974 117.17 271.033 117.084 271.075C116.999 271.116 116.907 271.14 116.812 271.144L111.803 271.537C111.605 271.556 111.407 271.498 111.25 271.377C111.093 271.255 110.987 271.078 110.955 270.882L110.726 269.082C110.716 268.987 110.726 268.891 110.755 268.8C110.784 268.709 110.831 268.625 110.893 268.552C110.955 268.48 111.032 268.421 111.118 268.38C111.204 268.338 111.298 268.315 111.393 268.311L116.403 267.938C116.599 267.921 116.795 267.979 116.95 268.1C117.105 268.222 117.209 268.397 117.24 268.592L117.467 270.376Z" fill="url(#paint55_linear_628_632)"/>
<path d="M125.387 269.761C125.398 269.854 125.39 269.947 125.363 270.037C125.337 270.126 125.292 270.209 125.232 270.28C125.171 270.351 125.097 270.409 125.014 270.451C124.93 270.492 124.839 270.515 124.746 270.52L119.84 270.906C119.645 270.923 119.45 270.866 119.296 270.745C119.141 270.625 119.038 270.45 119.008 270.256L118.781 268.472C118.77 268.378 118.779 268.284 118.806 268.193C118.833 268.103 118.879 268.02 118.94 267.948C119.002 267.876 119.077 267.818 119.162 267.777C119.246 267.736 119.339 267.713 119.433 267.709L124.341 267.343C124.534 267.328 124.726 267.386 124.879 267.506C125.031 267.626 125.132 267.799 125.162 267.991L125.387 269.761Z" fill="url(#paint56_linear_628_632)"/>
<path d="M133.417 269.137C133.429 269.228 133.421 269.32 133.395 269.409C133.369 269.497 133.326 269.578 133.267 269.649C133.208 269.719 133.135 269.777 133.053 269.818C132.971 269.859 132.882 269.883 132.79 269.888L127.99 270.265C127.798 270.281 127.607 270.224 127.456 270.105C127.304 269.985 127.204 269.813 127.175 269.622L126.95 267.856C126.939 267.764 126.947 267.671 126.974 267.582C127 267.493 127.045 267.411 127.104 267.34C127.164 267.27 127.238 267.212 127.321 267.171C127.404 267.13 127.495 267.106 127.587 267.102L132.393 266.744C132.583 266.731 132.77 266.79 132.919 266.909C133.067 267.028 133.165 267.198 133.193 267.386L133.417 269.137Z" fill="url(#paint57_linear_628_632)"/>
<path d="M141.28 268.526C141.292 268.615 141.285 268.706 141.26 268.793C141.235 268.88 141.193 268.961 141.135 269.031C141.078 269.1 141.006 269.157 140.926 269.198C140.845 269.239 140.757 269.263 140.667 269.269L135.967 269.638C135.778 269.653 135.59 269.595 135.442 269.477C135.293 269.359 135.195 269.189 135.167 269.001L134.944 267.254C134.933 267.163 134.94 267.072 134.966 266.984C134.991 266.897 135.035 266.815 135.093 266.745C135.152 266.675 135.224 266.618 135.306 266.577C135.387 266.536 135.476 266.513 135.567 266.508L140.274 266.158C140.462 266.145 140.647 266.203 140.793 266.32C140.94 266.438 141.036 266.607 141.063 266.793L141.28 268.526Z" fill="url(#paint58_linear_628_632)"/>
<path d="M118.181 275.988C118.191 276.082 118.182 276.177 118.154 276.268C118.126 276.358 118.08 276.442 118.019 276.515C117.958 276.587 117.883 276.646 117.798 276.688C117.713 276.731 117.621 276.755 117.526 276.761L112.526 277.191C112.329 277.211 112.131 277.155 111.973 277.034C111.816 276.914 111.711 276.737 111.679 276.541L111.449 274.741C111.438 274.646 111.448 274.549 111.476 274.457C111.504 274.366 111.551 274.281 111.613 274.208C111.676 274.135 111.753 274.076 111.839 274.034C111.925 273.992 112.019 273.968 112.115 273.964L117.122 273.555C117.318 273.536 117.513 273.593 117.668 273.714C117.824 273.834 117.927 274.009 117.958 274.203L118.181 275.988Z" fill="url(#paint59_linear_628_632)"/>
<path d="M126.1 275.316C126.111 275.409 126.103 275.503 126.076 275.592C126.049 275.681 126.004 275.764 125.944 275.836C125.884 275.908 125.81 275.966 125.727 276.008C125.643 276.05 125.552 276.074 125.459 276.08L120.559 276.502C120.364 276.521 120.17 276.464 120.016 276.344C119.861 276.224 119.758 276.05 119.728 275.857L119.501 274.072C119.49 273.978 119.499 273.883 119.526 273.793C119.554 273.703 119.599 273.619 119.66 273.547C119.721 273.475 119.796 273.416 119.881 273.374C119.966 273.333 120.058 273.309 120.152 273.304L125.052 272.904C125.245 272.887 125.437 272.943 125.589 273.063C125.741 273.182 125.843 273.355 125.872 273.546L126.1 275.316Z" fill="url(#paint60_linear_628_632)"/>
<path d="M134.118 274.634C134.129 274.725 134.122 274.818 134.096 274.906C134.07 274.994 134.027 275.076 133.968 275.147C133.909 275.218 133.837 275.276 133.755 275.317C133.673 275.359 133.584 275.384 133.492 275.39L128.692 275.802C128.5 275.82 128.309 275.764 128.158 275.645C128.006 275.526 127.906 275.354 127.877 275.164L127.652 273.398C127.641 273.306 127.649 273.212 127.675 273.123C127.702 273.034 127.746 272.952 127.806 272.88C127.865 272.809 127.939 272.751 128.022 272.709C128.105 272.668 128.195 272.643 128.288 272.638L133.088 272.246C133.277 272.23 133.465 272.288 133.614 272.406C133.762 272.524 133.86 272.694 133.888 272.882L134.118 274.634Z" fill="url(#paint61_linear_628_632)"/>
<path d="M141.975 273.966C141.987 274.056 141.98 274.147 141.955 274.234C141.93 274.321 141.887 274.402 141.83 274.472C141.773 274.542 141.702 274.599 141.622 274.641C141.541 274.683 141.453 274.707 141.363 274.714L136.663 275.114C136.474 275.13 136.286 275.074 136.138 274.956C135.989 274.839 135.891 274.669 135.863 274.481L135.64 272.734C135.629 272.643 135.636 272.551 135.661 272.463C135.687 272.375 135.73 272.294 135.788 272.223C135.847 272.153 135.919 272.095 136 272.054C136.082 272.012 136.171 271.988 136.262 271.982L140.962 271.598C141.149 271.583 141.334 271.64 141.481 271.757C141.627 271.874 141.724 272.042 141.751 272.228L141.975 273.966Z" fill="url(#paint62_linear_628_632)"/>
<path d="M118.878 281.468C118.889 281.563 118.88 281.658 118.853 281.75C118.826 281.841 118.78 281.925 118.719 281.998C118.657 282.071 118.582 282.131 118.497 282.174C118.412 282.216 118.319 282.241 118.224 282.247L113.224 282.712C113.027 282.734 112.829 282.679 112.672 282.559C112.514 282.439 112.409 282.263 112.378 282.067L112.149 280.267C112.139 280.171 112.148 280.075 112.176 279.983C112.204 279.891 112.251 279.806 112.313 279.732C112.375 279.659 112.452 279.599 112.538 279.557C112.624 279.514 112.718 279.489 112.814 279.484L117.814 279.04C118.009 279.02 118.205 279.075 118.36 279.195C118.516 279.314 118.62 279.489 118.65 279.683L118.878 281.468Z" fill="url(#paint63_linear_628_632)"/>
<path d="M126.786 280.739C126.797 280.832 126.789 280.926 126.762 281.016C126.735 281.106 126.691 281.189 126.631 281.261C126.571 281.333 126.497 281.392 126.414 281.435C126.331 281.478 126.24 281.503 126.146 281.51L121.246 281.965C121.052 281.985 120.858 281.93 120.703 281.811C120.549 281.692 120.446 281.519 120.416 281.326L120.189 279.541C120.179 279.447 120.188 279.352 120.215 279.262C120.243 279.171 120.288 279.088 120.349 279.015C120.41 278.943 120.484 278.884 120.569 278.841C120.653 278.798 120.745 278.773 120.839 278.767L125.739 278.331C125.931 278.312 126.123 278.368 126.276 278.487C126.428 278.605 126.529 278.778 126.558 278.969L126.786 280.739Z" fill="url(#paint64_linear_628_632)"/>
<path d="M134.8 280C134.811 280.091 134.804 280.184 134.778 280.272C134.753 280.361 134.709 280.443 134.651 280.514C134.592 280.585 134.52 280.644 134.438 280.686C134.356 280.729 134.267 280.754 134.175 280.761L129.375 281.208C129.184 281.227 128.993 281.172 128.842 281.054C128.69 280.936 128.59 280.764 128.562 280.574L128.336 278.808C128.325 278.715 128.333 278.622 128.359 278.532C128.386 278.443 128.43 278.36 128.49 278.289C128.549 278.217 128.623 278.158 128.706 278.116C128.789 278.074 128.879 278.049 128.972 278.043L133.772 277.616C133.961 277.599 134.149 277.656 134.298 277.773C134.446 277.891 134.545 278.06 134.572 278.248L134.8 280Z" fill="url(#paint65_linear_628_632)"/>
<path d="M119.627 287.35C119.637 287.445 119.628 287.541 119.601 287.632C119.573 287.723 119.527 287.808 119.466 287.881C119.405 287.954 119.33 288.014 119.245 288.058C119.161 288.102 119.068 288.128 118.973 288.135L113.973 288.635C113.777 288.659 113.579 288.605 113.421 288.486C113.263 288.366 113.158 288.19 113.127 287.995L112.897 286.195C112.887 286.099 112.896 286.002 112.925 285.91C112.953 285.818 113 285.733 113.062 285.659C113.124 285.585 113.2 285.525 113.286 285.481C113.372 285.438 113.466 285.412 113.562 285.406L118.562 284.924C118.757 284.902 118.952 284.956 119.108 285.075C119.263 285.194 119.367 285.368 119.397 285.562L119.627 287.35Z" fill="url(#paint66_linear_628_632)"/>
<path d="M127.527 286.561C127.538 286.654 127.529 286.749 127.503 286.838C127.476 286.928 127.432 287.012 127.372 287.084C127.312 287.157 127.239 287.216 127.156 287.26C127.073 287.303 126.982 287.329 126.888 287.337L121.994 287.83C121.801 287.852 121.606 287.799 121.451 287.681C121.297 287.563 121.194 287.389 121.164 287.197L120.937 285.411C120.926 285.317 120.934 285.221 120.961 285.13C120.988 285.039 121.034 284.955 121.094 284.882C121.155 284.809 121.23 284.749 121.314 284.706C121.399 284.663 121.491 284.637 121.586 284.631L126.486 284.158C126.678 284.138 126.87 284.192 127.023 284.31C127.175 284.427 127.276 284.599 127.305 284.79L127.527 286.561Z" fill="url(#paint67_linear_628_632)"/>
<path d="M135.537 285.762C135.548 285.854 135.541 285.947 135.515 286.035C135.489 286.124 135.446 286.207 135.388 286.278C135.329 286.35 135.257 286.409 135.175 286.452C135.094 286.495 135.004 286.521 134.912 286.529L130.12 287.012C129.93 287.033 129.738 286.979 129.587 286.862C129.435 286.745 129.335 286.573 129.307 286.384L129.081 284.617C129.07 284.524 129.078 284.43 129.105 284.341C129.131 284.251 129.175 284.168 129.235 284.096C129.294 284.024 129.368 283.965 129.45 283.922C129.533 283.879 129.624 283.853 129.717 283.846L134.511 283.383C134.699 283.364 134.887 283.419 135.036 283.536C135.185 283.652 135.284 283.822 135.311 284.009L135.537 285.762Z" fill="url(#paint68_linear_628_632)"/>
<path d="M141.63 276.919L136.93 277.337C136.538 277.372 136.288 277.815 136.337 278.197L136.462 279.182L136.567 280.004L137.041 283.719L137.181 284.812L137.272 285.526C137.321 285.909 137.672 286.251 138.063 286.212L142.756 285.739C143.142 285.7 143.422 285.298 143.374 284.918L143.283 284.209L143.145 283.125L142.674 279.44L142.574 278.625L142.449 277.648C142.4 277.268 142.017 276.885 141.63 276.919Z" fill="url(#paint69_linear_628_632)"/>
<g opacity="0.5">
<path d="M175.617 168.984L156.147 169.47C151.488 169.586 148.176 171.89 148.788 174.612L151.4 186.227C152.008 188.927 156.274 190.946 160.889 190.727L180.177 189.827C184.577 189.627 187.652 187.346 187.086 184.737L184.654 173.531C184.088 170.915 180.056 168.873 175.617 168.984Z" fill="#F4F7FA"/>
<path d="M216.42 167.966L198.549 168.412C194.277 168.519 191.241 170.721 191.802 173.327L194.202 184.452C194.76 187.042 198.672 188.98 202.902 188.783L220.612 187.962C224.655 187.774 227.484 185.596 226.964 183.093L224.728 172.344C224.2 169.826 220.5 167.865 216.42 167.966Z" fill="#F4F7FA"/>
<path d="M181.142 194.237L161.893 195.218C157.287 195.452 154.013 197.828 154.619 200.518L157.2 212C157.8 214.673 162.019 216.568 166.581 216.238L185.651 214.857C190 214.542 193.044 212.199 192.484 209.619L190.084 198.537C189.518 195.941 185.532 194.014 181.142 194.237Z" fill="#F4F7FA"/>
<path d="M221.5 192.182L203.823 193.082C199.598 193.297 196.595 195.565 197.15 198.143L199.52 209.143C200.072 211.705 203.941 213.532 208.128 213.228L225.647 211.96C229.647 211.671 232.447 209.432 231.931 206.96L229.719 196.325C229.2 193.832 225.532 191.976 221.5 192.182Z" fill="#F4F7FA"/>
</g>
<g opacity="0.5">
<path d="M185.252 237.977L165.782 238.462C161.122 238.579 157.81 240.882 158.423 243.604L161.037 255.22C161.646 257.92 165.911 259.939 170.527 259.725L189.814 258.83C194.214 258.63 197.29 256.349 196.724 253.739L194.292 242.533C193.722 239.908 189.69 237.866 185.252 237.977Z" fill="#F4F7FA"/>
<path d="M226.054 236.959L208.183 237.405C203.911 237.511 200.875 239.714 201.437 242.32L203.837 253.445C204.395 256.035 208.306 257.972 212.537 257.776L230.248 256.954C234.29 256.767 237.12 254.589 236.599 252.086L234.363 241.337C233.839 238.819 230.133 236.857 226.054 236.959Z" fill="#F4F7FA"/>
<path d="M190.777 263.23L171.528 264.211C166.922 264.445 163.648 266.82 164.253 269.511L166.837 280.992C167.437 283.666 171.656 285.561 176.218 285.23L195.289 283.85C199.637 283.535 202.681 281.192 202.121 278.612L199.721 267.53C199.153 264.934 195.166 263.006 190.777 263.23Z" fill="#F4F7FA"/>
<path d="M231.131 261.174L213.455 262.074C209.229 262.289 206.227 264.557 206.782 267.134L209.152 278.134C209.704 280.696 213.572 282.523 217.76 282.22L235.279 280.952C239.279 280.662 242.079 278.424 241.562 275.947L239.35 265.313C238.832 262.825 235.166 260.969 231.131 261.174Z" fill="#F4F7FA"/>
</g>
<path d="M310.936 76.4999C302.98 65.2399 287.871 57.7379 274.855 54.2149C259.713 50.1149 243.648 53.4909 232.628 64.8999C226.128 71.6309 221.764 79.4249 222.116 88.9749C222.407 96.8859 226.116 103.764 232.132 108.845C237.366 113.264 245.044 115.145 248.815 121.121C251.042 124.653 251.161 129.654 247.798 132.621C245.036 135.059 242.385 134.182 239.085 134.254C235.448 134.333 232.735 135.567 230.595 138.654C227.763 142.733 228.022 147.768 231.915 151.054C233.684 152.548 238.989 155.776 241.464 154.495C251.58 158.064 265.091 157.838 276.292 152.339C302.005 139.714 331.369 105.423 310.936 76.4999Z" fill="url(#paint70_linear_628_632)"/>
<path d="M250.947 314.562C250.947 314.562 241.39 319.078 241.234 319.799C241.078 320.52 247.38 319.557 249.953 319.661C252.526 319.765 254.643 318.975 254.41 317.842C254.177 316.709 253.276 313.859 253.276 313.859L250.947 314.562Z" fill="url(#paint71_linear_628_632)"/>
<path d="M250.6 310.9L251.181 315.373C251.181 315.373 252.694 315.933 253.711 315.273L254.144 310.367L250.6 310.9Z" fill="url(#paint72_linear_628_632)"/>
<path d="M295.608 311.005L296.72 312.86C296.874 313.118 296.976 313.404 297.02 313.702C297.063 314 297.048 314.303 296.974 314.595C296.586 316.138 295.809 319.145 295.474 319.929C295.013 320.997 288.828 321.629 288.828 321.629C288.828 321.629 288.276 320.822 289.56 319.848C290.844 318.874 291.67 318.72 292.123 317.282C292.576 315.844 292.879 311.776 292.879 311.776L295.608 311.005Z" fill="url(#paint73_linear_628_632)"/>
<path d="M290.981 306.29C291.387 306.627 293.373 312.89 293.373 312.89C293.373 312.89 294.017 313.745 295.238 312.483C296.459 311.221 295.791 311.917 295.791 311.917L295.562 305.752L290.981 306.29Z" fill="url(#paint74_linear_628_632)"/>
<path d="M245.339 221.022C244.839 234.367 244.814 248.865 245.553 264.353C246.384 281.794 248.053 297.914 250.162 312.526C250.945 312.552 251.767 312.557 252.627 312.532C253.207 312.515 253.769 312.485 254.313 312.447C255.704 308.589 256.886 304.658 257.854 300.673C258.952 296.131 259.778 291.527 260.327 286.886C262.167 271.772 260.01 270.453 261.504 259.252C262.827 249.332 264.704 248.944 266.917 234.86C269.317 219.578 267.529 217.285 266.662 216.46C262.969 212.931 254.3 215.331 245.339 221.022Z" fill="url(#paint75_linear_628_632)"/>
<path style="mix-blend-mode:multiply" opacity="0.3" d="M266.662 216.457C263.139 213.094 255.085 215.13 246.577 220.257C256.364 231.25 257.431 238.381 256.258 243.008C254.932 248.237 250.9 249.743 250.916 255.461C250.935 262.488 257.035 264.35 256.906 271.785C256.82 276.702 254.139 276.651 253.506 282.724C252.757 289.91 256.259 292.386 255.125 297.702C254.637 299.989 253.244 302.978 249.277 306.057C249.563 308.24 249.856 310.401 250.162 312.522C250.944 312.547 251.767 312.552 252.627 312.522C253.207 312.506 253.769 312.477 254.313 312.438C255.704 308.58 256.886 304.649 257.854 300.664C258.952 296.122 259.778 291.518 260.327 286.877C262.167 271.763 260.01 270.444 261.504 259.243C262.827 249.323 264.704 248.935 266.917 234.851C269.313 219.577 267.529 217.285 266.662 216.457Z" fill="url(#paint76_linear_628_632)"/>
<path d="M251.4 220.8C261.362 235.957 269.945 251.977 277.046 268.667C282.584 281.684 287.218 295.067 290.915 308.721C291.791 309.145 292.772 309.303 293.736 309.175C295.555 308.925 296.646 307.718 296.936 307.381C298.025 300.343 298.271 293.199 297.669 286.103C297.38 282.715 296.869 277.074 294.791 270.11C292.464 262.31 290.865 261.87 287.83 253.617C284.679 245.051 285.442 242.917 282.425 232.192C280.614 225.778 278.363 219.496 275.688 213.392L251.4 220.8Z" fill="url(#paint77_linear_628_632)"/>
<path d="M175.882 140.993C175.882 140.993 174.082 138.65 172.939 136.91C171.796 135.17 166.462 130.278 166.462 130.278C166.462 130.278 166.056 131.054 167.204 132.296C168.352 133.538 170.769 135.666 170.213 136.567C169.657 137.468 168.093 138.261 169.222 139.961C170.351 141.661 172.314 140.5 173.322 141.861C174.33 143.222 175.353 144.712 175.353 144.712L175.882 140.993Z" fill="white"/>
<path d="M176.585 139.464L172.941 145.2C174.664 150.446 177.108 155.427 180.203 160C181.888 162.481 187.11 169.761 195.951 175.615C207.986 183.584 229.913 191.015 236.332 182.539C242.06 174.972 232.815 158.199 231.113 155.188C225.983 157.696 220.422 159.201 214.727 159.622C212.342 159.795 206.134 160.188 199.14 157.955C186.2 153.813 179.01 143.38 176.585 139.464Z" fill="url(#paint78_linear_628_632)"/>
<path d="M218.482 164.148C219.011 166.619 227.282 165.293 228.982 169.779C229.897 172.186 227.953 173.715 227.872 177.802C227.781 182.379 230.127 184.977 231.926 188.577C234.562 193.85 234.572 199.019 234.591 209.356C234.619 224.07 231.12 227.029 234.107 231.771C237.995 237.944 247.331 238.338 249.854 238.445C258.484 238.81 259.508 234.545 268.873 234.038C279.567 233.457 281.09 238.862 288.739 236.556C295.726 234.456 298.077 228.849 303.517 230.009C306.917 230.733 307.817 233.309 311.028 233.031C314.239 232.753 317.584 229.78 317.811 226.731C318.094 222.945 313.643 218.175 306.667 218.168C303.895 219.18 299.3 220.352 294.19 219.05C285.817 216.916 281.462 209.514 276.625 201.294C273.279 195.607 267.125 185.154 267.056 171.449C267.025 165.797 268.056 164.143 266.571 161.122C261.759 151.312 243.092 152.776 241.511 152.922C228.793 154.061 217.844 161.164 218.482 164.148Z" fill="url(#paint79_linear_628_632)"/>
<path d="M214.312 176.494L237.759 177.445C237.887 177.451 238.01 177.496 238.111 177.574C238.213 177.651 238.289 177.757 238.329 177.879L249.375 209.733C249.534 210.19 249.037 211.333 248.575 211.281L225.39 208C225.273 207.986 225.162 207.939 225.07 207.865C224.978 207.791 224.908 207.693 224.868 207.582L213.376 177.849C213.213 177.412 213.858 176.475 214.312 176.494Z" fill="url(#paint80_linear_628_632)"/>
<path d="M213.948 177.273L237.395 178.224C237.523 178.231 237.646 178.276 237.747 178.353C237.849 178.431 237.925 178.537 237.966 178.658L249.011 210.513C249.17 210.97 248.811 211.442 248.349 211.39L225.027 208.782C224.91 208.768 224.799 208.722 224.706 208.648C224.614 208.574 224.544 208.476 224.504 208.365L213.333 178.165C213.294 178.065 213.28 177.958 213.293 177.852C213.305 177.745 213.343 177.644 213.404 177.556C213.465 177.468 213.546 177.396 213.641 177.347C213.736 177.297 213.841 177.272 213.948 177.273Z" fill="url(#paint81_linear_628_632)"/>
<path d="M220.36 178.46L219.46 175.92C219.441 175.868 219.434 175.812 219.44 175.756C219.446 175.701 219.466 175.648 219.497 175.602C219.528 175.556 219.57 175.517 219.618 175.49C219.667 175.463 219.721 175.448 219.777 175.447H228.312C228.385 175.448 228.456 175.472 228.514 175.516C228.572 175.56 228.614 175.622 228.634 175.692L229.492 178.501C229.509 178.553 229.514 178.609 229.505 178.664C229.496 178.718 229.475 178.77 229.442 178.814C229.41 178.859 229.367 178.895 229.318 178.92C229.269 178.945 229.214 178.958 229.159 178.958L220.67 178.689C220.601 178.687 220.535 178.664 220.479 178.623C220.424 178.582 220.382 178.525 220.36 178.46Z" fill="url(#paint82_linear_628_632)"/>
<path style="mix-blend-mode:multiply" opacity="0.3" d="M234.793 203.679C233.27 198.545 235.777 195.201 233.218 191.212C229.6 185.568 221.826 187.957 219.409 183.404C218.757 182.176 218.445 180.346 219.325 177.491L213.948 177.273C213.841 177.272 213.735 177.297 213.64 177.347C213.545 177.396 213.464 177.468 213.403 177.556C213.342 177.644 213.304 177.746 213.292 177.852C213.28 177.959 213.294 178.066 213.333 178.166L224.504 208.366C224.544 208.477 224.614 208.575 224.706 208.649C224.799 208.723 224.91 208.769 225.027 208.783L239.2 210.367C236.676 208.079 235.412 205.765 234.793 203.679Z" fill="url(#paint83_linear_628_632)"/>
<path d="M251.916 199.864C251.916 199.864 248.372 199.131 247.006 198.237C245.64 197.343 244.19 195.906 242.176 195.984C240.162 196.062 238.133 197.127 239.064 197.372C239.995 197.617 241.733 199.535 243.064 200.291C244.395 201.047 247.427 201.115 247.992 201.074C248.557 201.033 250.792 202.427 250.792 202.427L251.916 199.864Z" fill="white"/>
<path style="mix-blend-mode:multiply" opacity="0.3" d="M306.669 218.171C303.897 219.183 299.302 220.355 294.192 219.053C285.819 216.919 281.464 209.517 276.627 201.297C273.281 195.61 267.127 185.157 267.058 171.452C267.027 165.8 268.058 164.146 266.573 161.125C266.337 160.653 266.066 160.2 265.761 159.77C262.106 162.339 260.688 164.911 260.274 167.17C259.266 172.67 264.02 177.162 261.546 181.903C259.177 186.445 253.319 185.188 252.097 189.081C250.78 193.281 257.263 195.814 257.548 202.304C257.892 210.092 248.883 213.904 250.462 219.116C251.831 223.63 259.369 223.305 259.362 225.727C259.362 228.606 248.693 233.239 239.557 229.694C236.788 228.619 234.657 226.984 233.075 225.415C232.734 227.952 232.795 229.691 234.106 231.771C237.994 237.944 247.33 238.338 249.853 238.445C258.483 238.81 259.507 234.545 268.872 234.038C279.566 233.457 281.089 238.862 288.738 236.556C295.725 234.456 298.076 228.849 303.516 230.009C306.916 230.733 307.816 233.309 311.027 233.031C314.238 232.753 317.583 229.78 317.81 226.731C318.1 222.948 313.644 218.178 306.669 218.171Z" fill="url(#paint84_linear_628_632)"/>
<path d="M251.825 198.337L248.554 204.382C250.235 205.238 268.205 214.082 281.23 205.326C282.841 204.245 287.121 201.369 289.43 195.738C291.973 189.532 290.546 183.762 289.621 180.015C287.331 170.737 280.853 161.006 271.663 157.096C268.152 155.602 263.984 154.847 260.063 154.136C256.738 153.536 251.513 152.795 251.402 153.318C251.347 153.573 252.562 153.899 253.402 154.395C258.58 157.44 252.002 170.016 258.092 176.048C263.922 181.825 271.492 180.871 272.708 186.107C273.275 188.541 272.101 190.731 271.579 191.707C268.664 197.15 260.811 199.586 251.825 198.337Z" fill="url(#paint85_linear_628_632)"/>
<path d="M239.628 143.876C239.628 143.876 241.738 150.254 244.367 151.247C246.996 152.24 251.15 153.38 251.667 153.822C252.184 154.264 237.703 159.153 229.58 156.902C231.895 155.849 232.514 155.513 232.514 155.513C233.132 155.176 234.285 154.55 235.366 153.554C236.102 152.877 237.255 151.616 238.122 149.52L237.363 145.9L239.628 143.876Z" fill="white"/>
<path d="M240.45 146.119C240.45 146.119 239.37 148.613 236.811 148.23C234.519 147.887 234.635 141.894 236.192 140.873C236.712 140.533 237.766 140.403 238.548 140.701C239.098 140.91 240.735 142.301 240.37 144.346C240.875 144.066 241.378 144.11 241.552 144.361C241.774 144.679 241.415 145.261 241.334 145.388C241.124 145.719 240.814 145.975 240.45 146.119Z" fill="white"/>
<path d="M152.886 285.889L191.754 284.2L236.536 285.769L192.357 295.425L152.886 285.889Z" fill="url(#paint86_linear_628_632)"/>
<path d="M184.2 323.344L152.717 314.87C149.546 314.017 147.082 310.875 147.082 307.829V307.8C147.082 304.754 149.546 302.71 152.717 303.269L186.484 308.795L184.2 323.344Z" fill="url(#paint87_linear_628_632)"/>
<path d="M236.59 316.98L185.719 322.661C182.533 323.017 179.913 320.795 179.913 317.694V315.589C179.913 312.489 182.533 309.765 185.719 309.511L236.59 305.462C234.339 309.652 233.819 313.573 236.59 316.98Z" fill="url(#paint88_linear_628_632)"/>
<path d="M237.033 317.544L186.145 323.314C181.989 323.786 178.545 320.875 178.545 316.814V316.769C178.545 312.711 181.988 309.141 186.145 308.817L237.033 304.848C237.339 304.824 237.587 305.079 237.587 305.418C237.587 305.757 237.339 306.051 237.033 306.076L186.145 310.219C182.802 310.491 180.045 313.367 180.045 316.626V316.671C180.045 319.93 182.806 322.278 186.145 321.91L237.033 316.31C237.339 316.277 237.587 316.524 237.587 316.862C237.587 317.2 237.339 317.51 237.033 317.544Z" fill="url(#paint89_linear_628_632)"/>
<path d="M185.525 308.824L152.719 303.264C149.548 302.705 147.084 298.549 147.084 293.974V293.924C147.084 289.349 149.548 285.724 152.719 285.837L187.519 287.13L185.525 308.824Z" fill="url(#paint90_linear_628_632)"/>
<path d="M236.59 303.964L188.57 307.585C183.834 307.943 179.913 304.463 179.913 299.806V296.646C179.913 291.989 183.834 288.107 188.57 287.977L236.59 286.668C234.332 292.948 233.827 298.828 236.59 303.964Z" fill="url(#paint91_linear_628_632)"/>
<path d="M237.033 304.851L186.145 308.82C181.989 309.144 178.545 304.456 178.545 298.363V298.3C178.545 292.207 181.988 287.165 186.145 287.061L237.033 285.797C237.339 285.789 237.587 286.197 237.587 286.703C237.587 287.209 237.339 287.63 237.033 287.639L186.145 289.165C182.802 289.265 180.045 293.33 180.045 298.223V298.29C180.045 303.184 182.806 306.964 186.145 306.72L237.033 303.013C237.339 302.991 237.587 303.384 237.587 303.892C237.587 304.4 237.339 304.827 237.033 304.851Z" fill="url(#paint92_linear_628_632)"/>
<g style="mix-blend-mode:soft-light" opacity="0.5">
<path d="M175.352 304.24L168.339 303.014C166.702 298.545 166.825 294.439 168.339 289.532L175.352 290.032C173.914 295.194 174.132 299.871 175.352 304.24Z" fill="white"/>
</g>
<defs>
<linearGradient id="paint0_linear_628_632" x1="124.371" y1="185.849" x2="80.3222" y2="190.654" gradientUnits="userSpaceOnUse">
<stop stop-color="#444B8C"/>
<stop offset="1" stop-color="#26264F"/>
</linearGradient>
<linearGradient id="paint1_linear_628_632" x1="163.182" y1="74.8158" x2="54.2631" y2="445.622" gradientUnits="userSpaceOnUse">
<stop stop-color="#444B8C"/>
<stop offset="1" stop-color="#26264F"/>
</linearGradient>
<linearGradient id="paint2_linear_628_632" x1="111.862" y1="259.026" x2="151.355" y2="120.05" gradientUnits="userSpaceOnUse">
<stop offset="0.49" stop-color="#EBEFF2"/>
<stop offset="1" stop-color="white"/>
</linearGradient>
<linearGradient id="paint3_linear_628_632" x1="122.367" y1="65.6829" x2="-5.6418" y2="412.375" gradientUnits="userSpaceOnUse">
<stop stop-color="#311944"/>
<stop offset="1" stop-color="#893976"/>
</linearGradient>
<linearGradient id="paint4_linear_628_632" x1="157.611" y1="110.956" x2="122.539" y2="198.367" gradientUnits="userSpaceOnUse">
<stop stop-color="#FFC444"/>
<stop offset="1" stop-color="#F36F56"/>
</linearGradient>
<linearGradient id="paint5_linear_628_632" x1="89.484" y1="264.407" x2="253.971" y2="264.407" gradientUnits="userSpaceOnUse">
<stop stop-color="#AA80F9"/>
<stop offset="1" stop-color="#6165D7"/>
</linearGradient>
<linearGradient id="paint6_linear_628_632" x1="80.5051" y1="194.039" x2="245.654" y2="194.039" gradientUnits="userSpaceOnUse">
<stop stop-color="#AA80F9"/>
<stop offset="1" stop-color="#6165D7"/>
</linearGradient>
<linearGradient id="paint7_linear_628_632" x1="180.937" y1="370.472" x2="190.066" y2="112.985" gradientUnits="userSpaceOnUse">
<stop stop-color="#AA80F9"/>
<stop offset="1" stop-color="#6165D7"/>
</linearGradient>
<linearGradient id="paint8_linear_628_632" x1="155.28" y1="140.339" x2="155.947" y2="121.539" gradientUnits="userSpaceOnUse">
<stop stop-color="#AA80F9"/>
<stop offset="1" stop-color="#6165D7"/>
</linearGradient>
<linearGradient id="paint9_linear_628_632" x1="154.089" y1="92.8745" x2="150.372" y2="121.409" gradientUnits="userSpaceOnUse">
<stop stop-color="#AA80F9"/>
<stop offset="1" stop-color="#6165D7"/>
</linearGradient>
<linearGradient id="paint10_linear_628_632" x1="152.311" y1="84.6168" x2="147.384" y2="148.571" gradientUnits="userSpaceOnUse">
<stop stop-color="#AA80F9"/>
<stop offset="1" stop-color="#6165D7"/>
</linearGradient>
<linearGradient id="paint11_linear_628_632" x1="183.103" y1="93.5268" x2="152.898" y2="150.865" gradientUnits="userSpaceOnUse">
<stop stop-color="#FF9085"/>
<stop offset="1" stop-color="#FB6FBB"/>
</linearGradient>
<linearGradient id="paint12_linear_628_632" x1="186.88" y1="146.976" x2="189.032" y2="126.35" gradientUnits="userSpaceOnUse">
<stop stop-color="#FF9085"/>
<stop offset="1" stop-color="#FB6FBB"/>
</linearGradient>
<linearGradient id="paint13_linear_628_632" x1="131.054" y1="174.019" x2="101.378" y2="246.966" gradientUnits="userSpaceOnUse">
<stop stop-color="#E38DDD"/>
<stop offset="1" stop-color="#9571F6"/>
</linearGradient>
<linearGradient id="paint14_linear_628_632" x1="103.846" y1="207.783" x2="138.763" y2="203.103" gradientUnits="userSpaceOnUse">
<stop stop-color="#AA80F9"/>
<stop offset="1" stop-color="#6165D7"/>
</linearGradient>
<linearGradient id="paint15_linear_628_632" x1="119.969" y1="199.794" x2="127.025" y2="189.113" gradientUnits="userSpaceOnUse">
<stop stop-color="#AA80F9"/>
<stop offset="1" stop-color="#6165D7"/>
</linearGradient>
<linearGradient id="paint16_linear_628_632" x1="117.946" y1="170.557" x2="114.28" y2="179.568" gradientUnits="userSpaceOnUse">
<stop stop-color="#E38DDD"/>
<stop offset="1" stop-color="#9571F6"/>
</linearGradient>
<linearGradient id="paint17_linear_628_632" x1="111.129" y1="178.582" x2="96.6072" y2="184.065" gradientUnits="userSpaceOnUse">
<stop stop-color="#311944"/>
<stop offset="1" stop-color="#893976"/>
</linearGradient>
<linearGradient id="paint18_linear_628_632" x1="97.4775" y1="174.443" x2="111.852" y2="200.001" gradientUnits="userSpaceOnUse">
<stop stop-color="#FFC444"/>
<stop offset="1" stop-color="#F36F56"/>
</linearGradient>
<linearGradient id="paint19_linear_628_632" x1="93.7431" y1="176.045" x2="107.736" y2="203.117" gradientUnits="userSpaceOnUse">
<stop stop-color="#FFC444"/>
<stop offset="1" stop-color="#F36F56"/>
</linearGradient>
<linearGradient id="paint20_linear_628_632" x1="128.72" y1="256.72" x2="122.056" y2="269.61" gradientUnits="userSpaceOnUse">
<stop stop-color="#AA80F9"/>
<stop offset="1" stop-color="#6165D7"/>
</linearGradient>
<linearGradient id="paint21_linear_628_632" x1="126.805" y1="263.577" x2="115.969" y2="282.778" gradientUnits="userSpaceOnUse">
<stop stop-color="#E38DDD"/>
<stop offset="1" stop-color="#9571F6"/>
</linearGradient>
<linearGradient id="paint22_linear_628_632" x1="106.38" y1="251.971" x2="140.629" y2="247.428" gradientUnits="userSpaceOnUse">
<stop stop-color="#E38DDD"/>
<stop offset="1" stop-color="#9571F6"/>
</linearGradient>
<linearGradient id="paint23_linear_628_632" x1="107.091" y1="257.359" x2="141.324" y2="252.818" gradientUnits="userSpaceOnUse">
<stop stop-color="#E38DDD"/>
<stop offset="1" stop-color="#9571F6"/>
</linearGradient>
<linearGradient id="paint24_linear_628_632" x1="108.182" y1="251.677" x2="138.629" y2="251.677" gradientUnits="userSpaceOnUse">
<stop stop-color="#AA80F9"/>
<stop offset="1" stop-color="#6165D7"/>
</linearGradient>
<linearGradient id="paint25_linear_628_632" x1="134.159" y1="249.032" x2="133.712" y2="259.502" gradientUnits="userSpaceOnUse">
<stop stop-color="#311944"/>
<stop offset="1" stop-color="#A03976"/>
</linearGradient>
<linearGradient id="paint26_linear_628_632" x1="136.831" y1="248.89" x2="136.382" y2="259.393" gradientUnits="userSpaceOnUse">
<stop stop-color="#311944"/>
<stop offset="1" stop-color="#A03976"/>
</linearGradient>
<linearGradient id="paint27_linear_628_632" x1="134.527" y1="251.831" x2="134.047" y2="263.047" gradientUnits="userSpaceOnUse">
<stop stop-color="#311944"/>
<stop offset="1" stop-color="#A03976"/>
</linearGradient>
<linearGradient id="paint28_linear_628_632" x1="137.18" y1="251.496" x2="136.668" y2="263.495" gradientUnits="userSpaceOnUse">
<stop stop-color="#311944"/>
<stop offset="1" stop-color="#A03976"/>
</linearGradient>
<linearGradient id="paint29_linear_628_632" x1="138.663" y1="254.024" x2="128.359" y2="254.929" gradientUnits="userSpaceOnUse">
<stop stop-color="#311944"/>
<stop offset="1" stop-color="#A03976"/>
</linearGradient>
<linearGradient id="paint30_linear_628_632" x1="138.3" y1="251.28" x2="127.996" y2="252.185" gradientUnits="userSpaceOnUse">
<stop stop-color="#311944"/>
<stop offset="1" stop-color="#A03976"/>
</linearGradient>
<linearGradient id="paint31_linear_628_632" x1="139.112" y1="256.906" x2="128.017" y2="257.881" gradientUnits="userSpaceOnUse">
<stop stop-color="#311944"/>
<stop offset="1" stop-color="#A03976"/>
</linearGradient>
<linearGradient id="paint32_linear_628_632" x1="141.339" y1="249.008" x2="93.1482" y2="282.757" gradientUnits="userSpaceOnUse">
<stop stop-color="#444B8C"/>
<stop offset="1" stop-color="#3E4177"/>
</linearGradient>
<linearGradient id="paint33_linear_628_632" x1="143.151" y1="252.233" x2="95.8903" y2="285.33" gradientUnits="userSpaceOnUse">
<stop stop-color="#444B8C"/>
<stop offset="1" stop-color="#3E4177"/>
</linearGradient>
<linearGradient id="paint34_linear_628_632" x1="144.769" y1="255.34" x2="98.381" y2="287.826" gradientUnits="userSpaceOnUse">
<stop stop-color="#444B8C"/>
<stop offset="1" stop-color="#3E4177"/>
</linearGradient>
<linearGradient id="paint35_linear_628_632" x1="146.716" y1="258.311" x2="101.203" y2="290.185" gradientUnits="userSpaceOnUse">
<stop stop-color="#444B8C"/>
<stop offset="1" stop-color="#3E4177"/>
</linearGradient>
<linearGradient id="paint36_linear_628_632" x1="144.626" y1="253.315" x2="96.2667" y2="287.181" gradientUnits="userSpaceOnUse">
<stop stop-color="#444B8C"/>
<stop offset="1" stop-color="#3E4177"/>
</linearGradient>
<linearGradient id="paint37_linear_628_632" x1="146.361" y1="256.519" x2="98.9355" y2="289.731" gradientUnits="userSpaceOnUse">
<stop stop-color="#444B8C"/>
<stop offset="1" stop-color="#3E4177"/>
</linearGradient>
<linearGradient id="paint38_linear_628_632" x1="147.906" y1="259.607" x2="101.358" y2="292.205" gradientUnits="userSpaceOnUse">
<stop stop-color="#444B8C"/>
<stop offset="1" stop-color="#3E4177"/>
</linearGradient>
<linearGradient id="paint39_linear_628_632" x1="149.781" y1="262.558" x2="104.111" y2="294.541" gradientUnits="userSpaceOnUse">
<stop stop-color="#444B8C"/>
<stop offset="1" stop-color="#3E4177"/>
</linearGradient>
<linearGradient id="paint40_linear_628_632" x1="147.909" y1="257.48" x2="99.3866" y2="291.46" gradientUnits="userSpaceOnUse">
<stop stop-color="#444B8C"/>
<stop offset="1" stop-color="#3E4177"/>
</linearGradient>
<linearGradient id="paint41_linear_628_632" x1="149.568" y1="260.665" x2="101.982" y2="293.988" gradientUnits="userSpaceOnUse">
<stop stop-color="#444B8C"/>
<stop offset="1" stop-color="#3E4177"/>
</linearGradient>
<linearGradient id="paint42_linear_628_632" x1="151.042" y1="263.735" x2="104.335" y2="296.442" gradientUnits="userSpaceOnUse">
<stop stop-color="#444B8C"/>
<stop offset="1" stop-color="#3E4177"/>
</linearGradient>
<linearGradient id="paint43_linear_628_632" x1="152.844" y1="266.666" x2="107.021" y2="298.755" gradientUnits="userSpaceOnUse">
<stop stop-color="#444B8C"/>
<stop offset="1" stop-color="#3E4177"/>
</linearGradient>
<linearGradient id="paint44_linear_628_632" x1="151.189" y1="261.502" x2="102.507" y2="295.595" gradientUnits="userSpaceOnUse">
<stop stop-color="#444B8C"/>
<stop offset="1" stop-color="#3E4177"/>
</linearGradient>
<linearGradient id="paint45_linear_628_632" x1="152.771" y1="264.67" x2="105.03" y2="298.103" gradientUnits="userSpaceOnUse">
<stop stop-color="#444B8C"/>
<stop offset="1" stop-color="#3E4177"/>
</linearGradient>
<linearGradient id="paint46_linear_628_632" x1="154.173" y1="267.722" x2="107.314" y2="300.538" gradientUnits="userSpaceOnUse">
<stop stop-color="#444B8C"/>
<stop offset="1" stop-color="#3E4177"/>
</linearGradient>
<linearGradient id="paint47_linear_628_632" x1="154.546" y1="265.917" x2="105.693" y2="300.13" gradientUnits="userSpaceOnUse">
<stop stop-color="#444B8C"/>
<stop offset="1" stop-color="#3E4177"/>
</linearGradient>
<linearGradient id="paint48_linear_628_632" x1="156.05" y1="269.063" x2="108.141" y2="302.614" gradientUnits="userSpaceOnUse">
<stop stop-color="#444B8C"/>
<stop offset="1" stop-color="#3E4177"/>
</linearGradient>
<linearGradient id="paint49_linear_628_632" x1="157.378" y1="272.095" x2="110.354" y2="305.026" gradientUnits="userSpaceOnUse">
<stop stop-color="#444B8C"/>
<stop offset="1" stop-color="#3E4177"/>
</linearGradient>
<linearGradient id="paint50_linear_628_632" x1="157.332" y1="272.874" x2="111.575" y2="304.919" gradientUnits="userSpaceOnUse">
<stop stop-color="#444B8C"/>
<stop offset="1" stop-color="#3E4177"/>
</linearGradient>
<linearGradient id="paint51_linear_628_632" x1="119.836" y1="252.126" x2="113.171" y2="265.017" gradientUnits="userSpaceOnUse">
<stop stop-color="#AA80F9"/>
<stop offset="1" stop-color="#6165D7"/>
</linearGradient>
<linearGradient id="paint52_linear_628_632" x1="126.132" y1="255.381" x2="119.468" y2="268.273" gradientUnits="userSpaceOnUse">
<stop stop-color="#AA80F9"/>
<stop offset="1" stop-color="#6165D7"/>
</linearGradient>
<linearGradient id="paint53_linear_628_632" x1="132.515" y1="258.682" x2="125.851" y2="271.572" gradientUnits="userSpaceOnUse">
<stop stop-color="#AA80F9"/>
<stop offset="1" stop-color="#6165D7"/>
</linearGradient>
<linearGradient id="paint54_linear_628_632" x1="138.765" y1="261.913" x2="132.101" y2="274.803" gradientUnits="userSpaceOnUse">
<stop stop-color="#AA80F9"/>
<stop offset="1" stop-color="#6165D7"/>
</linearGradient>
<linearGradient id="paint55_linear_628_632" x1="122.542" y1="253.525" x2="115.877" y2="266.416" gradientUnits="userSpaceOnUse">
<stop stop-color="#AA80F9"/>
<stop offset="1" stop-color="#6165D7"/>
</linearGradient>
<linearGradient id="paint56_linear_628_632" x1="128.811" y1="256.767" x2="122.147" y2="269.657" gradientUnits="userSpaceOnUse">
<stop stop-color="#AA80F9"/>
<stop offset="1" stop-color="#6165D7"/>
</linearGradient>
<linearGradient id="paint57_linear_628_632" x1="135.166" y1="260.052" x2="128.502" y2="272.942" gradientUnits="userSpaceOnUse">
<stop stop-color="#AA80F9"/>
<stop offset="1" stop-color="#6165D7"/>
</linearGradient>
<linearGradient id="paint58_linear_628_632" x1="141.389" y1="263.269" x2="134.725" y2="276.161" gradientUnits="userSpaceOnUse">
<stop stop-color="#AA80F9"/>
<stop offset="1" stop-color="#6165D7"/>
</linearGradient>
<linearGradient id="paint59_linear_628_632" x1="125.185" y1="254.892" x2="118.521" y2="267.783" gradientUnits="userSpaceOnUse">
<stop stop-color="#AA80F9"/>
<stop offset="1" stop-color="#6165D7"/>
</linearGradient>
<linearGradient id="paint60_linear_628_632" x1="131.428" y1="258.119" x2="124.763" y2="271.01" gradientUnits="userSpaceOnUse">
<stop stop-color="#AA80F9"/>
<stop offset="1" stop-color="#6165D7"/>
</linearGradient>
<linearGradient id="paint61_linear_628_632" x1="137.756" y1="261.391" x2="131.092" y2="274.282" gradientUnits="userSpaceOnUse">
<stop stop-color="#AA80F9"/>
<stop offset="1" stop-color="#6165D7"/>
</linearGradient>
<linearGradient id="paint62_linear_628_632" x1="143.954" y1="264.595" x2="137.289" y2="277.486" gradientUnits="userSpaceOnUse">
<stop stop-color="#AA80F9"/>
<stop offset="1" stop-color="#6165D7"/>
</linearGradient>
<linearGradient id="paint63_linear_628_632" x1="127.766" y1="256.227" x2="121.102" y2="269.117" gradientUnits="userSpaceOnUse">
<stop stop-color="#AA80F9"/>
<stop offset="1" stop-color="#6165D7"/>
</linearGradient>
<linearGradient id="paint64_linear_628_632" x1="133.983" y1="259.44" x2="127.319" y2="272.331" gradientUnits="userSpaceOnUse">
<stop stop-color="#AA80F9"/>
<stop offset="1" stop-color="#6165D7"/>
</linearGradient>
<linearGradient id="paint65_linear_628_632" x1="140.286" y1="262.699" x2="133.622" y2="275.589" gradientUnits="userSpaceOnUse">
<stop stop-color="#AA80F9"/>
<stop offset="1" stop-color="#6165D7"/>
</linearGradient>
<linearGradient id="paint66_linear_628_632" x1="130.537" y1="257.659" x2="123.872" y2="270.549" gradientUnits="userSpaceOnUse">
<stop stop-color="#AA80F9"/>
<stop offset="1" stop-color="#6165D7"/>
</linearGradient>
<linearGradient id="paint67_linear_628_632" x1="136.726" y1="260.858" x2="130.062" y2="273.749" gradientUnits="userSpaceOnUse">
<stop stop-color="#AA80F9"/>
<stop offset="1" stop-color="#6165D7"/>
</linearGradient>
<linearGradient id="paint68_linear_628_632" x1="143.001" y1="264.102" x2="136.336" y2="276.993" gradientUnits="userSpaceOnUse">
<stop stop-color="#AA80F9"/>
<stop offset="1" stop-color="#6165D7"/>
</linearGradient>
<linearGradient id="paint69_linear_628_632" x1="147.8" y1="266.583" x2="141.136" y2="279.474" gradientUnits="userSpaceOnUse">
<stop stop-color="#AA80F9"/>
<stop offset="1" stop-color="#6165D7"/>
</linearGradient>
<linearGradient id="paint70_linear_628_632" x1="246.204" y1="154.233" x2="304.156" y2="6.59187" gradientUnits="userSpaceOnUse">
<stop stop-color="#26264F"/>
<stop offset="1" stop-color="#444B8C"/>
</linearGradient>
<linearGradient id="paint71_linear_628_632" x1="246.255" y1="298.861" x2="248.726" y2="330.311" gradientUnits="userSpaceOnUse">
<stop stop-color="#26264F"/>
<stop offset="1" stop-color="#444B8C"/>
</linearGradient>
<linearGradient id="paint72_linear_628_632" x1="252.45" y1="316.385" x2="252.001" y2="283.843" gradientUnits="userSpaceOnUse">
<stop stop-color="#893976"/>
<stop offset="1" stop-color="#311944"/>
</linearGradient>
<linearGradient id="paint73_linear_628_632" x1="291.116" y1="295.189" x2="293.59" y2="326.669" gradientUnits="userSpaceOnUse">
<stop stop-color="#26264F"/>
<stop offset="1" stop-color="#444B8C"/>
</linearGradient>
<linearGradient id="paint74_linear_628_632" x1="293.571" y1="315.795" x2="293.122" y2="283.255" gradientUnits="userSpaceOnUse">
<stop stop-color="#893976"/>
<stop offset="1" stop-color="#311944"/>
</linearGradient>
<linearGradient id="paint75_linear_628_632" x1="244.977" y1="263.677" x2="268.118" y2="263.677" gradientUnits="userSpaceOnUse">
<stop stop-color="#26264F"/>
<stop offset="1" stop-color="#444B8C"/>
</linearGradient>
<linearGradient id="paint76_linear_628_632" x1="246.577" y1="263.678" x2="268.118" y2="263.678" gradientUnits="userSpaceOnUse">
<stop stop-color="#FF9085"/>
<stop offset="1" stop-color="#FB6FBB"/>
</linearGradient>
<linearGradient id="paint77_linear_628_632" x1="251.401" y1="261.306" x2="297.986" y2="261.306" gradientUnits="userSpaceOnUse">
<stop stop-color="#26264F"/>
<stop offset="1" stop-color="#444B8C"/>
</linearGradient>
<linearGradient id="paint78_linear_628_632" x1="209.839" y1="166.067" x2="266.134" y2="274.936" gradientUnits="userSpaceOnUse">
<stop stop-color="#FF9085"/>
<stop offset="1" stop-color="#FB6FBB"/>
</linearGradient>
<linearGradient id="paint79_linear_628_632" x1="236.401" y1="151.935" x2="292.725" y2="260.862" gradientUnits="userSpaceOnUse">
<stop stop-color="#FF9085"/>
<stop offset="1" stop-color="#FB6FBB"/>
</linearGradient>
<linearGradient id="paint80_linear_628_632" x1="234.759" y1="188.303" x2="221.081" y2="210.976" gradientUnits="userSpaceOnUse">
<stop stop-color="#6165D7"/>
<stop offset="1" stop-color="#AA80F9"/>
</linearGradient>
<linearGradient id="paint81_linear_628_632" x1="244.281" y1="187.354" x2="209.771" y2="205.723" gradientUnits="userSpaceOnUse">
<stop stop-color="#AA80F9"/>
<stop offset="1" stop-color="#6165D7"/>
</linearGradient>
<linearGradient id="paint82_linear_628_632" x1="228.329" y1="164.573" x2="224.242" y2="177.947" gradientUnits="userSpaceOnUse">
<stop stop-color="#26264F"/>
<stop offset="1" stop-color="#444B8C"/>
</linearGradient>
<linearGradient id="paint83_linear_628_632" x1="242.989" y1="185.036" x2="208.544" y2="203.37" gradientUnits="userSpaceOnUse">
<stop stop-color="#AA80F9"/>
<stop offset="1" stop-color="#6165D7"/>
</linearGradient>
<linearGradient id="paint84_linear_628_632" x1="236.16" y1="151.47" x2="292.761" y2="260.931" gradientUnits="userSpaceOnUse">
<stop stop-color="#FF9085"/>
<stop offset="1" stop-color="#FB6FBB"/>
</linearGradient>
<linearGradient id="paint85_linear_628_632" x1="250.559" y1="148.919" x2="309.495" y2="284.55" gradientUnits="userSpaceOnUse">
<stop stop-color="#FF9085"/>
<stop offset="1" stop-color="#FB6FBB"/>
</linearGradient>
<linearGradient id="paint86_linear_628_632" x1="152.886" y1="289.813" x2="236.536" y2="289.813" gradientUnits="userSpaceOnUse">
<stop stop-color="#FFC444"/>
<stop offset="1" stop-color="#F36F56"/>
</linearGradient>
<linearGradient id="paint87_linear_628_632" x1="162.148" y1="322.977" x2="168.967" y2="307.467" gradientUnits="userSpaceOnUse">
<stop stop-color="#AA80F9"/>
<stop offset="1" stop-color="#6165D7"/>
</linearGradient>
<linearGradient id="paint88_linear_628_632" x1="179.913" y1="314.08" x2="236.59" y2="314.08" gradientUnits="userSpaceOnUse">
<stop stop-color="#F4F7FA"/>
<stop offset="1" stop-color="#D8DEE8"/>
</linearGradient>
<linearGradient id="paint89_linear_628_632" x1="178.546" y1="314.107" x2="237.587" y2="314.107" gradientUnits="userSpaceOnUse">
<stop stop-color="#AA80F9"/>
<stop offset="1" stop-color="#6165D7"/>
</linearGradient>
<linearGradient id="paint90_linear_628_632" x1="172.047" y1="281.157" x2="160.092" y2="321.425" gradientUnits="userSpaceOnUse">
<stop stop-color="#FFC444"/>
<stop offset="1" stop-color="#F36F56"/>
</linearGradient>
<linearGradient id="paint91_linear_628_632" x1="179.913" y1="297.139" x2="236.59" y2="297.139" gradientUnits="userSpaceOnUse">
<stop stop-color="#F4F7FA"/>
<stop offset="1" stop-color="#D8DEE8"/>
</linearGradient>
<linearGradient id="paint92_linear_628_632" x1="178.546" y1="297.314" x2="237.587" y2="297.314" gradientUnits="userSpaceOnUse">
<stop stop-color="#FFC444"/>
<stop offset="1" stop-color="#F36F56"/>
</linearGradient>
</defs>
</svg>
