<svg width="500" height="500" viewBox="0 0 500 500" fill="none" xmlns="http://www.w3.org/2000/svg">
<path d="M500 382.399H0V382.649H500V382.399Z" fill="#EBEBEB"/>
<path d="M443.889 391.922H410.767V392.172H443.889V391.922Z" fill="#EBEBEB"/>
<path d="M181.333 395.306H131.471V395.556H181.333V395.306Z" fill="#EBEBEB"/>
<path d="M409.767 401.208H380.241V401.458H409.767V401.208Z" fill="#EBEBEB"/>
<path d="M74.056 399.528H52.459V399.778H74.056V399.528Z" fill="#EBEBEB"/>
<path d="M121.333 399.528H82.959V399.778H121.333V399.528Z" fill="#EBEBEB"/>
<path d="M331.22 389.209H237.544V389.459H331.22V389.209Z" fill="#EBEBEB"/>
<path d="M237.014 337.8H43.915C40.768 337.8 38.207 335.24 38.207 332.092V60.661C38.207 57.514 40.768 54.953 43.915 54.953H237.014C240.16 54.953 242.721 57.514 242.721 60.661V332.093C242.721 335.24 240.16 337.8 237.014 337.8ZM43.915 55.203C40.905 55.203 38.457 57.651 38.457 60.661V332.093C38.457 335.103 40.905 337.551 43.915 337.551H237.014C240.023 337.551 242.471 335.103 242.471 332.093V60.661C242.471 57.652 240.023 55.203 237.014 55.203H43.915Z" fill="#EBEBEB"/>
<path d="M453.31 337.8H260.212C257.065 337.8 254.505 335.24 254.505 332.092V60.661C254.505 57.514 257.066 54.953 260.212 54.953H453.31C456.458 54.953 459.018 57.514 459.018 60.661V332.093C459.019 335.24 456.458 337.8 453.31 337.8ZM260.212 55.203C257.203 55.203 254.755 57.651 254.755 60.661V332.093C254.755 335.103 257.203 337.551 260.212 337.551H453.31C456.32 337.551 458.768 335.103 458.768 332.093V60.661C458.768 57.652 456.32 55.203 453.31 55.203H260.212Z" fill="#EBEBEB"/>
<path d="M132.947 376.738H145.961L145.961 213.103H132.947L132.947 376.738Z" fill="#F0F0F0"/>
<path d="M70.4398 382.384H142.528V376.739H70.4398V382.384Z" fill="#F0F0F0"/>
<path d="M132.948 213.104H67.0059V376.739H132.948V213.104Z" fill="#FAFAFA"/>
<path d="M125.917 298.311H74.0356V327.53H125.917V298.311Z" fill="#F0F0F0"/>
<path d="M125.917 336.553H74.0356V365.772H125.917V336.553Z" fill="#F0F0F0"/>
<path d="M92.728 301.559H107.225C108.094 301.559 108.805 300.848 108.805 299.979V299.133C108.805 298.264 108.094 297.552 107.225 297.552H92.728C91.859 297.552 91.147 298.263 91.147 299.133V299.979C91.148 300.847 91.859 301.559 92.728 301.559Z" fill="#FAFAFA"/>
<path d="M92.728 339.801H107.225C108.094 339.801 108.805 339.09 108.805 338.22V337.374C108.805 336.505 108.094 335.793 107.225 335.793H92.728C91.859 335.793 91.147 336.504 91.147 337.374V338.22C91.148 339.09 91.859 339.801 92.728 339.801Z" fill="#FAFAFA"/>
<path d="M125.917 222.128H74.0356V251.347H125.917V222.128Z" fill="#F0F0F0"/>
<path d="M125.917 260.068H74.0356V289.287H125.917V260.068Z" fill="#F0F0F0"/>
<path d="M92.728 225.376H107.225C108.094 225.376 108.805 224.665 108.805 223.796V222.95C108.805 222.081 108.094 221.369 107.225 221.369H92.728C91.859 221.369 91.147 222.08 91.147 222.95V223.796C91.148 224.664 91.859 225.376 92.728 225.376Z" fill="#FAFAFA"/>
<path d="M92.728 263.316H107.225C108.094 263.316 108.805 262.605 108.805 261.735V260.889C108.805 260.02 108.094 259.308 107.225 259.308H92.728C91.859 259.308 91.147 260.019 91.147 260.889V261.735C91.148 262.605 91.859 263.316 92.728 263.316Z" fill="#FAFAFA"/>
<path d="M205.109 376.738H226.636L226.636 213.103H205.109L205.109 376.738Z" fill="#F0F0F0"/>
<path d="M142.601 382.384H222.64V376.739H142.601V382.384Z" fill="#F0F0F0"/>
<path d="M205.109 213.104H139.167V376.739H205.109V213.104Z" fill="#FAFAFA"/>
<path d="M198.079 298.311H146.198V327.53H198.079V298.311Z" fill="#F0F0F0"/>
<path d="M198.079 336.553H146.198V365.772H198.079V336.553Z" fill="#F0F0F0"/>
<path d="M164.89 301.559H179.387C180.256 301.559 180.968 300.848 180.968 299.979V299.133C180.968 298.264 180.257 297.552 179.387 297.552H164.89C164.021 297.552 163.31 298.263 163.31 299.133V299.979C163.309 300.847 164.02 301.559 164.89 301.559Z" fill="#FAFAFA"/>
<path d="M164.89 339.801H179.387C180.256 339.801 180.968 339.09 180.968 338.22V337.374C180.968 336.505 180.257 335.793 179.387 335.793H164.89C164.021 335.793 163.31 336.504 163.31 337.374V338.22C163.309 339.09 164.02 339.801 164.89 339.801Z" fill="#FAFAFA"/>
<path d="M198.079 222.128H146.198V251.347H198.079V222.128Z" fill="#F0F0F0"/>
<path d="M198.079 260.068H146.198V289.287H198.079V260.068Z" fill="#F0F0F0"/>
<path d="M164.89 225.376H179.387C180.256 225.376 180.968 224.665 180.968 223.796V222.95C180.968 222.081 180.257 221.369 179.387 221.369H164.89C164.021 221.369 163.31 222.08 163.31 222.95V223.796C163.309 224.664 164.02 225.376 164.89 225.376Z" fill="#FAFAFA"/>
<path d="M164.89 263.316H179.387C180.256 263.316 180.968 262.605 180.968 261.735V260.889C180.968 260.02 180.257 259.308 179.387 259.308H164.89C164.021 259.308 163.31 260.019 163.31 260.889V261.735C163.309 262.605 164.02 263.316 164.89 263.316Z" fill="#FAFAFA"/>
<path d="M65.0141 160.775L234.183 160.775V90.1135L65.0141 90.1135V160.775Z" fill="#E6E6E6"/>
<path d="M57.7395 160.775L232.25 160.775V90.1135L57.7395 90.1135V160.775Z" fill="#F0F0F0"/>
<path d="M223.031 151.556V99.3329L66.9598 99.3329V151.556L223.031 151.556Z" fill="#FAFAFA"/>
<path d="M146.59 151.556L131.09 99.333H110.18L125.68 151.556H146.59Z" fill="white"/>
<path d="M203.862 151.556L188.362 99.333H167.452L182.952 151.556H203.862Z" fill="white"/>
<path d="M121.727 151.556L106.228 99.333H85.3179L100.818 151.556H121.727Z" fill="white"/>
<path d="M382.699 70.8829H289.483V217.655H382.699V70.8829Z" fill="#EBEBEB"/>
<path d="M376.102 211.057V77.4808L296.082 77.4808V211.057L376.102 211.057Z" fill="#FAFAFA"/>
<path d="M333.608 211.056H330.92L338.575 77.3469H341.263L333.608 211.056Z" fill="#E0E0E0"/>
<path d="M338.619 107.32V111.176L376.102 101.296V99.9369L338.619 107.32Z" fill="#E0E0E0"/>
<path d="M336.091 151.14V154.996L376.102 139.161V137.802L336.091 151.14Z" fill="#E0E0E0"/>
<path d="M332.632 196.378V201.7L376.102 177.65V176.291L332.632 196.378Z" fill="#E0E0E0"/>
<path d="M337.086 127.069V130.925L297.076 115.091V113.731L337.086 127.069Z" fill="#E0E0E0"/>
<path d="M333.854 173.63V178.952L297.076 159.322V157.963L333.854 173.63Z" fill="#E0E0E0"/>
<path d="M297.076 211.057V77.4808H296.082V211.057H297.076Z" fill="#E0E0E0"/>
<path d="M382.7 217.654H385.767V70.882H382.7V217.654Z" fill="#E0E0E0"/>
<path d="M419.347 206.879C419.347 200.794 421.71 191.668 421.71 191.668H412.362H403.014C403.014 191.668 405.377 200.795 405.377 206.879C405.377 212.964 397.981 223.888 397.981 232.6C397.981 241.312 405.441 252.166 405.441 252.166H412.362H419.283C419.283 252.166 426.743 241.312 426.743 232.6C426.743 223.888 419.347 212.963 419.347 206.879Z" fill="#E0E0E0"/>
<path d="M431.342 215.417C431.342 210.48 432.237 203.073 432.237 203.073H428.696H425.155C425.155 203.073 426.05 210.479 426.05 215.417C426.05 220.355 423.248 229.219 423.248 236.289C423.248 243.358 426.074 252.166 426.074 252.166H428.696H431.318C431.318 252.166 434.144 243.359 434.144 236.289C434.144 229.219 431.342 220.354 431.342 215.417Z" fill="#F0F0F0"/>
<path d="M258.354 382.397H268.983V252.165H258.354V382.397Z" fill="#E6E6E6"/>
<path d="M255.509 382.397H261.77V252.165H255.509L255.509 382.397Z" fill="#F0F0F0"/>
<path d="M404.527 252.167H253.57V258.835H404.527V252.167Z" fill="#F0F0F0"/>
<path d="M455.78 382.397H466.409V252.165H455.78V382.397Z" fill="#E6E6E6"/>
<path d="M453.787 382.397H460.048V252.165H453.787V382.397Z" fill="#F0F0F0"/>
<path d="M468.309 252.167H409.075V258.835H468.309V252.167Z" fill="#E6E6E6"/>
<path d="M405.433 382.397H416.062V252.165H405.433V382.397Z" fill="#E6E6E6"/>
<path d="M402.587 382.397H408.848V252.165H402.587V382.397Z" fill="#F0F0F0"/>
<path d="M257.357 252.166L329.048 295.223L400.74 252.166H257.357Z" fill="#FAFAFA"/>
<path d="M264.048 252.166L329.048 291.204L394.048 252.166H264.048Z" fill="#EBEBEB"/>
<path d="M414.186 252.166L439.963 291.204L465.74 252.166H414.186Z" fill="#FAFAFA"/>
<path d="M417.259 252.166L440.63 287.185L464.001 252.166H417.259Z" fill="#EBEBEB"/>
<path d="M250 427.561C357.082 427.561 443.889 422.492 443.889 416.238C443.889 409.985 357.082 404.915 250 404.915C142.918 404.915 56.1108 409.985 56.1108 416.238C56.1108 422.492 142.918 427.561 250 427.561Z" fill="#F5F5F5"/>
<path d="M201.775 407.025L193.735 404.384L197.711 385.064L205.751 387.705L201.775 407.025Z" fill="#FFB573"/>
<path d="M271.706 407.124H263.244L261.137 387.527H269.599L271.706 407.124Z" fill="#FFB573"/>
<path d="M262.548 406.144H272.864C273.21 406.144 273.51 406.384 273.584 406.722L275.256 414.244C275.429 415.024 274.816 415.762 274.017 415.749C270.698 415.692 268.276 415.497 264.095 415.497C261.523 415.497 253.767 415.764 250.215 415.764C246.741 415.764 246.199 412.252 247.653 411.934C254.173 410.508 259.086 408.541 261.173 406.664C261.551 406.326 262.042 406.144 262.548 406.144Z" fill="#263238"/>
<path d="M193.879 403.109L202.788 405.564C203.121 405.656 203.346 405.967 203.329 406.313L202.942 414.008C202.902 414.806 202.135 415.361 201.368 415.136C198.169 414.196 193.578 412.728 189.538 411.614C184.815 410.312 183.937 409.863 178.398 408.337C175.049 407.414 175.053 403.772 176.539 403.852C183.306 404.215 185.286 405.084 191.738 403.204C192.44 402.999 193.175 402.915 193.879 403.109Z" fill="#263238"/>
<path d="M235.563 150.026C235.024 150.731 234.606 151.25 234.128 151.836C233.667 152.408 233.187 152.954 232.708 153.499C231.747 154.587 230.765 155.649 229.759 156.692C227.758 158.788 225.618 160.763 223.362 162.653C218.818 166.382 213.797 169.834 207.613 172.016C206.072 172.555 204.447 172.985 202.745 173.267C202.318 173.334 201.895 173.407 201.464 173.462L200.149 173.579C199.788 173.625 199.102 173.63 198.493 173.615C197.929 173.576 197.355 173.527 196.859 173.439C194.837 173.098 193.25 172.476 191.763 171.841C190.284 171.198 188.939 170.48 187.66 169.711C185.098 168.193 182.772 166.517 180.553 164.744C178.325 162.964 176.262 161.118 174.239 159.042L178.074 153.977C182.77 156.313 187.577 158.769 192.177 160.543C193.327 160.971 194.458 161.365 195.521 161.661C196.574 161.959 197.601 162.116 198.268 162.13C198.442 162.14 198.548 162.111 198.659 162.108C198.727 162.073 198.72 162.084 199.03 162.026L199.733 161.909L200.45 161.736C200.925 161.645 201.419 161.444 201.903 161.311C202.396 161.111 202.882 160.962 203.38 160.731C205.366 159.908 207.368 158.758 209.314 157.402C211.279 156.081 213.184 154.539 215.041 152.905C216.907 151.278 218.7 149.514 220.463 147.713C221.34 146.808 222.201 145.882 223.035 144.941L224.272 143.53L225.408 142.192L235.563 150.026Z" fill="#FFB573"/>
<path d="M240.206 145.835C240.834 153.901 222.669 170.361 222.669 170.361L206.613 156.435C206.613 156.435 213.375 149.276 220.968 142.073C226.192 137.118 239.527 137.11 240.206 145.835Z" fill="white"/>
<path opacity="0.4" d="M240.206 145.835C240.834 153.901 222.669 170.361 222.669 170.361L206.613 156.435C206.613 156.435 213.375 149.276 220.968 142.073C226.192 137.118 239.527 137.11 240.206 145.835Z" fill="#407BFF"/>
<path opacity="0.2" d="M232.024 149.981C224.556 150.659 219.788 156.664 217.701 163.292C217.475 164.034 217.271 164.788 217.109 165.541L222.672 170.361C222.672 170.361 230.937 162.871 236.123 155.522C236.382 152.048 235.392 149.68 232.024 149.981Z" fill="black"/>
<path d="M180.027 157.539L177.28 150.559L167.897 153.439C167.897 153.439 171.083 156.892 174.619 159.29L180.027 157.539Z" fill="#FFB573"/>
<path d="M172.546 145.106L164.811 148.208L167.898 153.439L177.281 150.559L172.546 145.106Z" fill="#FFB573"/>
<path opacity="0.2" d="M197.712 385.07L195.323 396.667L203.482 398.748L205.755 387.712L197.712 385.07Z" fill="black"/>
<path opacity="0.2" d="M269.602 387.533H261.136L262.226 397.634H270.692L269.602 387.533Z" fill="black"/>
<path d="M274.595 141.932C271.985 151.282 270.317 160.805 269.218 169.767C268.418 176.324 267.937 182.582 267.639 188.257C266.936 201.558 267.228 211.699 266.833 215.135C260.216 214.676 235.28 212.942 221.684 211.99C215.535 163.855 227.276 139.055 227.276 139.055C227.276 139.055 232.274 138.058 238.083 137.719C238.848 137.67 239.626 137.643 240.416 137.627C245.53 137.519 253.866 138.286 259.612 138.963C260.82 139.107 262.042 139.284 263.23 139.475C269.275 140.459 274.595 141.932 274.595 141.932Z" fill="white"/>
<path opacity="0.4" d="M274.595 141.932C271.985 151.282 270.317 160.805 269.218 169.767C268.418 176.324 267.937 182.582 267.639 188.257C266.936 201.558 267.228 211.699 266.833 215.135C260.216 214.676 235.28 212.942 221.684 211.99C215.535 163.855 227.276 139.055 227.276 139.055C227.276 139.055 232.274 138.058 238.083 137.719C238.848 137.67 239.626 137.643 240.416 137.627C245.53 137.519 253.866 138.286 259.612 138.963C260.82 139.107 262.042 139.284 263.23 139.475C269.275 140.459 274.595 141.932 274.595 141.932Z" fill="#407BFF"/>
<path opacity="0.2" d="M263.194 154.11C263.169 161.676 265.257 168.071 268.783 173.675C268.909 172.386 269.058 171.085 269.218 169.771C269.82 164.844 270.597 159.743 271.628 154.591L263.194 154.11Z" fill="black"/>
<path d="M259.216 117.219C257.574 123.31 255.576 134.541 259.609 138.963C256.213 142.004 251.328 144.452 244.401 143.818C239.096 143.332 239.088 139.599 240.416 137.624C247.417 136.46 247.596 131.338 246.731 126.456L259.216 117.219Z" fill="#FFB573"/>
<path opacity="0.2" d="M254.126 120.988L246.737 126.451C246.946 127.607 247.089 128.774 247.091 129.899C249.748 129.702 253.564 127.067 254.035 124.332C254.271 122.968 254.305 121.644 254.126 120.988Z" fill="black"/>
<path d="M245.798 108.113C243.793 110.94 238.554 105.733 238.745 101.056C246.352 100.049 242.721 94.4931 249.649 95.9171C255.388 97.0971 247.993 105.019 245.798 108.113Z" fill="#263238"/>
<path d="M264.744 109.942C262.199 117.945 261.116 122.759 255.96 125.898C248.205 130.62 239.108 124.372 239.21 115.769C239.302 108.026 243.449 96.2391 252.22 95.0071C260.862 93.7931 267.289 101.939 264.744 109.942Z" fill="#FFB573"/>
<path d="M259.938 117.219C259.938 117.219 259.233 113.637 259.609 111.213C259.965 108.914 261.079 106.678 261.079 106.678C261.079 106.678 256.294 103.848 256.184 100.437C256.184 100.437 247.617 102.965 243.052 99.1141C238.487 95.2641 242.562 90.8081 240.222 89.1031C245.817 88.5561 247.521 91.9631 251.059 91.2211C254.466 90.5061 251.468 87.9901 251.939 85.2531C262.61 94.4451 267.254 90.1301 272.429 95.3891C275.736 98.7501 272.261 105.055 272.261 105.055C272.261 105.055 277.54 114.036 259.938 117.219Z" fill="#263238"/>
<path d="M270.561 104.852C270.561 104.852 275.801 105.928 275.942 100.444C278.644 106.031 275.264 106.868 270.561 104.852Z" fill="#263238"/>
<path d="M246.918 117.573L246.922 117.574C250.281 118.397 252.384 116.471 252.471 116.389C252.558 116.308 252.562 116.171 252.481 116.084C252.4 115.997 252.263 115.992 252.176 116.074C252.156 116.093 250.148 117.92 247.024 117.155C246.908 117.127 246.791 117.197 246.763 117.313C246.736 117.427 246.805 117.542 246.918 117.573Z" fill="#263238"/>
<path d="M266.16 118.781C264.536 120.36 262.335 121.041 260.475 120.985C257.677 120.901 257.109 118.197 258.583 115.992C259.909 114.007 262.963 111.659 265.437 112.816C267.873 113.955 268.016 116.976 266.16 118.781Z" fill="#FFB573"/>
<path d="M193.079 392.5L206.894 396.301C206.894 396.301 224.193 341.766 228.444 311.816C229.571 303.874 231.31 292.708 233.965 280.806C237.317 265.81 241.521 249.595 244.964 236.898C248.596 223.525 251.361 214.059 251.361 214.059L221.679 211.99C221.679 211.99 209.529 278.475 206.694 304.145C203.742 330.836 193.079 392.5 193.079 392.5Z" fill="#407BFF"/>
<path opacity="0.3" d="M193.079 392.5L206.894 396.301C206.894 396.301 224.193 341.766 228.444 311.816C229.571 303.874 231.31 292.708 233.965 280.806C237.317 265.81 241.521 249.595 244.964 236.898C248.596 223.525 251.361 214.059 251.361 214.059L221.679 211.99C221.679 211.99 209.529 278.475 206.694 304.145C203.742 330.836 193.079 392.5 193.079 392.5Z" fill="black"/>
<path opacity="0.2" d="M233.965 280.806C237.317 265.81 241.521 249.595 244.964 236.898L241.884 230.265C234.521 239.013 232.54 266.094 233.965 280.806Z" fill="black"/>
<path d="M237.693 213.107C237.693 213.107 240.896 285.553 244.469 310.089C248.381 336.957 258.316 395.679 258.316 395.679H273.815C273.815 395.679 268.687 333.888 266.422 307.511C263.842 277.466 266.827 215.141 266.827 215.141L237.693 213.107Z" fill="#407BFF"/>
<path opacity="0.3" d="M237.693 213.107C237.693 213.107 240.896 285.553 244.469 310.089C248.381 336.957 258.316 395.679 258.316 395.679H273.815C273.815 395.679 268.687 333.888 266.422 307.511C263.842 277.466 266.827 215.141 266.827 215.141L237.693 213.107Z" fill="black"/>
<path d="M256.461 396.013H274.711V390.561L254.31 390.206L256.461 396.013Z" fill="#407BFF"/>
<path d="M192.124 392.583L207.716 396.88L209.964 391.507L192.188 386.579L192.124 392.583Z" fill="#407BFF"/>
<path d="M251.842 109.111C251.675 109.773 251.19 110.221 250.757 110.112C250.324 110.003 250.109 109.378 250.275 108.716C250.442 108.054 250.927 107.606 251.36 107.715C251.793 107.824 252.008 108.449 251.842 109.111Z" fill="#263238"/>
<path d="M244.36 107.228C244.193 107.89 243.708 108.338 243.275 108.229C242.842 108.12 242.627 107.495 242.793 106.833C242.96 106.171 243.445 105.723 243.878 105.832C244.311 105.941 244.527 106.566 244.36 107.228Z" fill="#263238"/>
<path d="M246.656 108.156C246.656 108.156 244.19 111.596 242.069 113.021C242.965 114.409 245.213 114.266 245.213 114.266L246.656 108.156Z" fill="#ED893E"/>
<path d="M254.774 107.277C254.628 107.267 254.493 107.177 254.432 107.033C253.734 105.387 252.283 105.111 252.268 105.108C252.05 105.069 251.905 104.861 251.944 104.643C251.983 104.426 252.182 104.276 252.409 104.319C252.486 104.333 254.304 104.678 255.17 106.72C255.257 106.924 255.161 107.159 254.957 107.245C254.897 107.271 254.835 107.281 254.774 107.277Z" fill="#263238"/>
<path d="M241.802 103.845C241.721 103.839 241.64 103.809 241.573 103.752C241.403 103.61 241.381 103.357 241.524 103.188C242.95 101.49 244.789 101.689 244.868 101.702C245.088 101.729 245.244 101.929 245.217 102.148C245.19 102.367 244.98 102.523 244.773 102.498C244.71 102.495 243.278 102.346 242.138 103.703C242.051 103.805 241.926 103.854 241.802 103.845Z" fill="#263238"/>
<path d="M259.75 407.622C259.106 407.622 258.504 407.513 258.12 407.191C257.817 406.936 257.678 406.58 257.705 406.132C257.726 405.799 257.903 405.64 258.049 405.565C258.989 405.082 261.715 406.762 262.023 406.954C262.092 406.997 262.128 407.076 262.115 407.156C262.102 407.235 262.042 407.299 261.964 407.319C261.377 407.46 260.533 407.622 259.75 407.622ZM258.493 405.871C258.388 405.871 258.3 405.887 258.233 405.921C258.179 405.949 258.116 406 258.107 406.156C258.087 406.475 258.176 406.713 258.379 406.884C258.842 407.272 259.947 407.326 261.384 407.036C260.428 406.484 259.142 405.871 258.493 405.871Z" fill="#407BFF"/>
<path d="M261.917 407.324C261.884 407.324 261.851 407.316 261.821 407.3C260.945 406.824 259.252 404.97 259.431 404.027C259.463 403.856 259.59 403.56 260.069 403.501C260.378 403.464 260.667 403.549 260.923 403.759C261.906 404.563 262.108 407.004 262.116 407.108C262.122 407.182 262.087 407.252 262.025 407.292C261.993 407.313 261.955 407.324 261.917 407.324ZM260.209 403.894C260.179 403.894 260.149 403.896 260.118 403.9C259.858 403.932 259.835 404.051 259.825 404.102C259.719 404.659 260.798 406.06 261.668 406.721C261.569 406.008 261.299 404.584 260.669 404.069C260.525 403.952 260.374 403.894 260.209 403.894Z" fill="#407BFF"/>
<path d="M192.774 404.014C192.762 404.015 192.75 404.016 192.738 404.015C191.351 403.914 188.924 403.59 188.249 402.552C188.045 402.239 188.011 401.889 188.146 401.513C188.227 401.288 188.386 401.141 188.607 401.087C189.741 400.821 192.571 403.375 192.888 403.668C192.951 403.726 192.97 403.817 192.936 403.895C192.907 403.962 192.844 404.006 192.774 404.014ZM188.758 401.467C188.738 401.469 188.72 401.472 188.702 401.476C188.612 401.498 188.559 401.55 188.523 401.649C188.431 401.905 188.451 402.129 188.584 402.334C188.963 402.916 190.284 403.365 192.168 403.562C191.032 402.578 189.418 401.395 188.758 401.467Z" fill="#407BFF"/>
<path d="M192.617 403.956C192.609 403.947 192.601 403.938 192.594 403.928C191.83 402.767 190.609 400.644 191.021 399.476C191.145 399.124 191.402 398.883 191.783 398.761C192.01 398.688 192.225 398.725 192.402 398.867C193.303 399.605 193 403.404 192.961 403.835C192.953 403.92 192.893 403.99 192.81 404.011C192.74 404.03 192.666 404.007 192.617 403.956ZM192.193 399.219C192.179 399.205 192.165 399.192 192.151 399.18C192.079 399.122 192.005 399.111 191.905 399.144C191.646 399.227 191.48 399.379 191.399 399.61C191.168 400.265 191.616 401.586 192.607 403.201C192.696 401.7 192.652 399.699 192.193 399.219Z" fill="#407BFF"/>
<path d="M275.854 146.802C277.804 149.55 279.46 152.213 281.159 154.98C282.847 157.725 284.408 160.551 285.929 163.417C288.91 169.188 291.651 175.141 293.568 181.784C293.797 182.623 294.022 183.464 294.216 184.334C294.321 184.76 294.413 185.2 294.497 185.646L294.627 186.31L294.693 186.653L294.775 187.189C295.106 190.004 294.658 192.074 294.166 193.964C293.126 197.693 291.615 200.722 289.993 203.652C288.363 206.561 286.581 209.287 284.683 211.908C282.781 214.54 280.818 217.029 278.614 219.48L273.413 215.831C276.12 210.398 278.88 204.831 280.999 199.371C281.534 198.009 282.005 196.647 282.412 195.32C282.827 194 283.158 192.695 283.334 191.525C283.517 190.377 283.498 189.291 283.365 189.006C283.357 188.992 283.351 188.979 283.347 188.965L283.284 188.736L283.154 188.258C283.072 187.941 282.982 187.621 282.876 187.295C282.686 186.651 282.459 185.997 282.231 185.342C280.339 180.074 277.614 174.724 274.687 169.501C273.232 166.874 271.668 164.29 270.114 161.694C268.562 159.126 266.872 156.513 265.305 154.097L275.854 146.802Z" fill="#FFB573"/>
<path d="M274.595 141.932C282.526 143.532 289.483 162.93 289.483 162.93L272.931 176.413C272.931 176.413 267.507 166.553 263.169 157.039C258.444 146.676 264.988 139.994 274.595 141.932Z" fill="white"/>
<path opacity="0.4" d="M274.595 141.932C282.526 143.532 289.483 162.93 289.483 162.93L272.931 176.413C272.931 176.413 267.507 166.553 263.169 157.039C258.444 146.676 264.988 139.994 274.595 141.932Z" fill="#407BFF"/>
<path d="M163.886 169.399L159.889 183.815L160.843 184.08L164.84 169.664L163.886 169.399Z" fill="#605ED2"/>
<path d="M158.417 189.133L156.688 195.367L157.642 195.632L159.371 189.397L158.417 189.133Z" fill="#605ED2"/>
<path d="M241.816 268.705L158.682 245.683C152.39 243.941 148.668 237.368 150.411 231.076L173.433 147.942C175.175 141.65 181.749 137.928 188.04 139.671L271.174 162.693C277.466 164.435 281.188 171.008 279.445 177.3L256.423 260.434C254.68 266.725 248.107 270.447 241.816 268.705Z" fill="#605ED2"/>
<path d="M221.554 185.215C221.117 185.215 220.673 185.157 220.231 185.034C217.599 184.305 216.056 181.58 216.785 178.948L220.774 164.543C221.503 161.91 224.229 160.367 226.86 161.097C229.492 161.826 231.035 164.551 230.306 167.183L226.317 181.588C225.711 183.779 223.722 185.215 221.554 185.215Z" fill="white"/>
<path d="M204.316 245.481C204.054 245.481 203.788 245.446 203.522 245.373C201.943 244.935 201.017 243.301 201.454 241.721L205.443 227.316C205.881 225.737 207.514 224.813 209.095 225.248C210.675 225.686 211.6 227.32 211.163 228.9L207.174 243.305C206.81 244.619 205.617 245.481 204.316 245.481Z" fill="white"/>
<path d="M236.526 193.442C236.009 193.442 235.506 193.171 235.234 192.689C234.83 191.976 235.081 191.071 235.794 190.667L248.8 183.302C249.513 182.898 250.418 183.149 250.822 183.862C251.226 184.575 250.975 185.48 250.262 185.884L237.256 193.249C237.025 193.38 236.774 193.442 236.526 193.442Z" fill="white"/>
<path d="M180.327 227.245C179.12 227.245 177.948 226.614 177.311 225.489C176.369 223.825 176.954 221.713 178.618 220.77L191.624 213.405C193.289 212.463 195.4 213.048 196.343 214.712C197.285 216.376 196.7 218.488 195.036 219.431L182.03 226.796C181.491 227.101 180.905 227.245 180.327 227.245Z" fill="white"/>
<path d="M253.253 216.78C253.078 216.78 252.9 216.757 252.724 216.708L238.319 212.719C237.266 212.427 236.649 211.337 236.94 210.284C237.231 209.231 238.323 208.615 239.375 208.905L253.78 212.894C254.833 213.186 255.45 214.276 255.159 215.329C254.916 216.205 254.12 216.78 253.253 216.78Z" fill="white"/>
<path d="M191.01 201.522C190.66 201.522 190.305 201.476 189.951 201.377L175.546 197.388C173.44 196.805 172.206 194.625 172.789 192.519C173.372 190.413 175.551 189.175 177.658 189.762L192.063 193.751C194.169 194.334 195.403 196.514 194.82 198.62C194.335 200.373 192.744 201.522 191.01 201.522Z" fill="white"/>
<path d="M234.525 241.265C233.663 241.265 232.826 240.814 232.371 240.011L225.006 227.005C224.333 225.817 224.751 224.307 225.939 223.634C227.13 222.962 228.638 223.379 229.31 224.567L236.675 237.573C237.348 238.761 236.93 240.271 235.742 240.944C235.356 241.161 234.937 241.265 234.525 241.265Z" fill="white"/>
<path d="M202.702 187.043C201.151 187.043 199.644 186.23 198.825 184.784L191.46 171.778C190.248 169.639 191 166.923 193.14 165.712C195.28 164.501 197.995 165.253 199.206 167.392L206.571 180.398C207.782 182.537 207.031 185.253 204.891 186.464C204.198 186.856 203.445 187.043 202.702 187.043Z" fill="white"/>
<path d="M276.414 213.89L267.829 213.583L271.984 223.561C271.984 223.561 279.35 222.199 279.065 218.215L276.414 213.89Z" fill="#FFB573"/>
<path d="M262.085 217.702L264.15 225.334L271.985 223.562L267.83 213.583L262.085 217.702Z" fill="#FFB573"/>
</svg>
