<svg width="83" height="107" viewBox="0 0 83 107" fill="none" xmlns="http://www.w3.org/2000/svg">
    <path d="M2.95924 28.4684C1.35488 26.0099 0.552694 24.7807 1.06901 23.8519C1.58533 22.9232 3.0528 22.9557 5.98776 23.0208L28.9314 23.5292C32.4183 23.6065 35.6425 25.3989 37.5486 28.3198L53.7421 53.1345L24.1184 52.478C20.6315 52.4007 17.4072 50.6082 15.5011 47.6874L2.95924 28.4684Z" fill="#B1A8FF" fill-opacity="0.8"/>
    <path d="M53.7433 53.1344L83.3662 53.7909C86.8531 53.8681 90.0773 55.6606 91.9834 58.5814L104.525 77.8004C106.13 80.2589 106.932 81.4882 106.416 82.4169C105.899 83.3457 104.432 83.3131 101.497 83.2481L78.5531 82.7397C75.0663 82.6624 71.842 80.8699 69.9359 77.9491L53.7429 53.1351L53.0864 82.7585C53.0091 86.2453 51.2167 89.4696 48.2958 91.3757L29.0769 103.918C26.6184 105.522 25.3891 106.324 24.4604 105.808C23.5316 105.291 23.5641 103.824 23.6292 100.889L24.1376 77.9454C24.2149 74.4586 26.0074 71.2343 28.9282 69.3282L53.7426 53.1348L54.3991 23.511C54.4764 20.0241 56.2688 16.7998 59.1897 14.8937L78.4086 2.35186C80.8671 0.747498 82.0964 -0.054684 83.0251 0.46163C83.9539 0.977946 83.9214 2.44543 83.8563 5.38038L83.3479 28.324C83.2706 31.8109 81.4781 35.0352 78.5573 36.9412L53.7433 53.1344Z" fill="#B1A8FF" fill-opacity="0.8"/>
</svg>
