<svg width="101" height="101" viewBox="0 0 101 101" fill="none" xmlns="http://www.w3.org/2000/svg">
<g opacity="0.5">
<path d="M50.5 0.866753L60.1305 16.6238L60.3442 16.9736L60.7132 16.7949L77.3338 8.74586L76.9165 27.2082L76.9072 27.618L77.3142 27.6671L95.648 29.8816L85.3155 45.1875L85.0862 45.5273L85.4019 45.7886L99.628 57.5635L82.6608 64.8535L82.2842 65.0154L82.4085 65.406L88.0103 83.0029L69.7953 79.9624L69.391 79.8949L69.2844 80.2907L64.4833 98.1227L50.8036 85.7172L50.5 85.4418L50.1964 85.7172L36.5167 98.1227L31.7156 80.2907L31.609 79.8949L31.2047 79.9624L12.9897 83.0029L18.5915 65.406L18.7158 65.0154L18.3392 64.8535L1.37195 57.5635L15.5981 45.7886L15.9139 45.5273L15.6845 45.1875L5.35201 29.8816L23.6858 27.6671L24.0927 27.618L24.0835 27.2082L23.6662 8.74586L40.2868 16.7949L40.6558 16.9736L40.8695 16.6238L50.5 0.866753Z" fill="#3629B7" fill-opacity="0.2" stroke="#111111" stroke-width="0.904018"/>
<path d="M50.4994 18.61L56.6107 28.6091L56.8245 28.9589L57.1934 28.7802L67.7405 23.6725L67.4757 35.3882L67.4664 35.7981L67.8734 35.8472L79.5076 37.2525L72.9508 46.9653L72.7215 47.305L73.0373 47.5664L82.0648 55.0385L71.2978 59.6645L70.9212 59.8263L71.0455 60.2169L74.6003 71.3836L63.0414 69.4541L62.6371 69.3867L62.5306 69.7825L59.4839 81.0983L50.8031 73.226L50.4994 72.9506L50.1958 73.226L41.515 81.0983L38.4683 69.7825L38.3617 69.3867L37.9574 69.4541L26.3986 71.3836L29.9533 60.2169L30.0777 59.8263L29.7011 59.6645L18.934 55.0385L27.9616 47.5664L28.2774 47.305L28.048 46.9653L21.4913 37.2525L33.1255 35.8472L33.5324 35.7981L33.5232 35.3882L33.2584 23.6725L43.8055 28.7802L44.1744 28.9589L44.3881 28.6091L50.4994 18.61Z" fill="#3629B7" fill-opacity="0.4" stroke="#111111" stroke-width="0.904018"/>
<path d="M50.5001 33.851L53.5885 38.9041L53.8023 39.2539L54.1712 39.0752L59.5013 36.494L59.3675 42.4147L59.3582 42.8245L59.7652 42.8736L65.6446 43.5838L62.3311 48.4922L62.1017 48.832L62.4175 49.0933L66.9797 52.8694L61.5385 55.2072L61.1618 55.3691L61.2862 55.7597L63.0826 61.4028L57.2413 60.4278L56.8369 60.3603L56.7304 60.7561L55.1907 66.4746L50.8038 62.4963L50.5001 62.2209L50.1965 62.4963L45.8096 66.4746L44.2699 60.7561L44.1633 60.3603L43.759 60.4278L37.9177 61.4028L39.7141 55.7597L39.8384 55.3691L39.4618 55.2072L34.0206 52.8694L38.5828 49.0933L38.8985 48.832L38.6692 48.4922L35.3557 43.5838L41.2351 42.8736L41.6421 42.8245L41.6328 42.4147L41.499 36.494L46.8291 39.0752L47.198 39.2539L47.4117 38.9041L50.5001 33.851Z" fill="url(#paint0_linear_623_628)" stroke="#111111" stroke-width="0.904018"/>
</g>
<defs>
<linearGradient id="paint0_linear_623_628" x1="50.5001" y1="32.9843" x2="50.5001" y2="68.0158" gradientUnits="userSpaceOnUse">
<stop stop-color="#6E6CCE"/>
<stop offset="1" stop-color="#514ED7"/>
</linearGradient>
</defs>
</svg>
