<svg width="160" height="124" viewBox="0 0 160 124" fill="none" xmlns="http://www.w3.org/2000/svg">
<circle cx="82.216" cy="67.2675" r="56.0563" fill="white"/>
<circle cx="57.5511" cy="3.73709" r="3.73709" fill="url(#paint0_linear_79_453)"/>
<circle cx="149.857" cy="25.786" r="9.34272" fill="#3629B7"/>
<circle cx="136.777" cy="101.649" r="3.73709" fill="url(#paint1_linear_79_453)"/>
<circle cx="38.8658" cy="101.649" r="7.47418" fill="url(#paint2_linear_79_453)"/>
<circle cx="3.73709" cy="52.3192" r="3.73709" fill="#0C092A"/>
<g filter="url(#filter0_d_79_453)">
<path d="M66.6278 100.087C64.9885 100.068 63.6735 98.552 63.6905 96.6998L64.247 36.2399C64.264 34.3878 65.6066 32.9016 67.2459 32.9203L97.4854 33.2648C99.1247 33.2834 100.44 34.7999 100.423 36.652L99.8662 97.112C99.8492 98.9641 98.5065 100.45 96.8673 100.432L66.6278 100.087Z" fill="#5655B9"/>
<path d="M97.2173 34.5737C98.4371 34.5737 99.4228 35.6985 99.4228 37.0904V97.6749C99.4228 99.0669 98.4371 100.192 97.2173 100.192H67.2146C65.9948 100.192 65.0091 99.0669 65.0091 97.6749V37.0904C65.0091 35.6985 65.9948 34.5737 67.2146 34.5737H97.2173ZM97.2173 32.8865H67.2146C65.1816 32.8865 63.5305 34.7705 63.5305 37.0904V97.6749C63.5305 99.9948 65.1816 101.879 67.2146 101.879H97.2173C99.2503 101.879 100.901 99.9948 100.901 97.6749V37.0904C100.901 34.7705 99.2503 32.8865 97.2173 32.8865Z" fill="#E0DEF7"/>
</g>
<path d="M71.0046 35.1047V34.0364H92.8522V35.305C92.5456 35.9995 91.383 36.2621 90.84 36.3066C85.4419 36.3289 74.3009 36.36 72.9211 36.3066C71.5412 36.2532 71.0685 35.4831 71.0046 35.1047Z" fill="#E0DEF7"/>
<path fill-rule="evenodd" clip-rule="evenodd" d="M78.0131 56.0079C77.0564 56.1496 76.4245 56.429 75.6919 57.0343C75.057 57.5589 74.8373 57.8463 74.624 58.431L74.5285 58.6926L74.5154 60.0774L74.5023 61.4622L74.3139 61.6256C74.1995 61.7248 74.0826 61.8732 74.0165 62.003C73.918 62.1962 73.9075 62.2503 73.9075 62.5621C73.9075 62.8719 73.9184 62.9288 74.0141 63.1178C74.1726 63.4305 74.4965 63.7003 74.801 63.7733C74.8846 63.7934 74.9119 63.846 75.0438 64.2417C75.4111 65.3435 75.6079 65.6594 76.2898 66.2405C76.5578 66.4689 76.5631 66.4766 76.4984 66.544C76.423 66.6226 75.9418 67.252 75.726 67.5544C75.6472 67.6649 75.5572 67.7652 75.5262 67.7773C75.3963 67.8276 74.8035 68.0441 74.6523 68.0964C73.6909 68.4288 73.3224 68.5995 73.0064 68.8587C72.7417 69.0759 72.6117 69.2209 72.4299 69.5016C72.2317 69.8077 72.1904 69.9031 72.0915 70.2836C72.0013 70.6307 72 70.6566 72 72.0436V73.4513L72.0897 73.5481C72.1391 73.6014 72.2287 73.6548 72.2888 73.6668C72.3804 73.6851 72.4189 73.6679 72.5261 73.5608L72.654 73.4328V72.0734C72.654 70.5954 72.6714 70.4083 72.8405 70.0734C73.1202 69.5193 73.4756 69.2029 74.054 68.9932C74.1732 68.95 74.3771 68.8762 74.507 68.8293C74.6368 68.7824 74.9066 68.6846 75.1064 68.612C75.3063 68.5393 75.5186 68.4646 75.5782 68.4458C75.685 68.4124 75.7088 68.4339 77.0742 69.7976L78.4617 71.1833L78.6003 71.1608C78.723 71.1409 78.8595 71.0177 79.7839 70.0916C80.7821 69.0917 80.8289 69.0388 80.8289 68.9083C80.8289 68.722 80.7003 68.5933 80.5142 68.5933C80.3848 68.5933 80.3332 68.638 79.4768 69.492L78.5755 70.3906L77.395 69.2106C76.7458 68.5616 76.2146 68.0132 76.2146 67.9919C76.2146 67.9706 76.376 67.7405 76.5732 67.4804C76.7704 67.2204 76.9514 66.9709 76.9754 66.9261L77.019 66.8446L77.1442 66.9401C77.213 66.9926 77.3631 67.0795 77.4777 67.1332L77.6861 67.2308H78.5944H79.5027L79.757 67.0936C80.0156 66.9542 80.9838 66.1661 81.2625 65.8684C81.5905 65.5178 81.7797 65.1765 81.9874 64.5604C82.2575 63.759 82.2354 63.803 82.387 63.7622C82.5462 63.7193 82.8053 63.5544 82.9414 63.4093C83.2373 63.094 83.3446 62.5592 83.1927 62.1568C83.0605 61.8064 82.7628 61.501 82.4575 61.4024L82.3239 61.3593L82.3107 60.0078L82.2975 58.6563L82.1822 58.3579C81.9805 57.8356 81.7788 57.5735 81.2161 57.1021C80.7551 56.7158 80.6679 56.6523 80.3914 56.5007C79.853 56.2053 79.1714 56.0244 78.5217 56.0042C78.3019 55.9974 78.073 55.999 78.0131 56.0079ZM77.8029 56.6949C77.1807 56.7994 76.6306 57.0723 76.0382 57.5701C75.5051 58.0181 75.3159 58.2936 75.1966 58.7957C75.1304 59.0746 75.1244 59.207 75.1332 60.206L75.1428 61.3086L75.368 61.3194C75.5678 61.3289 75.6038 61.3426 75.686 61.4402C75.7932 61.5677 75.7991 61.6178 75.7237 61.7635C75.6493 61.9074 75.5665 61.9444 75.3178 61.9446C74.8931 61.945 74.6338 62.1002 74.5412 62.4095C74.4353 62.7629 74.7391 63.1797 75.1026 63.1797C75.3338 63.1797 75.3924 63.2725 75.6651 64.0699C76.0101 65.079 76.1252 65.2597 76.7593 65.7883C76.9893 65.98 77.2101 66.1657 77.2501 66.2009C77.7126 66.6091 77.8203 66.6415 78.6594 66.6251C79.2055 66.6144 79.3054 66.6031 79.4482 66.5357C79.609 66.4599 79.9688 66.1764 80.4239 65.7671C80.5508 65.6529 80.6689 65.5542 80.6863 65.5478C80.7528 65.5229 81.0787 65.0775 81.1827 64.8692C81.2426 64.7493 81.3859 64.3651 81.5012 64.0154C81.731 63.3185 81.8187 63.1797 82.0296 63.1797C82.2913 63.1797 82.5364 62.9777 82.611 62.7004C82.6698 62.4821 82.5642 62.2182 82.3602 62.0737C82.2262 61.9788 82.1723 61.965 81.8818 61.9511C81.5725 61.9364 81.5495 61.9296 81.4641 61.8282C81.3064 61.6407 81.3743 61.4199 81.6191 61.3242L81.7008 61.2923V60.1708C81.7008 58.9351 81.6705 58.702 81.4577 58.2993C81.2848 57.9723 80.5767 57.3341 80.084 57.0612C79.4404 56.7046 78.5731 56.5654 77.8029 56.6949ZM86.4241 57.4259C86.1155 57.4549 85.6427 57.5525 85.3601 57.6454C84.9875 57.7679 84.9708 57.8004 84.9708 58.3995C84.9708 58.8503 84.9699 58.855 84.8832 58.8767C84.8176 58.8932 84.7062 58.846 84.4381 58.6878C83.9685 58.4108 83.8963 58.4093 83.5957 58.6696C83.2828 58.9407 82.9358 59.3801 82.9374 59.5032C82.9398 59.7002 83.1769 59.8681 83.3563 59.7999C83.4076 59.7804 83.4932 59.7113 83.5466 59.6464C83.6 59.5815 83.7194 59.4477 83.8121 59.3491L83.9804 59.17L84.3863 59.3946C84.6096 59.5181 84.8087 59.6191 84.8288 59.6191C84.885 59.6191 85.4049 59.3266 85.5116 59.2348C85.6027 59.1566 85.6074 59.1341 85.6248 58.6883L85.6429 58.2233L85.8973 58.1521C86.2662 58.0489 87.4491 58.0493 87.8229 58.1529L88.0772 58.2233L88.0965 58.676C88.1071 58.925 88.1277 59.1532 88.1425 59.1831C88.1721 59.2435 88.3343 59.3457 88.7582 59.5712C88.8811 59.6365 88.9478 59.617 89.2762 59.4192C89.6962 59.1662 89.6843 59.1702 89.7836 59.2483C89.9936 59.4135 90.3789 59.9214 90.5781 60.2957C90.7199 60.5621 90.8931 61.025 90.9145 61.1946L90.9335 61.3449L90.6374 61.5084C90.4745 61.5984 90.2937 61.7102 90.2357 61.7569C90.1303 61.8417 90.13 61.8428 90.13 62.2534V62.665L90.2663 62.7701C90.3412 62.8278 90.5273 62.9455 90.6797 63.0314L90.957 63.1877L90.9103 63.3648C90.744 63.9952 90.3746 64.6523 89.9125 65.1396L89.7251 65.3372L89.5006 65.2155C89.3772 65.1485 89.2297 65.0614 89.173 65.022C89.0447 64.933 88.7938 64.9047 88.6909 64.9676C88.6487 64.9934 88.5342 65.0577 88.4365 65.1105C88.129 65.2767 88.1161 65.3039 88.0954 65.8266L88.0772 66.2862L87.7139 66.3691C87.1942 66.4876 86.5661 66.4898 86.03 66.3749L85.6317 66.2896L85.6191 65.8284C85.6053 65.3175 85.5875 65.2739 85.346 65.1593C85.2762 65.1262 85.161 65.0597 85.0899 65.0114C84.9231 64.8982 84.7299 64.8968 84.5667 65.0075C84.4988 65.0536 84.3943 65.1166 84.3346 65.1474C84.2748 65.1782 84.1715 65.2345 84.1049 65.2725L83.9838 65.3415L83.7502 65.0884C83.6216 64.9491 83.4421 64.7243 83.3512 64.5889C83.2604 64.4534 83.1553 64.3261 83.118 64.3061C82.8908 64.1846 82.5968 64.399 82.6581 64.6414C82.749 65.0008 83.7023 66.05 83.938 66.05C83.989 66.05 84.2082 65.9507 84.4251 65.8292C84.9615 65.5288 84.9708 65.5338 84.9708 66.1258C84.9708 66.6512 85.006 66.7448 85.2334 66.8243C86.1734 67.1528 87.2621 67.1878 88.1713 66.9188C88.7185 66.7569 88.7282 66.7441 88.7434 66.1674C88.7552 65.723 88.7809 65.614 88.8739 65.614C88.8975 65.614 89.0827 65.7121 89.2855 65.832C89.5183 65.9697 89.6949 66.05 89.7646 66.05C89.8831 66.05 90.1131 65.8651 90.4233 65.5203C90.5118 65.422 90.5925 65.3334 90.6026 65.3234C90.7846 65.1433 91.1412 64.5443 91.3435 64.0784C91.4489 63.8357 91.6206 63.2134 91.6267 63.052C91.6335 62.8699 91.5714 62.8064 91.1503 62.5654C90.622 62.263 90.622 62.2543 91.1529 61.9462C91.687 61.6362 91.6931 61.6227 91.5484 61.0656C91.3119 60.1546 90.8807 59.4195 90.1953 58.7585C89.9209 58.494 89.7992 58.4297 89.6572 58.4748C89.5828 58.4984 89.3734 58.617 89.0636 58.8109C88.9722 58.868 88.8943 58.8911 88.8393 58.8773C88.7571 58.8567 88.7547 58.8439 88.7431 58.3666C88.7291 57.7888 88.7241 57.78 88.3308 57.6426C87.8605 57.4783 86.9573 57.3756 86.4241 57.4259ZM77.5095 59.6181C76.9527 59.8969 76.475 60.1542 76.4479 60.19C76.3899 60.2664 76.3812 60.4678 76.4318 60.5624C76.4514 60.5989 76.517 60.6461 76.5776 60.6672C76.7257 60.7188 76.7964 60.6913 77.7678 60.2043L78.5762 59.7989L79.3846 60.2043C80.3767 60.7017 80.4153 60.7164 80.5648 60.6535C80.7664 60.5688 80.8247 60.3133 80.6744 60.1732C80.5803 60.0855 78.652 59.1103 78.5737 59.1108C78.5451 59.1111 78.0662 59.3393 77.5095 59.6181ZM86.4022 60.5961C85.7914 60.771 85.3456 61.2293 85.185 61.8476C85.1 62.1747 85.1 62.3318 85.185 62.6589C85.3149 63.1588 85.6155 63.5427 86.0601 63.7764C86.9265 64.2316 87.9868 63.8677 88.4167 62.9674C88.5468 62.6951 88.5496 62.6801 88.5496 62.2533C88.5496 61.8266 88.5467 61.8114 88.418 61.5448C88.0421 60.7658 87.1976 60.3684 86.4022 60.5961ZM86.5179 61.2173C86.201 61.3184 85.8849 61.6611 85.8034 61.992C85.5855 62.8771 86.5155 63.6366 87.3142 63.2258C87.7291 63.0124 87.9273 62.6979 87.9268 62.2533C87.9264 61.8192 87.696 61.4564 87.3013 61.2683C87.1496 61.196 86.6804 61.1654 86.5179 61.2173ZM81.7375 67.7887C81.4032 67.9681 81.2963 68.3123 81.4483 68.7205C81.5214 68.9166 81.6002 69.0098 82.2328 69.6489L82.9362 70.3593V71.7538C82.9362 73.1003 82.9388 73.1538 83.0132 73.3074C83.0607 73.4055 83.1477 73.5039 83.2403 73.5641L83.3903 73.6617H86.6966H90.0029L90.1529 73.5641C90.2455 73.5039 90.3325 73.4055 90.38 73.3074C90.4544 73.1538 90.457 73.1003 90.457 71.7531V70.3578L91.1455 69.6661C91.9272 68.8806 91.9979 68.7734 91.9999 68.3696C92.001 68.1536 91.9894 68.1132 91.8913 67.9919C91.6661 67.7137 91.7201 67.7213 89.9671 67.7215C88.4114 67.7217 88.4036 67.7221 88.2707 67.8033C88.0762 67.9221 87.9834 68.0606 87.954 68.2762C87.9397 68.3807 87.9104 68.4974 87.8889 68.5355C87.8674 68.5737 87.5912 68.8646 87.2752 69.1819L86.7006 69.7588L86.3044 69.3668C85.7763 68.8444 85.5411 68.5988 85.4996 68.5262C85.4806 68.4932 85.4535 68.3807 85.4392 68.2762C85.4098 68.0606 85.317 67.9221 85.1224 67.8033C84.9896 67.7221 84.9818 67.7217 83.4261 67.7215C81.973 67.7213 81.8544 67.7261 81.7375 67.7887ZM82.0461 68.3752C81.9915 68.4634 82.1099 68.6128 82.7302 69.2382L83.3877 69.9013H84.6334C85.3186 69.9013 85.8791 69.8888 85.8791 69.8735C85.8791 69.8581 85.6903 69.6579 85.4595 69.4284C84.9787 68.9503 84.897 68.8352 84.8415 68.5575L84.8015 68.3572L83.4353 68.3476C82.5348 68.3413 82.0612 68.3508 82.0461 68.3752ZM88.5876 68.3844C88.5798 68.4094 88.5625 68.4947 88.5492 68.5741C88.511 68.8028 88.3818 68.9819 87.9332 69.4284C87.7027 69.6579 87.5141 69.8581 87.5141 69.8735C87.5141 69.8888 88.0746 69.9013 88.7597 69.9013H90.0054L90.663 69.2382C91.2824 68.6136 91.4016 68.4634 91.3474 68.3756C91.3114 68.3175 88.6058 68.3261 88.5876 68.3844ZM83.5901 71.7906V73.0259H84.989H86.3878V71.7906V70.5553H84.989H83.5901V71.7906ZM87.0054 71.7906V73.0259H88.4042H89.803V71.7906V70.5553H88.4042H87.0054V71.7906Z" fill="white"/>
<defs>
<filter id="filter0_d_79_453" x="52.3193" y="24.6649" width="59.7934" height="91.415" filterUnits="userSpaceOnUse" color-interpolation-filters="sRGB">
<feFlood flood-opacity="0" result="BackgroundImageFix"/>
<feColorMatrix in="SourceAlpha" type="matrix" values="0 0 0 0 0 0 0 0 0 0 0 0 0 0 0 0 0 0 127 0" result="hardAlpha"/>
<feOffset dy="2.98967"/>
<feGaussianBlur stdDeviation="5.60563"/>
<feColorMatrix type="matrix" values="0 0 0 0 0 0 0 0 0 0 0 0 0 0 0 0 0 0 0.1 0"/>
<feBlend mode="normal" in2="BackgroundImageFix" result="effect1_dropShadow_79_453"/>
<feBlend mode="normal" in="SourceGraphic" in2="effect1_dropShadow_79_453" result="shape"/>
</filter>
<linearGradient id="paint0_linear_79_453" x1="57.5511" y1="0" x2="57.5511" y2="7.47418" gradientUnits="userSpaceOnUse">
<stop stop-color="#6E6CCE"/>
<stop offset="1" stop-color="#514ED7"/>
</linearGradient>
<linearGradient id="paint1_linear_79_453" x1="133.04" y1="97.9118" x2="141.366" y2="99.0269" gradientUnits="userSpaceOnUse">
<stop stop-color="#3B65FC"/>
<stop offset="1" stop-color="#082AA8"/>
<stop offset="1" stop-color="#0A2CAA"/>
</linearGradient>
<linearGradient id="paint2_linear_79_453" x1="31.3916" y1="94.1747" x2="48.0433" y2="96.4049" gradientUnits="userSpaceOnUse">
<stop stop-color="#73D2F2"/>
<stop offset="1" stop-color="#02A8E0"/>
</linearGradient>
</defs>
</svg>
