<svg width="437" height="374" viewBox="0 0 437 374" fill="none" xmlns="http://www.w3.org/2000/svg">
<path d="M5.70997 92.5901C4.83695 92.7265 3.99941 93.0338 3.24528 93.4942C2.49115 93.9547 1.83524 94.5594 1.31508 95.2737C0.794929 95.988 0.420748 96.7978 0.213959 97.6569C0.00716996 98.516 -0.0281659 99.4074 0.10997 100.28L27.88 276.75C28.1603 278.513 29.1285 280.092 30.572 281.142C32.0156 282.192 33.8166 282.627 35.58 282.35L164.09 262.12C164.964 261.984 165.803 261.676 166.558 261.215C167.314 260.754 167.971 260.149 168.492 259.434C169.013 258.718 169.388 257.907 169.595 257.047C169.802 256.187 169.838 255.294 169.7 254.42L146.5 107L103.82 77.1201L5.70997 92.5901Z" fill="#F5F5F5"/>
<path d="M113.79 112.18L146.5 107L103.82 77.1201L108.75 108.49C108.836 109.064 109.036 109.616 109.336 110.112C109.637 110.609 110.033 111.042 110.501 111.385C110.97 111.728 111.502 111.975 112.066 112.111C112.63 112.248 113.216 112.271 113.79 112.18Z" fill="#D6D6D6"/>
<path d="M103.82 77.1499L108.75 108.52C108.932 109.666 109.56 110.694 110.496 111.379C111.433 112.065 112.602 112.353 113.75 112.18L146.5 107" stroke="#262626" stroke-width="0.27" stroke-linecap="round" stroke-linejoin="round"/>
<path d="M76.6698 196.78C76.0068 193.154 75.7785 189.461 75.9898 185.78C76.2618 182.872 77.2252 180.07 78.7998 177.61C79.7146 176.081 80.8351 174.684 82.1298 173.46C83.3829 172.28 84.5555 171.017 85.6398 169.68C86.6686 168.406 87.5104 166.992 88.1398 165.48C88.7859 163.696 88.9277 161.769 88.5498 159.91C87.9565 156.183 86.5165 153.737 84.2298 152.57C81.8583 151.398 79.1729 151.02 76.5698 151.49C72.5298 152.157 69.9232 153.72 68.7498 156.18C67.4972 159.191 67.006 162.464 67.3198 165.71L52.5798 168C51.9849 164.531 52.063 160.98 52.8098 157.54C53.5015 154.42 54.8667 151.488 56.8098 148.95C58.8042 146.4 61.3072 144.292 64.1598 142.76C67.3344 141.054 70.7831 139.917 74.3498 139.4C82.5698 138.1 89.3298 138.767 94.6298 141.4C99.9298 144.033 103.166 149.107 104.34 156.62C104.714 158.772 104.805 160.964 104.61 163.14C104.419 164.981 103.929 166.778 103.16 168.46C102.362 170.163 101.355 171.759 100.16 173.21C98.9098 174.73 97.4898 176.32 95.8698 177.98C94.5992 179.302 93.4324 180.719 92.3798 182.22C91.5715 183.398 90.9664 184.702 90.5898 186.08C90.2454 187.384 90.1004 188.733 90.1598 190.08C90.2368 191.604 90.397 193.123 90.6398 194.63L76.6698 196.78ZM79.6698 218.92L77.3198 203.92L92.7498 201.5L95.0998 216.5L79.6698 218.92Z" fill="#D6D6D6"/>
<path d="M152.16 205.64C173.138 226.241 191.658 249.205 207.35 274.07C218.698 292.073 228.515 310.996 236.7 330.64L187.78 352.64L145.86 210L152.16 205.64Z" fill="#FEC02D"/>
<path d="M121.27 194.1L152.63 203.9C159.405 214.599 164.927 226.041 169.09 238C182.66 277.1 178.31 312.88 177.09 323C177.09 323 177.09 323.18 173.09 352.66H29.7201C29.0822 338.358 29.7987 324.027 31.8601 309.86C34.8601 289.3 37.6301 270.21 50.0601 249.25C55.1201 240.73 72.7201 213.46 106.46 199.18C111.27 197.137 116.219 195.44 121.27 194.1Z" fill="#FEC02D"/>
<path d="M47.4997 253.8C68.8972 260.669 90.9535 265.284 113.31 267.57C134.307 269.724 155.465 269.814 176.48 267.84C176.98 271.94 177.476 276.04 177.97 280.14C156.22 281.921 134.359 281.861 112.62 279.96C88.5567 277.851 64.7432 273.499 41.4897 266.96C43.4897 262.58 45.4931 258.193 47.4997 253.8Z" fill="#FF7129"/>
<path opacity="0.5" d="M182.06 242.83L189.16 244.42L163.29 352.65H148.65L182.06 242.83Z" fill="#E8A600"/>
<path d="M124.04 331.92L130.12 330.02L144.06 337.23L147.58 328.7L129.88 321.9L122.66 325.29L124.04 331.92Z" fill="#E8A600"/>
<path opacity="0.5" d="M29.4897 336.44C46.0687 340.591 62.9632 343.36 79.9997 344.72C95.1291 345.926 110.327 346.019 125.47 345V328.7L30.8097 318.13L29.4897 336.44Z" fill="#E8A600"/>
<path d="M133.93 216.64C129.672 215.909 125.879 213.517 123.385 209.989C120.89 206.462 119.9 202.088 120.63 197.83L126.55 163.28L158.66 168.78L152.74 203.33C152.38 205.439 151.607 207.457 150.466 209.267C149.326 211.078 147.839 212.646 146.093 213.882C144.346 215.118 142.373 215.998 140.286 216.471C138.199 216.944 136.039 217.002 133.93 216.64Z" fill="#F7A99C"/>
<path d="M154.39 193.66L135.39 179.26C135.011 185.713 137.164 192.059 141.39 196.95C144.398 200.296 148.291 202.723 152.62 203.95L154.39 193.66Z" fill="#FF7769"/>
<path d="M127.65 152.45C127.65 151.91 126.4 150.88 126.02 150.53C125.386 149.948 124.68 149.451 123.92 149.05C122.432 148.252 120.757 147.869 119.07 147.94C117.381 148.021 115.751 148.589 114.378 149.575C113.004 150.562 111.946 151.925 111.33 153.5C110.753 155.397 110.753 157.423 111.33 159.32C112.125 162.189 113.779 164.747 116.07 166.65C117.965 168.217 120.196 169.325 122.59 169.89C124.38 170.232 126.19 170.455 128.01 170.56C127.876 164.52 127.756 158.483 127.65 152.45Z" fill="#F7A99C"/>
<path d="M123.19 152C122.99 162.419 126.689 172.536 133.56 180.37C135.51 182.54 148.45 196.92 163.17 193.59C182.1 189.31 185.26 160.01 185.41 158.42C185.92 153.04 187.41 137.21 175.94 126.61C166.58 117.95 154.7 118.45 153.01 118.55C144.714 119.139 136.958 122.877 131.33 129C123.58 137.63 123.31 147.68 123.19 152Z" fill="#F7A99C"/>
<path d="M175.4 156.7C175.28 159.01 176.74 160.96 178.65 161.05C180.56 161.14 182.19 159.34 182.31 157.05C182.43 154.76 180.96 152.79 179.05 152.7C177.14 152.61 175.51 154.38 175.4 156.7Z" fill="#262626"/>
<path d="M168.65 159L171.03 163.77C171.133 163.976 171.193 164.202 171.204 164.433C171.215 164.663 171.178 164.894 171.095 165.109C171.013 165.325 170.886 165.521 170.723 165.684C170.56 165.848 170.365 165.976 170.15 166.06L167 167.31" stroke="#262626" stroke-width="1.7" stroke-linecap="round" stroke-linejoin="round"/>
<path d="M145.87 165.13C145.824 166.059 146.054 166.98 146.531 167.778C147.009 168.576 147.713 169.215 148.553 169.613C149.394 170.01 150.333 170.15 151.253 170.014C152.173 169.877 153.032 169.471 153.721 168.847C154.41 168.222 154.898 167.407 155.124 166.505C155.349 165.603 155.302 164.654 154.989 163.779C154.675 162.903 154.108 162.141 153.361 161.587C152.614 161.034 151.719 160.715 150.79 160.67C149.547 160.61 148.33 161.046 147.408 161.882C146.485 162.719 145.932 163.887 145.87 165.13Z" fill="#FF7769"/>
<path d="M123.46 163.67C123.694 162.472 123.675 161.238 123.403 160.047C123.131 158.857 122.612 157.737 121.88 156.76C120.622 155.198 118.85 154.135 116.88 153.76" stroke="#262626" stroke-width="1.7" stroke-linecap="round" stroke-linejoin="round"/>
<path d="M122 157.48C121.414 157.295 120.794 157.248 120.187 157.341C119.58 157.435 119.003 157.667 118.5 158.02C118.095 158.343 117.759 158.744 117.511 159.199C117.264 159.654 117.11 160.154 117.06 160.67" stroke="#262626" stroke-width="1.7" stroke-linecap="round" stroke-linejoin="round"/>
<path d="M182 163.92C182.864 163.965 183.698 164.249 184.41 164.74C183.794 167.635 182.992 170.488 182.01 173.28C181.853 173.29 181.696 173.29 181.54 173.28C180.295 173.219 179.125 172.666 178.287 171.742C177.45 170.819 177.014 169.6 177.075 168.355C177.136 167.11 177.689 165.94 178.613 165.102C179.536 164.265 180.755 163.829 182 163.89V163.92Z" fill="#FF7769"/>
<path d="M156.96 151.73L160.87 156.17L155.26 158.14" stroke="#262626" stroke-width="1.7" stroke-linecap="round" stroke-linejoin="round"/>
<path d="M155.26 176.78L169.35 178.38C169.35 178.09 168.7 173.93 165.35 172.38C162 170.83 157.46 172.58 155.26 176.78Z" fill="white"/>
<path d="M123.34 148.77C124.905 149.377 126.275 150.4 127.3 151.729C128.326 153.058 128.969 154.642 129.16 156.31C143.77 154.92 152.21 150.82 157.29 147.12C157.29 147.12 157.66 146.85 168.37 138.71C172.983 143.718 179.01 147.205 185.65 148.71C193.33 146.93 198.65 141.19 198.86 135.2C199.05 128.89 193.44 124.11 189.46 122.13C182.97 118.89 179.98 122.67 170.46 120.13C162.78 118.13 163.07 115.23 155.87 113.49C153.7 112.96 144.66 110.77 135.58 115.55C127.92 119.55 121.85 127.72 121.25 137.11C121.018 141.107 121.735 145.102 123.34 148.77Z" fill="#262626"/>
<path d="M121.27 194.1C99.2008 199.069 78.7488 209.545 61.8201 224.55C61.8201 224.55 39.1901 244.79 23.7601 282.33C21.7684 286.908 20.2311 291.671 19.1701 296.55C17.9961 301.675 17.2965 306.897 17.0801 312.15C17.0128 313.829 17.4827 315.486 18.4214 316.88C19.3602 318.273 20.7188 319.331 22.3001 319.9C25.1401 320.9 28.4201 322.09 32.0501 323.3C38.7801 325.54 53.7001 331.65 70.6001 334C105.85 338.89 125.41 340.11 125.41 340.11L128 279.27L81.4201 273.37L121.27 194.1Z" fill="#FEC02D"/>
<path d="M158.91 225.39C164.77 245.85 168.39 262.99 170.69 275.48" stroke="#262626" stroke-linecap="round" stroke-linejoin="round"/>
<path opacity="0.5" d="M97.9701 221.72L71.8301 280.61H87.6501L97.9701 221.72Z" fill="#E8A600"/>
<path d="M185.769 243.886L171.646 239.884L140.829 348.643L154.953 352.645L185.769 243.886Z" fill="#605ED2"/>
<path d="M127 293.6C127 293.6 153.49 290.96 156.31 291.83C159.13 292.7 168.8 298.17 170.17 299.73C170.761 300.31 171.216 301.013 171.503 301.789C171.79 302.565 171.902 303.395 171.83 304.22C171.63 305.69 169.68 307.35 169.68 307.35C171.21 309.73 171.26 311.35 170.94 312.46C170.35 314.46 168.04 316.46 168.02 316.52C168.251 317.352 168.392 318.207 168.44 319.07C168.601 320.751 168.304 322.444 167.58 323.97C167.004 324.912 166.243 325.726 165.342 326.364C164.441 327.002 163.42 327.45 162.34 327.68C162.67 328.322 162.811 329.045 162.746 329.764C162.68 330.483 162.411 331.168 161.97 331.74C160.41 333.59 155.73 335.94 150.16 335.16C144.59 334.38 130.16 327.25 130.16 327.25L125.52 328.7L127 293.6Z" fill="#F7A99C"/>
<path opacity="0.5" d="M199.32 242.83C234.915 242.83 263.77 213.975 263.77 178.38C263.77 142.785 234.915 113.93 199.32 113.93C163.725 113.93 134.87 142.785 134.87 178.38C134.87 213.975 163.725 242.83 199.32 242.83Z" fill="#CDEBF5"/>
<path d="M199.32 105.55C184.915 105.55 170.834 109.821 158.858 117.824C146.881 125.827 137.546 137.201 132.034 150.509C126.521 163.817 125.079 178.461 127.889 192.588C130.699 206.716 137.636 219.693 147.821 229.879C158.007 240.064 170.984 247 185.111 249.811C199.239 252.621 213.883 251.179 227.191 245.666C240.499 240.154 251.873 230.819 259.876 218.842C267.878 206.865 272.15 192.784 272.15 178.38C272.15 159.064 264.477 140.54 250.818 126.881C237.16 113.223 218.636 105.55 199.32 105.55ZM199.32 239.32C187.267 239.322 175.483 235.75 165.461 229.055C155.438 222.36 147.625 212.843 143.011 201.708C138.398 190.573 137.189 178.319 139.539 166.497C141.89 154.676 147.693 143.816 156.215 135.292C164.737 126.769 175.596 120.964 187.417 118.612C199.239 116.26 211.492 117.466 222.628 122.078C233.764 126.69 243.282 134.501 249.979 144.523C256.675 154.544 260.25 166.327 260.25 178.38C260.25 194.541 253.831 210.039 242.404 221.468C230.978 232.896 215.48 239.317 199.32 239.32Z" fill="#605ED2"/>
<path d="M169.64 307.35C169.64 307.35 159.88 305.53 154.95 303.23C152.614 302.212 150.354 301.025 148.19 299.68" stroke="#262626" stroke-width="1.5" stroke-linecap="round" stroke-linejoin="round"/>
<path d="M168 316.52C168 316.52 156.69 315.39 152.11 312.75C149.857 311.566 147.764 310.101 145.88 308.39" stroke="#262626" stroke-width="1.5" stroke-linecap="round" stroke-linejoin="round"/>
<path d="M164.25 327C160.475 326.882 156.751 326.096 153.25 324.68C149.967 323.237 146.789 321.566 143.74 319.68" stroke="#262626" stroke-width="1.5" stroke-linecap="round" stroke-linejoin="round"/>
<path d="M126.96 293.6L125.48 328.7L130.12 327.25L128.63 293.44L126.96 293.6Z" fill="#FF7769"/>
<path d="M96.1397 225.39C96.1397 225.39 71.8397 278.81 72.5197 280.19C73.1997 281.57 127.97 279.27 127.97 279.27L125.41 340.11C125.41 340.11 82.6497 337.41 65.7397 333.21C48.8297 329.01 29.4897 322.44 29.4897 322.44" stroke="#262626" stroke-linecap="round" stroke-linejoin="round"/>
<path d="M202.64 135.23C202.253 136.104 202.224 137.095 202.56 137.99C202.726 138.435 202.979 138.843 203.304 139.19C203.629 139.537 204.019 139.817 204.452 140.013C204.884 140.209 205.352 140.318 205.827 140.332C206.302 140.347 206.775 140.268 207.22 140.1C210.618 138.828 214.25 138.299 217.87 138.55C220.81 138.761 223.688 139.496 226.37 140.72C229.548 142.064 232.322 144.211 234.42 146.95C238.18 152.12 237.86 158.16 237.55 160.52C237.425 161.472 237.684 162.435 238.269 163.196C238.854 163.958 239.718 164.455 240.67 164.58C241.622 164.705 242.584 164.446 243.346 163.861C244.107 163.276 244.605 162.412 244.73 161.46C245.685 154.868 244.094 148.16 240.28 142.7C237.471 138.966 233.738 136.026 229.45 134.17C225.967 132.556 222.219 131.593 218.39 131.33C213.726 131.004 209.046 131.686 204.67 133.33C204.222 133.496 203.812 133.749 203.463 134.076C203.115 134.402 202.835 134.794 202.64 135.23Z" fill="white"/>
<path d="M75.8799 220C51.9089 241.305 34.4273 268.935 25.4399 299.72" stroke="white" stroke-linecap="round" stroke-linejoin="round"/>
<path d="M131.22 340.11H247.09V352.64H138.86C136.833 352.64 134.89 351.835 133.457 350.402C132.025 348.969 131.22 347.026 131.22 345V340.11Z" fill="#2A83C6"/>
<path d="M327.83 352.65H209.76C205.12 352.65 201.82 348.65 202.39 343.8L211.31 266.8C211.88 261.91 216.1 257.95 220.73 257.95H338.81C343.45 257.95 346.75 261.95 346.18 266.8L337.26 343.8C336.69 348.68 332.47 352.65 327.83 352.65Z" fill="#2A83C6"/>
<path d="M339.23 352.65H221.16C216.52 352.65 213.22 348.65 213.79 343.8L222.71 266.8C223.28 261.91 227.5 257.95 232.13 257.95H350.21C354.85 257.95 358.15 261.95 357.58 266.8L348.66 343.8C348.09 348.68 343.87 352.65 339.23 352.65Z" fill="#3897E9"/>
<path d="M357.58 271.23L348.66 344.23C348.66 344.23 349.06 352.63 335.3 352.63H258C281.402 352.485 304.048 344.324 322.164 329.509C340.281 314.694 352.773 294.118 357.56 271.21L357.58 271.23Z" fill="#5FBBFF"/>
<path d="M355.12 280.6C350.333 296.105 341.916 310.244 330.567 321.843C319.219 333.442 305.267 342.166 289.87 347.29" stroke="#262626" stroke-linecap="round" stroke-linejoin="round"/>
<path d="M285.71 313H281.58L284.21 296.27H288.34L285.71 313Z" fill="#FEC02D"/>
<path d="M291.13 313H287L288.81 301.46H292.94L291.13 313Z" fill="#FEC02D"/>
<path d="M170.36 115.84C157.164 123.277 146.438 134.419 139.506 147.887C132.575 161.355 129.743 176.559 131.36 191.62" stroke="#262626" stroke-linecap="round" stroke-linejoin="round"/>
<path d="M177.64 318.71L175.32 302.34" stroke="#262626" stroke-linecap="round" stroke-linejoin="round"/>
<path d="M406.55 176.27H251.85C248.305 176.27 245.43 179.144 245.43 182.69V295.95C245.43 299.496 248.305 302.37 251.85 302.37H406.55C410.096 302.37 412.97 299.496 412.97 295.95V182.69C412.97 179.144 410.096 176.27 406.55 176.27Z" fill="#F5F5F5"/>
<path opacity="0.5" d="M413 190.86V182.69C413 180.987 412.324 179.354 411.12 178.15C409.916 176.946 408.283 176.27 406.58 176.27H251.85C251.007 176.269 250.171 176.434 249.392 176.756C248.612 177.078 247.904 177.551 247.308 178.147C246.711 178.744 246.238 179.452 245.916 180.232C245.594 181.011 245.429 181.847 245.43 182.69V190.86H413Z" fill="#D6D6D6"/>
<path d="M254.14 184.33C254.14 184.726 254.023 185.112 253.803 185.441C253.583 185.77 253.271 186.026 252.905 186.178C252.54 186.329 252.138 186.369 251.75 186.292C251.362 186.214 251.006 186.024 250.726 185.744C250.446 185.465 250.256 185.108 250.179 184.72C250.101 184.332 250.141 183.93 250.292 183.565C250.444 183.199 250.7 182.887 251.029 182.667C251.358 182.447 251.745 182.33 252.14 182.33C252.671 182.33 253.179 182.541 253.554 182.916C253.929 183.291 254.14 183.8 254.14 184.33Z" fill="#F5F5F5"/>
<path d="M260.42 184.33C260.42 184.726 260.303 185.112 260.083 185.441C259.863 185.77 259.551 186.026 259.185 186.178C258.82 186.329 258.418 186.369 258.03 186.292C257.642 186.214 257.285 186.024 257.006 185.744C256.726 185.465 256.536 185.108 256.458 184.72C256.381 184.332 256.421 183.93 256.572 183.565C256.724 183.199 256.98 182.887 257.309 182.667C257.638 182.447 258.024 182.33 258.42 182.33C258.95 182.33 259.459 182.541 259.834 182.916C260.209 183.291 260.42 183.8 260.42 184.33Z" fill="#F5F5F5"/>
<path d="M266.84 184.33C266.84 184.726 266.723 185.112 266.503 185.441C266.283 185.77 265.971 186.026 265.605 186.178C265.24 186.329 264.838 186.369 264.45 186.292C264.062 186.214 263.705 186.024 263.426 185.744C263.146 185.465 262.955 185.108 262.878 184.72C262.801 184.332 262.841 183.93 262.992 183.565C263.143 183.199 263.4 182.887 263.729 182.667C264.058 182.447 264.444 182.33 264.84 182.33C265.37 182.33 265.879 182.541 266.254 182.916C266.629 183.291 266.84 183.8 266.84 184.33Z" fill="#F5F5F5"/>
<path opacity="0.5" d="M347.31 220.82V212.64C347.307 211.353 346.794 210.119 345.883 209.21C344.972 208.301 343.737 207.79 342.45 207.79H295C293.714 207.79 292.48 208.301 291.57 209.211C290.661 210.12 290.15 211.354 290.15 212.64V275.29C290.15 276.576 290.661 277.81 291.57 278.72C292.48 279.629 293.714 280.14 295 280.14H370.9C372.186 280.14 373.42 279.629 374.329 278.72C375.239 277.81 375.75 276.576 375.75 275.29V225.68C375.751 225.042 375.627 224.411 375.384 223.821C375.14 223.231 374.783 222.696 374.333 222.244C373.882 221.793 373.347 221.435 372.758 221.19C372.169 220.946 371.538 220.82 370.9 220.82H347.31Z" fill="#D6D6D6"/>
<path d="M342.5 232.24L332.94 241.8L323.38 232.24L317.61 238.01L327.17 247.57L317.61 257.13L323.38 262.9L332.94 253.34L342.5 262.9L348.27 257.13L338.71 247.57L348.27 238.01L342.5 232.24Z" fill="#D6D6D6"/>
<path d="M251.85 176.27H406.55C408.253 176.27 409.886 176.946 411.09 178.15C412.294 179.354 412.97 180.987 412.97 182.69V296" stroke="#262626" stroke-width="0.27" stroke-linecap="round" stroke-linejoin="round"/>
<path d="M425.5 352.65H10.6898C4.80243 352.65 0.0297852 357.423 0.0297852 363.31C0.0297852 369.197 4.80243 373.97 10.6898 373.97H425.5C431.387 373.97 436.16 369.197 436.16 363.31C436.16 357.423 431.387 352.65 425.5 352.65Z" fill="#605ED2"/>
<path d="M398.39 205.44C397.683 200.704 397.538 195.9 397.96 191.13C398.436 187.367 399.808 183.773 401.96 180.65C403.207 178.704 404.715 176.938 406.44 175.4C408.115 173.928 409.686 172.341 411.14 170.65C412.525 169.041 413.673 167.243 414.55 165.31C415.462 163.026 415.725 160.534 415.31 158.11C414.703 153.25 412.936 150.02 410.01 148.42C406.982 146.804 403.515 146.205 400.12 146.71C394.86 147.377 391.42 149.297 389.8 152.47C388.18 155.643 387.436 159.743 387.57 164.77L368.37 167.18C367.738 162.66 367.979 158.06 369.08 153.63C370.093 149.606 371.973 145.851 374.59 142.63C377.27 139.403 380.594 136.77 384.35 134.9C388.527 132.839 393.031 131.519 397.66 131C408.38 129.667 417.113 130.787 423.86 134.36C430.606 137.933 434.606 144.64 435.86 154.48C436.254 157.285 436.281 160.129 435.94 162.94C435.613 165.317 434.908 167.626 433.85 169.78C432.743 171.941 431.372 173.956 429.77 175.78C428.09 177.7 426.18 179.71 424.02 181.78C422.318 183.437 420.75 185.226 419.33 187.13C418.228 188.62 417.389 190.287 416.85 192.06C416.35 193.73 416.107 195.467 416.13 197.21C416.167 199.19 416.314 201.166 416.57 203.13L398.39 205.44ZM401.39 234.24L399 214.74L419.09 212.22L421.54 231.72L401.39 234.24Z" fill="#FF7129"/>
<path d="M351.438 109.917C371.523 89.8321 371.523 57.2685 351.438 37.1838C331.353 17.0991 298.79 17.0991 278.705 37.1838C258.62 57.2685 258.62 89.8321 278.705 109.917C298.79 130.001 331.353 130.001 351.438 109.917Z" fill="#F5F5F5"/>
<path opacity="0.5" d="M344.579 103.058C360.875 86.7613 360.875 60.3393 344.579 44.0427C328.282 27.7462 301.86 27.7461 285.564 44.0427C269.267 60.3393 269.267 86.7613 285.564 103.058C301.86 119.354 328.282 119.354 344.579 103.058Z" fill="#D6D6D6"/>
<path d="M316.45 44.1799H313.7V78.1399H316.45V44.1799Z" fill="#D6D6D6"/>
<path d="M315.078 75.6077L313.703 77.9893L332.755 88.9893L334.13 86.6077L315.078 75.6077Z" fill="#D6D6D6"/>
</svg>
