<svg width="77" height="73" viewBox="0 0 77 73" fill="none" xmlns="http://www.w3.org/2000/svg">
<path d="M43.0624 52.2298L2.46377 47.963C2.09803 47.9251 1.74428 47.811 1.42529 47.6281L8.13781 51.5074C8.45823 51.6894 8.81329 51.8022 9.18005 51.8385L49.775 56.1053L43.0624 52.2298Z" fill="#3629B7"/>
<path d="M74.6608 9.63317L67.9483 5.75391C69.126 6.43494 69.6753 8.03405 69.1974 9.79496L61.5142 38.1463L58.3837 49.7088L54.0905 65.5532C53.5939 67.3894 52.0136 68.4392 50.7042 68.3037C50.4391 68.2752 50.1828 68.1919 49.9517 68.0591L56.6679 71.9346C56.8991 72.0674 57.1554 72.1507 57.4205 72.1792C58.7186 72.3146 60.2951 71.2649 60.8068 69.4287L65.1 53.5843L68.2342 42.0256L75.9175 13.6705C76.3916 11.9096 75.8422 10.3142 74.6608 9.63317Z" fill="url(#paint0_linear_132_325)"/>
<path d="M66.9097 5.42275C68.7722 5.61841 69.7994 7.57497 69.1974 9.79491L61.5141 38.1463L58.3836 49.7088L54.0905 65.5532C53.5938 67.3893 52.0135 68.4391 50.7041 68.3036C50.3408 68.2646 49.9959 68.1239 49.709 67.8976C49.4222 67.6713 49.205 67.3686 49.0824 67.0244L43.0622 52.2297L2.46358 47.9629C0.582268 47.7635 -0.426113 45.8069 0.172143 43.5908L10.9897 3.67689C11.5879 1.45695 13.5896 -0.179792 15.4559 0.015864L66.9097 5.42275Z" fill="url(#paint1_linear_132_325)"/>
<path d="M50.9451 67.2464H50.8397C50.6675 67.2272 50.5047 67.1582 50.371 67.048C50.2374 66.9377 50.1388 66.7909 50.0872 66.6255L43.8074 51.2364L2.5766 46.9019C2.35009 46.8827 2.13085 46.8125 1.93536 46.6965C1.73986 46.5805 1.57317 46.4217 1.44782 46.2321C1.24001 45.8789 1.11001 45.4854 1.06654 45.0779C1.02306 44.6704 1.0671 44.2583 1.19572 43.8692L12.0095 3.95532C12.4422 2.36373 13.8456 1.06563 15.14 1.06563C15.2051 1.06178 15.2705 1.06178 15.3356 1.06563L66.7895 6.47252C67.016 6.49166 67.2352 6.56186 67.4307 6.67786C67.6262 6.79385 67.7929 6.95263 67.9183 7.14226C68.1264 7.4954 68.2562 7.8891 68.2991 8.29675C68.3419 8.7044 68.2967 9.1165 68.1666 9.50519L53.0597 65.2747C52.721 66.5089 51.7239 67.2464 50.9451 67.2464Z" fill="url(#paint2_linear_132_325)"/>
<path d="M24.1513 12.519C24.0143 12.4436 23.8631 12.3975 23.7073 12.3836C23.38 12.3349 23.0461 12.4057 22.7667 12.583C22.4442 12.8136 22.1726 13.1082 21.969 13.4484C21.6628 13.9403 21.4105 14.4639 21.2165 15.0099C20.9794 15.6571 20.7574 16.3757 20.5505 17.1395C20.3436 17.9034 20.1742 18.6446 20.0576 19.2842C19.9519 19.8217 19.9115 20.37 19.9372 20.9172C19.9452 21.2649 20.0494 21.6035 20.2382 21.8955C20.304 21.9875 20.3887 22.0645 20.4865 22.1213L22.5597 23.3178C22.4619 23.261 22.3772 23.184 22.3114 23.092C22.1226 22.8 22.0184 22.4614 22.0104 22.1137C21.9844 21.5664 22.0261 21.0179 22.1346 20.4808C22.2512 19.8261 22.4168 19.1036 22.6237 18.3361C22.8307 17.5685 23.0564 16.8536 23.2897 16.2102C23.483 15.6627 23.7353 15.1378 24.0422 14.6449C24.2458 14.3047 24.5174 14.0101 24.8399 13.7795C25.1194 13.6025 25.4532 13.5317 25.7805 13.5801C25.9363 13.594 26.0875 13.6401 26.2245 13.7156L24.1513 12.519Z" fill="url(#paint3_linear_132_325)"/>
<path d="M31.0594 12.5378C30.7486 11.7029 30.2103 10.9717 29.5054 10.427C29.361 10.3159 29.2089 10.2153 29.0501 10.126L26.9769 8.92572C27.1349 9.01767 27.287 9.11946 27.4322 9.23049C28.138 9.77437 28.6765 10.5059 28.9862 11.3413C29.3273 12.3066 29.4793 13.3286 29.4339 14.3514C29.3867 15.5864 29.1934 16.8115 28.8582 18.0012C28.5322 19.24 28.0611 20.436 27.4548 21.5644C26.9221 22.5732 26.2396 23.4955 25.4305 24.2998C24.7034 25.0237 23.8385 25.5943 22.887 25.9779C21.972 26.3342 20.9843 26.4633 20.0085 26.3542C19.2171 26.2856 18.4484 26.0537 17.751 25.6731L19.8242 26.8697C20.5209 27.2518 21.2899 27.4838 22.0818 27.5507C23.0576 27.6619 24.0457 27.5328 24.9602 27.1744C25.9139 26.7928 26.7804 26.222 27.5074 25.4963C28.3143 24.6901 28.9966 23.7682 29.5317 22.7609C30.1353 21.6316 30.605 20.4358 30.9314 19.1977C31.2666 18.0081 31.4599 16.783 31.5071 15.5479C31.5519 14.5252 31.3999 13.5033 31.0594 12.5378Z" fill="#F3F2FC"/>
<path d="M29.4338 14.3627C29.3865 15.5978 29.1933 16.8229 28.8581 18.0125C28.5321 19.2513 28.061 20.4473 27.4546 21.5757C26.921 22.584 26.2386 23.5061 25.4303 24.3111C24.7033 25.035 23.8384 25.6057 22.8868 25.9892C21.9719 26.3455 20.9842 26.4746 20.0084 26.3655C19.009 26.2951 18.0506 25.94 17.2466 25.3421C16.5338 24.769 15.9976 24.0059 15.7002 23.1409C15.3737 22.1726 15.2333 21.1513 15.2863 20.1308C15.3359 18.9351 15.5253 17.7494 15.8507 16.5977C16.1784 15.3484 16.644 14.1395 17.2391 12.9932C17.764 11.9812 18.4431 11.0571 19.2521 10.254C19.9864 9.533 20.8629 8.97301 21.8257 8.60971C22.7893 8.26497 23.8192 8.14653 24.8358 8.26354C25.7789 8.33544 26.6832 8.66902 27.4471 9.22678C28.1529 9.77065 28.6914 10.5021 29.0011 11.3376C29.339 12.3087 29.4859 13.3359 29.4338 14.3627ZM23.4437 19.6304C23.677 18.9795 23.9027 18.2721 24.1059 17.5234C24.6063 15.6646 24.7982 14.3025 24.674 13.4823C24.5687 12.79 24.2677 12.4551 23.7071 12.3949C23.3797 12.3462 23.0458 12.417 22.7664 12.5943C22.4439 12.8249 22.1723 13.1195 21.9687 13.4597C21.6625 13.9517 21.4102 14.4752 21.2162 15.0212C20.9791 15.6684 20.7572 16.387 20.5502 17.1509C20.3433 17.9147 20.174 18.6559 20.0573 19.2955C19.9516 19.833 19.9112 20.3813 19.9369 20.9285C19.9449 21.2762 20.0491 21.6148 20.2379 21.9068C20.3325 22.0235 20.4517 22.1177 20.587 22.1828C20.7223 22.2478 20.8704 22.2821 21.0205 22.2831C21.3308 22.3282 21.6467 22.2543 21.9048 22.0761C22.2239 21.8405 22.4915 21.5422 22.6911 21.1994C22.9943 20.7018 23.2464 20.1749 23.4437 19.6267" fill="url(#paint4_linear_132_325)"/>
<path d="M20.6747 25.771C20.479 25.771 20.2759 25.771 20.0764 25.7409C19.1985 25.6812 18.3555 25.3733 17.6458 24.8529C17.0281 24.3532 16.5639 23.6894 16.3063 22.9378C16.005 22.0433 15.8773 21.0995 15.93 20.1572C15.9793 19.0113 16.1611 17.8749 16.4719 16.7708C16.7876 15.5686 17.2356 14.4052 17.8076 13.3017C18.2979 12.3495 18.9325 11.4788 19.6889 10.7205C20.3592 10.0603 21.1602 9.54759 22.0405 9.21548C22.6836 8.98352 23.3624 8.86635 24.046 8.86932C24.2798 8.86882 24.5135 8.88138 24.7459 8.90694C25.572 8.96609 26.3655 9.25402 27.0373 9.73848C27.6481 10.2112 28.1136 10.8462 28.3806 11.5709C28.6932 12.4605 28.8312 13.402 28.7869 14.3439C28.7404 15.528 28.5547 16.7025 28.2338 17.8432C27.9199 19.0343 27.4679 20.1847 26.8868 21.2709C26.384 22.2222 25.741 23.0923 24.9791 23.8521C24.3132 24.518 23.5198 25.0427 22.6463 25.3947C22.0185 25.6425 21.3497 25.7701 20.6747 25.771ZM23.5004 11.7327C23.1128 11.7266 22.7323 11.8381 22.4093 12.0525C22.0138 12.3322 21.6807 12.6909 21.431 13.106C21.0993 13.6373 20.828 14.204 20.622 14.7954C20.3812 15.4501 20.1517 16.1839 19.941 16.9702C19.7303 17.7566 19.5647 18.5016 19.4368 19.1714C19.321 19.7609 19.278 20.3624 19.3089 20.9624C19.3236 21.4263 19.4669 21.877 19.7228 22.2642C19.8691 22.4562 20.0558 22.6136 20.2698 22.7255C20.4837 22.8373 20.7195 22.9008 20.9607 22.9114C21.0408 22.9169 21.1213 22.9169 21.2015 22.9114C21.5856 22.9135 21.9611 22.7979 22.2776 22.5803C22.668 22.2938 22.9969 21.9317 23.2446 21.5155C23.567 20.9795 23.8343 20.4122 24.0423 19.8223C24.2868 19.1601 24.5126 18.4339 24.7233 17.6626C25.2576 15.6909 25.4495 14.2762 25.3065 13.3581C25.1184 12.1277 24.3696 11.7966 23.7751 11.7327C23.6836 11.7273 23.5919 11.7273 23.5004 11.7327Z" fill="url(#paint5_linear_132_325)"/>
<path d="M23.7748 11.7477C23.6833 11.7423 23.5916 11.7423 23.5001 11.7477C23.1124 11.7416 22.732 11.8531 22.4089 12.0675C22.0134 12.3472 21.6803 12.706 21.4306 13.1211C21.099 13.6524 20.8276 14.219 20.6217 14.8105C20.3809 15.4652 20.1513 16.1989 19.9406 16.9853C19.7299 17.7717 19.5644 18.5167 19.4365 19.1864C19.3206 19.7759 19.2776 20.3774 19.3085 20.9774C19.3233 21.4413 19.4665 21.892 19.7224 22.2793C19.8688 22.4712 20.0555 22.6287 20.2694 22.7405C20.4833 22.8523 20.7192 22.9158 20.9603 22.9265C21.0405 22.932 21.1209 22.932 21.2011 22.9265C21.5852 22.9285 21.9607 22.813 22.2772 22.5953C22.6677 22.3088 22.9965 21.9467 23.2442 21.5305C23.5666 20.9945 23.8339 20.4272 24.0419 19.8373C24.2865 19.1751 24.5122 18.4489 24.7229 17.6776C25.2572 15.706 25.4491 14.2912 25.3061 13.3732C25.118 12.1428 24.3692 11.8117 23.7748 11.7477ZM24.1059 17.512C23.9027 18.2646 23.6769 18.9682 23.4436 19.6191C23.2464 20.1674 22.9943 20.6943 22.6911 21.1919C22.4914 21.5346 22.2238 21.8329 21.9047 22.0686C21.6467 22.2467 21.3308 22.3207 21.0205 22.2755C20.8704 22.2745 20.7223 22.2403 20.587 22.1752C20.4516 22.1102 20.3324 22.0159 20.2379 21.8993C20.0491 21.6073 19.9449 21.2686 19.9369 20.921C19.9112 20.3738 19.9516 19.8255 20.0573 19.288C20.1739 18.6333 20.3395 17.9109 20.5502 17.1433C20.7609 16.3757 20.9791 15.6608 21.2162 15.0137C21.4101 14.4676 21.6624 13.9441 21.9687 13.4522C22.1723 13.112 22.4439 12.8174 22.7664 12.5868C23.0458 12.4094 23.3797 12.3386 23.707 12.3874C24.2677 12.4476 24.5687 12.7824 24.674 13.4748C24.7982 14.2875 24.6063 15.6533 24.1247 17.512H24.1059Z" fill="url(#paint6_linear_132_325)"/>
<path d="M28.9859 11.3414C28.6762 10.5059 28.1377 9.77443 27.432 9.23056C26.6681 8.6728 25.7638 8.33922 24.8207 8.26733C23.8041 8.15031 22.7741 8.26875 21.8106 8.61349C20.8478 8.97679 19.9713 9.53678 19.237 10.2578C18.428 11.0609 17.7489 11.985 17.224 12.9969C16.6289 14.1433 16.1632 15.3522 15.8356 16.6015C15.5101 17.7532 15.3207 18.9389 15.2712 20.1346C15.2181 21.1551 15.3586 22.1764 15.6851 23.1447C15.9825 24.0097 16.5186 24.7728 17.2315 25.3459C18.0354 25.9438 18.9938 26.2989 19.9933 26.3693C20.969 26.4784 21.9567 26.3493 22.8717 25.993C23.8232 25.6094 24.6882 25.0388 25.4152 24.3149C26.2243 23.5106 26.9068 22.5883 27.4395 21.5795C28.0459 20.4511 28.5169 19.2551 28.8429 18.0163C29.1782 16.8267 29.3714 15.6016 29.4186 14.3665C29.4708 13.3397 29.3239 12.3124 28.9859 11.3414ZM28.2334 17.8432C27.9195 19.0344 27.4674 20.1848 26.8864 21.2709C26.3836 22.2222 25.7405 23.0923 24.9787 23.8521C24.3128 24.518 23.5194 25.0427 22.6459 25.3948C22.0157 25.6434 21.3443 25.7711 20.6668 25.771C20.4711 25.771 20.2679 25.771 20.0685 25.7409C19.1905 25.6813 18.3476 25.3733 17.6379 24.853C17.0202 24.3532 16.5559 23.6894 16.2984 22.9378C15.9971 22.0433 15.8694 21.0996 15.9221 20.1572C15.9714 19.0113 16.1532 17.8749 16.4639 16.7709C16.7796 15.5687 17.2276 14.4052 17.7997 13.3017C18.29 12.3495 18.9246 11.4789 19.681 10.7206C20.3513 10.0603 21.1523 9.54762 22.0326 9.21551C22.6757 8.98355 23.3545 8.86638 24.0381 8.86935C24.2719 8.86885 24.5055 8.88141 24.7379 8.90697C25.5641 8.96612 26.3575 9.25404 27.0294 9.73851C27.6402 10.2112 28.1056 10.8462 28.3726 11.5709C28.6853 12.4605 28.8233 13.4021 28.779 14.344C28.7373 15.5274 28.5567 16.7019 28.2409 17.8432H28.2334Z" fill="url(#paint7_linear_132_325)"/>
<path d="M42.3062 9.23053L44.3793 10.427L47.5136 13.4447L45.4404 12.2482L42.3062 9.23053Z" fill="url(#paint8_linear_132_325)"/>
<path d="M42.3058 9.23053L45.44 12.2482L20.5879 42.1723L17.4424 39.1847L42.3058 9.23053Z" fill="url(#paint9_linear_132_325)"/>
<path d="M18.3154 39.1321L42.3586 10.1674L44.5672 12.2933L20.5316 41.2354L18.3154 39.1321Z" fill="url(#paint10_linear_132_325)"/>
<path d="M45.44 12.2482L20.5879 42.1723L22.6611 43.3688L47.5132 13.4447L45.44 12.2482Z" fill="url(#paint11_linear_132_325)"/>
<path d="M42.3887 29.3041L44.4619 30.5044C44.297 30.415 44.1148 30.3623 43.9276 30.3501C43.6179 30.3054 43.3026 30.3778 43.0434 30.5533C42.7248 30.7921 42.4564 31.0913 42.2533 31.4338C41.9509 31.9318 41.6988 32.4586 41.5007 33.0065C41.2637 33.6537 41.0417 34.3648 40.8385 35.1098C40.3343 36.9723 40.1462 38.3306 40.2704 39.1509C40.2777 39.3398 40.3288 39.5244 40.4196 39.6902C40.5103 39.856 40.6382 39.9985 40.7934 40.1066L38.7202 38.9101C38.565 38.802 38.4371 38.6595 38.3463 38.4937C38.2556 38.3279 38.2045 38.1433 38.1972 37.9544C38.073 37.1341 38.2611 35.7758 38.7653 33.9133C38.9685 33.1608 39.1905 32.4572 39.4275 31.81C39.6248 31.2618 39.8769 30.7348 40.1801 30.2372C40.3821 29.894 40.6508 29.5947 40.9702 29.3568C41.2297 29.182 41.5443 29.1084 41.8544 29.1498C42.0409 29.1657 42.2225 29.2181 42.3887 29.3041Z" fill="url(#paint12_linear_132_325)"/>
<path d="M49.2517 29.4696C48.957 28.6053 48.4218 27.8431 47.7091 27.2722C47.5472 27.1444 47.3762 27.0287 47.1974 26.9261L45.1242 25.7296C45.3033 25.8318 45.4743 25.9475 45.6359 26.0757C46.3486 26.6466 46.8837 27.4088 47.1785 28.2731C47.5062 29.2412 47.6479 30.2625 47.5962 31.2832C47.5427 32.4785 47.3533 33.6638 47.0318 34.8163C46.7047 36.0646 46.239 37.2723 45.6434 38.4171C45.1204 39.4291 44.441 40.3522 43.6304 41.1525C42.8962 41.8746 42.0198 42.4358 41.0568 42.8006C40.0934 43.1459 39.063 43.2631 38.0467 43.143C37.2857 43.0771 36.5472 42.8515 35.8794 42.4807L37.9526 43.6772C38.6204 44.048 39.3589 44.2736 40.1199 44.3395C41.1362 44.4615 42.167 44.3443 43.13 43.9971C44.0921 43.6324 44.9683 43.0726 45.7036 42.3528C46.5126 41.551 47.1917 40.6282 47.7166 39.6174C48.3117 38.4711 48.7774 37.2621 49.105 36.0128C49.4265 34.8603 49.6159 33.675 49.6694 32.4797C49.7211 31.459 49.5794 30.4377 49.2517 29.4696Z" fill="url(#paint13_linear_132_325)"/>
<path d="M47.5962 31.2946C47.5427 32.4899 47.3533 33.6752 47.0318 34.8277C46.7047 36.0759 46.239 37.2837 45.6434 38.4285C45.1204 39.4405 44.441 40.3636 43.6304 41.1639C42.8962 41.886 42.0198 42.4472 41.0568 42.8119C40.0934 43.1573 39.063 43.2745 38.0467 43.1543C37.1051 43.0814 36.2017 42.7507 35.4354 42.1986C34.7285 41.6543 34.1898 40.9213 33.8814 40.084C33.5386 39.1192 33.3865 38.0969 33.4337 37.074C33.4812 35.8377 33.6744 34.6114 34.0094 33.4205C34.3351 32.1821 34.8049 30.9862 35.4091 29.8573C35.9452 28.8506 36.6273 27.9288 37.4334 27.1218C38.1618 26.3978 39.0279 25.8272 39.9807 25.4437C40.8951 25.0854 41.8833 24.9562 42.8591 25.0674C43.8589 25.1389 44.8173 25.4954 45.6208 26.0946C46.3336 26.6655 46.8687 27.4277 47.1635 28.292C47.4953 29.2567 47.6421 30.2754 47.5962 31.2946ZM41.6588 36.4155C41.8921 35.7683 42.1178 35.0534 42.3248 34.2859C42.5317 33.5183 42.701 32.7808 42.8139 32.1412C42.9213 31.6052 42.9618 31.0579 42.9343 30.5119C42.9286 30.1645 42.8257 29.8256 42.6371 29.5337C42.5429 29.4166 42.4237 29.3221 42.2883 29.257C42.1529 29.1919 42.0047 29.1579 41.8544 29.1574C41.5443 29.1159 41.2297 29.1896 40.9702 29.3643C40.6508 29.6022 40.3821 29.9016 40.1801 30.2448C39.8769 30.7424 39.6248 31.2693 39.4276 31.8176C39.1905 32.4647 38.9685 33.1759 38.7653 33.9209C38.2611 35.8022 38.073 37.1417 38.1972 37.9619C38.3025 38.658 38.5998 38.9929 39.1642 39.0493C39.4915 39.0994 39.8259 39.0285 40.1048 38.8499C40.4281 38.6217 40.6999 38.3282 40.9025 37.9883C41.2094 37.4954 41.4618 36.9705 41.655 36.423" fill="url(#paint14_linear_132_325)"/>
<path d="M47.1786 28.2731C46.8838 27.4089 46.3487 26.6466 45.636 26.0758C44.8324 25.4765 43.874 25.12 42.8742 25.0486C41.8984 24.9373 40.9102 25.0665 39.9958 25.4248C39.0431 25.8083 38.1769 26.379 37.4485 27.103C36.6425 27.9099 35.9603 28.8317 35.4242 29.8384C34.8201 30.9674 34.3503 32.1633 34.0245 33.4016C33.6896 34.5925 33.4963 35.8188 33.4488 37.0551C33.4016 38.078 33.5537 39.1003 33.8966 40.0652C34.2049 40.9024 34.7436 41.6355 35.4505 42.1798C36.2168 42.7319 37.1202 43.0625 38.0618 43.1355C39.0781 43.2556 40.1085 43.1384 41.0719 42.7931C42.0349 42.4284 42.9114 41.8671 43.6455 41.1451C44.4562 40.3448 45.1355 39.4216 45.6585 38.4096C46.2541 37.2649 46.7198 36.0571 47.0469 34.8088C47.3685 33.6563 47.5578 32.471 47.6113 31.2757C47.6573 30.2565 47.5105 29.2379 47.1786 28.2731ZM46.4261 34.6696C46.1098 35.8733 45.6605 37.0381 45.0866 38.1425C44.5983 39.0937 43.9635 39.9622 43.2053 40.7161C42.5336 41.3747 41.733 41.8871 40.8537 42.2212C40.2126 42.4504 39.5365 42.5662 38.8557 42.5636C38.6194 42.5641 38.3833 42.5515 38.1483 42.5259C37.3227 42.4641 36.53 42.1764 35.8569 41.6944C35.2461 41.2217 34.7806 40.5867 34.5136 39.862C34.1989 38.9729 34.0609 38.0309 34.1073 37.089C34.152 35.9047 34.3377 34.73 34.6604 33.5897C34.9725 32.3992 35.4247 31.2498 36.0074 30.1657C36.5108 29.2126 37.1538 28.3401 37.9151 27.5771C38.5822 26.9145 39.3755 26.3925 40.2479 26.0419C40.8803 25.7919 41.5545 25.6642 42.2346 25.6656C42.4302 25.6656 42.6108 25.6656 42.8253 25.6957C43.704 25.7551 44.5474 26.0645 45.2559 26.5875C45.8727 27.0865 46.3369 27.7488 46.5954 28.4989C46.8975 29.3945 47.0252 30.3396 46.9717 31.2832C46.9149 32.4258 46.7281 33.5581 46.4148 34.6583L46.4261 34.6696Z" fill="url(#paint15_linear_132_325)"/>
<path d="M43.1597 29.1611C43.0141 28.9684 42.8275 28.8104 42.6135 28.6985C42.3994 28.5866 42.1632 28.5235 41.9218 28.5139H41.681C41.2971 28.5091 40.9211 28.6234 40.6049 28.8413C40.2135 29.1283 39.8845 29.4919 39.6379 29.9099C39.3144 30.4432 39.0458 31.0079 38.8365 31.5955C38.5957 32.2615 38.3661 32.9877 38.1592 33.7515C37.6249 35.7269 37.433 37.1379 37.576 38.0597C37.7604 39.2901 38.5129 39.625 39.1074 39.6852C39.1963 39.6906 39.2856 39.6906 39.3745 39.6852C39.7648 39.693 40.1481 39.5814 40.4732 39.3653C40.8694 39.088 41.2027 38.7303 41.4515 38.3156C41.7832 37.7843 42.0545 37.2176 42.2605 36.6262C42.4975 35.9677 42.7308 35.234 42.9415 34.4476C43.1522 33.6612 43.3177 32.92 43.4457 32.2465C43.5614 31.6582 43.6044 31.058 43.5736 30.4592C43.5574 29.9967 43.4142 29.5476 43.1597 29.1611ZM42.8136 32.1411C42.6969 32.7996 42.5314 33.522 42.3244 34.2858C42.1175 35.0496 41.8917 35.7683 41.6584 36.4154C41.4652 36.963 41.2128 37.4878 40.9059 37.9807C40.7022 38.3198 40.4306 38.6131 40.1082 38.8423C39.8294 39.021 39.4949 39.0918 39.1676 39.0418C38.6032 38.9853 38.3059 38.6655 38.2006 37.9544C38.0764 37.1341 38.2646 35.7758 38.7687 33.9133C38.9719 33.1608 39.1939 32.4572 39.431 31.81C39.6282 31.2617 39.8803 30.7348 40.1835 30.2372C40.3855 29.894 40.6542 29.5947 40.9736 29.3568C41.2331 29.182 41.5477 29.1084 41.8579 29.1498C42.0081 29.1503 42.1563 29.1843 42.2917 29.2494C42.4271 29.3145 42.5463 29.409 42.6405 29.5261C42.8291 29.818 42.932 30.1569 42.9377 30.5044C42.9646 31.053 42.9229 31.6028 42.8136 32.1411Z" fill="url(#paint16_linear_132_325)"/>
<defs>
<linearGradient id="paint0_linear_132_325" x1="49.9517" y1="5.75391" x2="80.0187" y2="7.45893" gradientUnits="userSpaceOnUse">
<stop stop-color="#A09EFF"/>
<stop offset="1" stop-color="#18173F"/>
<stop offset="1" stop-color="#26247C"/>
</linearGradient>
<linearGradient id="paint1_linear_132_325" x1="34.6848" y1="0" x2="34.6848" y2="68.3153" gradientUnits="userSpaceOnUse">
<stop stop-color="#F3F2FC"/>
<stop offset="1" stop-color="#ACA5EF"/>
</linearGradient>
<linearGradient id="paint2_linear_132_325" x1="1.05029" y1="1.06274" x2="77.0502" y2="12.197" gradientUnits="userSpaceOnUse">
<stop stop-color="#716FD2"/>
<stop offset="1" stop-color="#302E94"/>
</linearGradient>
<linearGradient id="paint3_linear_132_325" x1="21.3632" y1="22.9942" x2="24.1777" y2="12.4927" gradientUnits="userSpaceOnUse">
<stop stop-color="#E2AAAD"/>
<stop offset="0.21" stop-color="#E6B7B8"/>
<stop offset="0.45" stop-color="#EDCAC8"/>
<stop offset="0.75" stop-color="#E8BABB"/>
<stop offset="1" stop-color="#E2AAAD"/>
</linearGradient>
<linearGradient id="paint4_linear_132_325" x1="18.9285" y1="9.93791" x2="25.7878" y2="24.6498" gradientUnits="userSpaceOnUse">
<stop stop-color="#FDF8F7"/>
<stop offset="1" stop-color="#F8EBE8"/>
</linearGradient>
<linearGradient id="paint5_linear_132_325" x1="19.1998" y1="10.5173" x2="25.521" y2="24.0703" gradientUnits="userSpaceOnUse">
<stop stop-color="#FDF8F7"/>
<stop offset="1" stop-color="#F8EBE8"/>
</linearGradient>
<linearGradient id="paint6_linear_132_325" x1="20.9867" y1="12.3309" x2="23.6694" y2="22.3357" gradientUnits="userSpaceOnUse">
<stop stop-color="#F0D7D1"/>
<stop offset="1" stop-color="#FCF7F6"/>
</linearGradient>
<linearGradient id="paint7_linear_132_325" x1="20.1475" y1="9.03866" x2="24.5799" y2="25.5791" gradientUnits="userSpaceOnUse">
<stop stop-color="white"/>
<stop offset="1" stop-color="#ECCCC4"/>
</linearGradient>
<linearGradient id="paint8_linear_132_325" x1="43.6381" y1="8.6097" x2="46.1817" y2="14.0655" gradientUnits="userSpaceOnUse">
<stop stop-color="#FDF8F7"/>
<stop offset="1" stop-color="#F8EBE8"/>
</linearGradient>
<linearGradient id="paint9_linear_132_325" x1="27.0672" y1="16.3344" x2="35.804" y2="35.076" gradientUnits="userSpaceOnUse">
<stop stop-color="white"/>
<stop offset="1" stop-color="#ECCCC4"/>
</linearGradient>
<linearGradient id="paint10_linear_132_325" x1="27.436" y1="17.1245" x2="35.4391" y2="34.2858" gradientUnits="userSpaceOnUse">
<stop stop-color="#FDF8F7"/>
<stop offset="1" stop-color="#F8EBE8"/>
</linearGradient>
<linearGradient id="paint11_linear_132_325" x1="20.1364" y1="41.7208" x2="47.9647" y2="13.8962" gradientUnits="userSpaceOnUse">
<stop stop-color="#ECBEB9"/>
<stop offset="1" stop-color="#F1DBD7"/>
</linearGradient>
<linearGradient id="paint12_linear_132_325" x1="39.5893" y1="39.7792" x2="42.4038" y2="29.274" gradientUnits="userSpaceOnUse">
<stop stop-color="#E2AAAD"/>
<stop offset="0.21" stop-color="#E6B7B8"/>
<stop offset="0.45" stop-color="#EDCAC8"/>
<stop offset="0.75" stop-color="#E8BABB"/>
<stop offset="1" stop-color="#E2AAAD"/>
</linearGradient>
<linearGradient id="paint13_linear_132_325" x1="41.0455" y1="44.6819" x2="46.0573" y2="25.9779" gradientUnits="userSpaceOnUse">
<stop stop-color="#ECBEB9"/>
<stop offset="0.39" stop-color="#F1DBD7"/>
<stop offset="0.65" stop-color="#EDCAC8"/>
<stop offset="0.83" stop-color="#EECDCB"/>
<stop offset="0.96" stop-color="#F0D7D3"/>
<stop offset="1" stop-color="#F1DBD7"/>
</linearGradient>
<linearGradient id="paint14_linear_132_325" x1="37.091" y1="26.7757" x2="43.954" y2="41.4875" gradientUnits="userSpaceOnUse">
<stop stop-color="#FDF8F7"/>
<stop offset="1" stop-color="#F8EBE8"/>
</linearGradient>
<linearGradient id="paint15_linear_132_325" x1="38.3026" y1="25.85" x2="42.735" y2="42.3867" gradientUnits="userSpaceOnUse">
<stop stop-color="white"/>
<stop offset="1" stop-color="#ECCCC4"/>
</linearGradient>
<linearGradient id="paint16_linear_132_325" x1="39.2127" y1="29.0934" x2="41.8955" y2="39.0944" gradientUnits="userSpaceOnUse">
<stop stop-color="#F0D7D1"/>
<stop offset="1" stop-color="#FCF7F6"/>
</linearGradient>
</defs>
</svg>
