<svg width="282" height="280" viewBox="0 0 282 280" fill="none" xmlns="http://www.w3.org/2000/svg">
<g clip-path="url(#clip0_739_628)">
<path d="M242.636 236.718C237.006 242.645 231.679 246.468 227.47 249.488C177.995 284.988 119.453 274.639 107.011 272.112C88.6394 268.38 53.1254 261.167 27.4494 230.973C-11.3966 185.291 -5.35061 113.321 24.7834 65.8128C30.2954 57.1228 59.4084 8.8908 118.583 1.1558C154.394 -3.5252 196.137 5.9158 226.367 31.2418C289.818 84.4048 285.305 191.8 242.636 236.718Z" fill="url(#paint0_linear_739_628)"/>
<path d="M78.5388 17.9829C78.4786 17.987 78.4183 17.9763 78.3632 17.9517C78.3081 17.9272 78.2599 17.8894 78.2228 17.8419C77.9228 17.4599 77.6228 17.0819 77.3078 16.7159C77.2765 16.6793 77.2527 16.6368 77.2377 16.591C77.2228 16.5451 77.2171 16.4968 77.2208 16.4488C77.2246 16.4007 77.2378 16.3539 77.2597 16.3109C77.2815 16.2679 77.3116 16.2297 77.3483 16.1984C77.3849 16.1671 77.4274 16.1433 77.4732 16.1284C77.519 16.1135 77.5674 16.1077 77.6154 16.1115C77.6635 16.1152 77.7103 16.1284 77.7533 16.1503C77.7962 16.1721 77.8344 16.2023 77.8658 16.2389C78.1858 16.6129 78.5008 17.0009 78.8038 17.3919C78.8333 17.43 78.8551 17.4735 78.8678 17.52C78.8805 17.5665 78.884 17.615 78.878 17.6629C78.8719 17.7107 78.8565 17.7569 78.8326 17.7987C78.8088 17.8406 78.7769 17.8774 78.7388 17.9069C78.681 17.9513 78.6114 17.9777 78.5388 17.9829Z" fill="#91B3FA"/>
<path d="M56.2485 67.7651C55.6935 67.8101 55.1205 67.8281 54.5615 67.8361C54.5133 67.8369 54.4654 67.8282 54.4206 67.8105C54.3757 67.7928 54.3348 67.7664 54.3002 67.7329C54.2656 67.6993 54.2379 67.6593 54.2187 67.6151C54.1995 67.5709 54.1893 67.5233 54.1885 67.4751C54.1882 67.378 54.2259 67.2846 54.2935 67.2149C54.3612 67.1452 54.4534 67.1047 54.5505 67.1021C55.0965 67.0941 55.6595 67.0671 56.1975 67.0321C56.5975 67.0041 57.0035 66.9681 57.4075 66.9231C57.4553 66.917 57.5038 66.9207 57.5502 66.9339C57.5965 66.9471 57.6397 66.9695 57.6771 66.9999C57.7145 67.0303 57.7453 67.068 57.7677 67.1106C57.7901 67.1533 57.8037 67.2001 57.8075 67.2481C57.8167 67.3441 57.7878 67.4399 57.727 67.5147C57.6662 67.5896 57.5783 67.6375 57.4825 67.6481C57.0735 67.7001 56.6565 67.7361 56.2485 67.7651ZM62.0965 66.7821C62.0051 66.7892 61.9143 66.7618 61.8421 66.7053C61.7699 66.6488 61.7214 66.5673 61.7063 66.4769C61.6911 66.3865 61.7103 66.2937 61.7601 66.2168C61.81 66.1398 61.8868 66.0843 61.9755 66.0611C62.8655 65.8221 63.7585 65.5381 64.6285 65.2181L64.7045 65.1901C64.7948 65.1614 64.8927 65.1686 64.9778 65.2102C65.0629 65.2519 65.1287 65.3247 65.1614 65.4137C65.1941 65.5026 65.1913 65.6007 65.1535 65.6876C65.1157 65.7745 65.0459 65.8434 64.9585 65.8801L64.8825 65.9071C63.9915 66.2351 63.0825 66.5261 62.1665 66.7701C62.1437 66.777 62.1202 66.781 62.0965 66.7821ZM69.1315 63.9391C69.0486 63.9434 68.9668 63.9196 68.8991 63.8715C68.8315 63.8235 68.7821 63.754 68.7589 63.6743C68.7358 63.5947 68.7402 63.5095 68.7716 63.4327C68.8029 63.3559 68.8592 63.2919 68.9315 63.2511C69.7655 62.7891 70.5845 62.2821 71.3665 61.7511C71.4468 61.6961 71.5458 61.6752 71.6415 61.6931C71.7372 61.711 71.8219 61.7662 71.877 61.8466C71.932 61.927 71.9529 62.0259 71.935 62.1216C71.917 62.2174 71.8618 62.3021 71.7815 62.3571C70.9815 62.9051 70.1415 63.4241 69.2885 63.8971C69.2398 63.9224 69.1862 63.9367 69.1315 63.9391ZM75.2605 59.4691C75.1848 59.4745 75.1093 59.4564 75.0444 59.4171C74.9795 59.3779 74.9283 59.3195 74.898 59.25C74.8676 59.1805 74.8595 59.1033 74.8748 59.029C74.8901 58.9547 74.9281 58.8869 74.9835 58.8351C75.6755 58.1851 76.3455 57.4941 76.9745 56.7801C77.0389 56.707 77.1298 56.6626 77.227 56.6565C77.3242 56.6504 77.4199 56.6832 77.493 56.7476C77.566 56.812 77.6105 56.9029 77.6166 57.0001C77.6227 57.0974 77.5899 57.193 77.5255 57.2661C76.8815 57.9971 76.1955 58.7041 75.4865 59.3661C75.4257 59.426 75.3456 59.4625 75.2605 59.4691ZM80.1055 53.6351C80.0375 53.6398 79.9696 53.6256 79.9093 53.5939C79.849 53.5622 79.7987 53.5144 79.764 53.4558C79.7293 53.3971 79.7117 53.33 79.713 53.2619C79.7143 53.1938 79.7346 53.1274 79.7715 53.0701C80.2845 52.2701 80.7715 51.4371 81.2035 50.5921C81.2252 50.5487 81.2554 50.51 81.2922 50.4783C81.3291 50.4466 81.3718 50.4226 81.418 50.4076C81.4642 50.3925 81.5129 50.3868 81.5614 50.3908C81.6098 50.3947 81.6569 50.4082 81.7001 50.4305C81.7432 50.4528 81.7815 50.4835 81.8128 50.5207C81.844 50.5579 81.8675 50.601 81.8819 50.6473C81.8964 50.6937 81.9015 50.7425 81.897 50.7909C81.8924 50.8392 81.8783 50.8862 81.8555 50.9291C81.4085 51.7951 80.9155 52.6481 80.3895 53.4671C80.3585 53.5153 80.3167 53.5555 80.2674 53.5847C80.2181 53.6139 80.1626 53.6311 80.1055 53.6351ZM83.3965 46.8001C83.348 46.8032 83.2994 46.7967 83.2535 46.7811C83.1613 46.7499 83.0853 46.6834 83.042 46.5963C82.9987 46.5091 82.9917 46.4084 83.0225 46.3161C83.3225 45.4161 83.5925 44.4881 83.8115 43.5641C83.8226 43.5172 83.8428 43.4729 83.871 43.4337C83.8992 43.3946 83.9349 43.3614 83.9759 43.3361C84.017 43.3107 84.0626 43.2937 84.1102 43.286C84.1579 43.2783 84.2065 43.28 84.2535 43.2911C84.3004 43.3022 84.3447 43.3224 84.3839 43.3507C84.423 43.3789 84.4562 43.4145 84.4815 43.4556C84.5069 43.4966 84.5239 43.5422 84.5316 43.5899C84.5393 43.6375 84.5376 43.6862 84.5265 43.7331C84.3025 44.6791 84.0265 45.6331 83.7185 46.5511C83.6953 46.6197 83.6523 46.6799 83.595 46.7242C83.5378 46.7685 83.4687 46.7949 83.3965 46.8001ZM84.9255 39.3671C84.9072 39.3686 84.8888 39.3686 84.8705 39.3671C84.822 39.3633 84.7747 39.3499 84.7313 39.3277C84.688 39.3055 84.6496 39.2749 84.6182 39.2377C84.5869 39.2004 84.5632 39.1574 84.5487 39.1109C84.5341 39.0644 84.529 39.0156 84.5335 38.9671C84.6095 38.0171 84.6405 37.0541 84.6265 36.1051C84.6251 36.0567 84.6335 36.0086 84.6511 35.9635C84.6687 35.9184 84.6952 35.8773 84.7289 35.8426C84.7627 35.808 84.803 35.7804 84.8476 35.7616C84.8922 35.7428 84.9401 35.7331 84.9885 35.7331C85.0856 35.7318 85.1794 35.769 85.2491 35.8367C85.3188 35.9044 85.3589 35.9969 85.3605 36.0941C85.3745 37.0671 85.3435 38.0531 85.2605 39.0251C85.2541 39.1121 85.2168 39.194 85.1554 39.256C85.094 39.318 85.0124 39.3559 84.9255 39.3631V39.3671ZM84.5875 31.7841C84.4974 31.7905 84.408 31.7634 84.3366 31.7081C84.2652 31.6527 84.2167 31.573 84.2005 31.4841C84.0415 30.5471 83.8355 29.6061 83.5885 28.6841C83.5633 28.59 83.5765 28.4896 83.6253 28.4053C83.674 28.3209 83.7543 28.2593 83.8485 28.2341C83.9426 28.2089 84.0429 28.2221 84.1273 28.2709C84.2117 28.3197 84.2733 28.3999 84.2985 28.4941C84.5505 29.4351 84.7615 30.3941 84.9245 31.3581C84.9327 31.4056 84.9314 31.4543 84.9207 31.5014C84.9101 31.5484 84.8903 31.5929 84.8624 31.6323C84.8345 31.6717 84.7992 31.7052 84.7583 31.7309C84.7175 31.7566 84.672 31.774 84.6245 31.7821L84.5875 31.7841ZM82.4115 24.5131C82.3359 24.5183 82.2606 24.5 82.1959 24.4608C82.1311 24.4216 82.08 24.3634 82.0495 24.2941C81.6665 23.4201 81.2395 22.5571 80.7805 21.7281C80.7571 21.6859 80.7423 21.6395 80.7368 21.5915C80.7314 21.5436 80.7355 21.495 80.7488 21.4486C80.7621 21.4022 80.7844 21.3589 80.8145 21.3212C80.8446 21.2834 80.8818 21.252 80.924 21.2286C80.9662 21.2052 81.0126 21.1904 81.0606 21.185C81.1085 21.1795 81.1571 21.1836 81.2035 21.1969C81.2498 21.2102 81.2931 21.2326 81.3309 21.2626C81.3686 21.2927 81.4001 21.3299 81.4235 21.3721C81.8935 22.2201 82.3305 23.1041 82.7235 23.9991C82.7622 24.0884 82.764 24.1894 82.7286 24.28C82.6932 24.3707 82.6234 24.4437 82.5345 24.4831C82.4952 24.4985 82.4536 24.5073 82.4115 24.5091V24.5131Z" fill="#91B3FA"/>
<path d="M49.8681 67.5439C49.8425 67.5464 49.8167 67.5464 49.7911 67.5439C49.3051 67.4759 48.8121 67.395 48.3261 67.304C48.2304 67.286 48.1457 67.2308 48.0906 67.1505C48.0356 67.0701 48.0147 66.9712 48.0326 66.8754C48.0505 66.7797 48.1057 66.695 48.1861 66.6399C48.2664 66.5849 48.3654 66.564 48.4611 66.5819C48.9361 66.6709 49.4181 66.7499 49.8931 66.8159C49.9834 66.828 50.0659 66.8732 50.1247 66.9428C50.1835 67.0123 50.2144 67.1012 50.2113 67.1923C50.2082 67.2833 50.1713 67.3699 50.1079 67.4353C50.0445 67.5006 49.959 67.5401 49.8681 67.5459V67.5439Z" fill="#91B3FA"/>
<path d="M28.9946 54.9491C28.932 54.9535 28.8694 54.9417 28.8126 54.9149C28.7559 54.8881 28.707 54.8472 28.6706 54.7962C28.3856 54.3962 28.1036 53.9861 27.8336 53.5681C27.7805 53.4863 27.7622 53.3868 27.7825 53.2914C27.8029 53.1961 27.8603 53.1127 27.9421 53.0596C28.0239 53.0066 28.1234 52.9882 28.2188 53.0086C28.3142 53.0289 28.3975 53.0863 28.4506 53.1681C28.7136 53.5761 28.9886 53.9791 29.2676 54.3681C29.3056 54.4213 29.3287 54.4837 29.3347 54.5488C29.3406 54.6139 29.329 54.6794 29.3012 54.7386C29.2734 54.7978 29.2304 54.8485 29.1765 54.8855C29.1226 54.9225 29.0598 54.9445 28.9946 54.9491Z" fill="#91B3FA"/>
<path d="M25.952 49.67C25.8771 49.675 25.8025 49.657 25.7382 49.6184C25.6739 49.5798 25.6228 49.5224 25.592 49.454C25.283 48.77 24.992 48.064 24.734 47.354C24.663 47.16 24.594 46.965 24.526 46.771C24.4941 46.679 24.5 46.578 24.5424 46.4903C24.5849 46.4027 24.6605 46.3355 24.7525 46.3035C24.8445 46.2715 24.9455 46.2775 25.0332 46.3199C25.1209 46.3624 25.1881 46.438 25.22 46.53C25.286 46.72 25.354 46.911 25.42 47.101C25.674 47.79 25.956 48.479 26.257 49.148C26.2771 49.1919 26.2883 49.2393 26.2899 49.2876C26.2916 49.3358 26.2837 49.3839 26.2666 49.4291C26.2496 49.4743 26.2239 49.5156 26.1908 49.5508C26.1577 49.586 26.1181 49.6142 26.074 49.634C26.0358 49.6532 25.9945 49.6653 25.952 49.67ZM23.713 42.546C23.6231 42.5522 23.534 42.525 23.4628 42.4696C23.3916 42.4143 23.3433 42.3347 23.327 42.246C23.152 41.304 23.019 40.346 22.927 39.389C22.9181 39.292 22.9481 39.1953 23.0103 39.1204C23.0725 39.0454 23.162 38.9981 23.259 38.989C23.3558 38.982 23.4516 39.0127 23.5262 39.0748C23.6008 39.1369 23.6484 39.2255 23.659 39.322C23.744 40.254 23.874 41.192 24.045 42.111C24.054 42.1585 24.0535 42.2073 24.0435 42.2546C24.0336 42.3018 24.0144 42.3467 23.9871 42.3866C23.9598 42.4264 23.9249 42.4605 23.8844 42.4868C23.8439 42.5132 23.7985 42.5312 23.751 42.54C23.7385 42.5428 23.7258 42.5448 23.713 42.546ZM23.25 35.092H23.205C23.1077 35.0861 23.0167 35.0418 22.9521 34.9689C22.8874 34.8959 22.8543 34.8003 22.86 34.703C22.917 33.747 23.02 32.782 23.166 31.835C23.1734 31.7873 23.19 31.7416 23.2151 31.7004C23.2401 31.6591 23.273 31.6232 23.3119 31.5947C23.3508 31.5662 23.395 31.5457 23.4418 31.5342C23.4887 31.5228 23.5373 31.5207 23.585 31.528C23.6327 31.5354 23.6784 31.552 23.7197 31.5771C23.7609 31.6021 23.7968 31.635 23.8253 31.6739C23.8538 31.7128 23.8744 31.757 23.8858 31.8038C23.8973 31.8507 23.8994 31.8993 23.892 31.947C23.75 32.871 23.649 33.813 23.592 34.747C23.5871 34.8364 23.5495 34.9209 23.4865 34.9844C23.4235 35.048 23.3394 35.0863 23.25 35.092ZM24.596 27.748C24.5364 27.752 24.4768 27.7414 24.4222 27.7172C24.3677 27.6929 24.3198 27.6558 24.2828 27.6089C24.2458 27.5621 24.2207 27.5069 24.2098 27.4482C24.1988 27.3895 24.2024 27.329 24.22 27.272C24.505 26.358 24.836 25.446 25.204 24.562C25.222 24.5168 25.2488 24.4756 25.2828 24.4409C25.3168 24.4061 25.3574 24.3785 25.4022 24.3596C25.447 24.3406 25.4952 24.3308 25.5438 24.3306C25.5924 24.3305 25.6406 24.34 25.6855 24.3586C25.7305 24.3772 25.7713 24.4046 25.8055 24.4391C25.8398 24.4736 25.8668 24.5146 25.8851 24.5597C25.9034 24.6048 25.9125 24.653 25.912 24.7017C25.9115 24.7503 25.9013 24.7983 25.882 24.843C25.523 25.707 25.2 26.598 24.921 27.491C24.899 27.5616 24.8562 27.6239 24.7983 27.6698C24.7403 27.7156 24.6698 27.7429 24.596 27.748ZM27.658 20.939C27.5909 20.9438 27.5238 20.93 27.464 20.8992C27.4042 20.8684 27.354 20.8218 27.319 20.7644C27.2839 20.707 27.2652 20.6411 27.2651 20.5738C27.2649 20.5066 27.2832 20.4406 27.318 20.383C27.818 19.563 28.352 18.757 28.918 17.983C28.9466 17.9442 28.9826 17.9114 29.0239 17.8865C29.0652 17.8616 29.111 17.8451 29.1587 17.8379C29.2064 17.8307 29.255 17.833 29.3018 17.8446C29.3486 17.8562 29.3927 17.8769 29.4315 17.9055C29.4703 17.9341 29.5031 17.9701 29.528 18.0114C29.5529 18.0527 29.5694 18.0985 29.5766 18.1462C29.5838 18.1939 29.5815 18.2425 29.5699 18.2893C29.5583 18.3361 29.5376 18.3802 29.509 18.419C28.954 19.173 28.428 19.96 27.945 20.76C27.9152 20.8108 27.8735 20.8536 27.8235 20.8848C27.7735 20.9159 27.7168 20.9345 27.658 20.939ZM32.258 15.06C32.1834 15.0653 32.1089 15.0476 32.0445 15.0094C31.9802 14.9711 31.9291 14.9141 31.8981 14.846C31.8671 14.7779 31.8576 14.7019 31.871 14.6283C31.8844 14.5546 31.92 14.4868 31.973 14.434C32.648 13.757 33.365 13.104 34.102 12.491C34.1391 12.4601 34.1819 12.4369 34.228 12.4226C34.2741 12.4083 34.3226 12.4032 34.3706 12.4076C34.4187 12.412 34.4654 12.4258 34.5081 12.4483C34.5508 12.4707 34.5887 12.5014 34.6195 12.5385C34.6504 12.5756 34.6736 12.6184 34.6879 12.6645C34.7023 12.7106 34.7074 12.759 34.7029 12.8071C34.6985 12.8551 34.6847 12.9019 34.6622 12.9446C34.6398 12.9873 34.6091 13.0251 34.572 13.056C33.852 13.656 33.152 14.293 32.492 14.956C32.429 15.0176 32.346 15.0545 32.258 15.06ZM38.137 10.46C38.0546 10.466 37.9727 10.444 37.9043 10.3977C37.836 10.3513 37.7853 10.2832 37.7604 10.2045C37.7356 10.1257 37.738 10.0409 37.7673 9.96366C37.7966 9.88645 37.8511 9.82139 37.922 9.779C38.742 9.285 39.595 8.82401 40.458 8.40801C40.5455 8.36705 40.6456 8.36223 40.7366 8.39458C40.8276 8.42694 40.9022 8.49387 40.9442 8.58086C40.9861 8.66785 40.9921 8.76788 40.9609 8.85926C40.9296 8.95064 40.8635 9.02601 40.777 9.069C39.935 9.476 39.101 9.92601 38.3 10.409C38.2504 10.4387 38.1946 10.4565 38.137 10.461V10.46ZM44.949 7.40701C44.859 7.41358 44.7697 7.38677 44.6983 7.33168C44.6268 7.2766 44.5781 7.19711 44.5615 7.1084C44.5449 7.0197 44.5616 6.92799 44.6084 6.85081C44.6552 6.77363 44.7287 6.71638 44.815 6.69001C45.73 6.40501 46.669 6.159 47.605 5.96C47.6522 5.94996 47.7008 5.9493 47.7482 5.95806C47.7956 5.96682 47.8408 5.98483 47.8813 6.01106C47.9217 6.03729 47.9566 6.07123 47.9839 6.11094C48.0112 6.15065 48.0305 6.19536 48.0405 6.2425C48.0506 6.28965 48.0512 6.33831 48.0425 6.38571C48.0337 6.43311 48.0157 6.47832 47.9895 6.51876C47.9632 6.5592 47.9293 6.59408 47.8896 6.6214C47.8499 6.64873 47.8052 6.66796 47.758 6.67801C46.844 6.87801 45.927 7.113 45.033 7.391C45.0058 7.40003 44.9776 7.40574 44.949 7.40801V7.40701ZM55.149 6.029H55.105C54.169 5.997 53.221 6.00901 52.289 6.06401C52.1918 6.07024 52.0961 6.0376 52.023 5.97328C51.9498 5.90895 51.9053 5.81821 51.899 5.72101C51.8928 5.62381 51.9254 5.52811 51.9897 5.45497C52.0541 5.38183 52.1448 5.33724 52.242 5.331C53.198 5.274 54.169 5.26201 55.128 5.29501C55.2222 5.29796 55.3116 5.33702 55.3778 5.40409C55.4439 5.47116 55.4818 5.56112 55.4834 5.65532C55.4851 5.74952 55.4505 5.84075 55.3868 5.91013C55.323 5.97951 55.235 6.02172 55.141 6.02801L55.149 6.029Z" fill="#91B3FA"/>
<path d="M61.1998 6.84194C61.1629 6.84388 61.1259 6.84086 61.0899 6.83295C60.6229 6.72195 60.1459 6.62095 59.6709 6.53295C59.5751 6.51505 59.4904 6.45984 59.4354 6.37948C59.3803 6.29912 59.3594 6.20019 59.3774 6.10444C59.3953 6.0087 59.4505 5.92399 59.5308 5.86895C59.6112 5.81391 59.7101 5.79304 59.8059 5.81094C60.2919 5.90194 60.7809 6.00495 61.2589 6.11895C61.3448 6.13866 61.4208 6.18867 61.4729 6.25984C61.5251 6.33101 61.5498 6.41856 61.5426 6.50648C61.5355 6.59439 61.4969 6.67679 61.4339 6.73858C61.371 6.80037 61.2879 6.83742 61.1998 6.84295V6.84194Z" fill="#91B3FA"/>
<path d="M62.3993 14.3209C62.3303 14.2863 62.2523 14.2742 62.1761 14.2862C62.0999 14.2983 62.0293 14.3338 61.9743 14.3879L58.7453 17.5429C56.666 17.0453 54.5196 16.8899 52.3903 17.0829L49.6503 13.4999C49.6036 13.4385 49.5389 13.3933 49.4652 13.3705C49.3915 13.3477 49.3125 13.3486 49.2393 13.3729L44.1053 15.0789C44.0319 15.1032 43.9679 15.1497 43.9222 15.2121C43.8765 15.2745 43.8514 15.3496 43.8503 15.4269L43.7993 19.9379C41.9782 21.0575 40.3515 22.4663 38.9833 24.1089L34.5083 23.5089C34.4319 23.4985 34.3541 23.5121 34.2859 23.548C34.2176 23.5838 34.1622 23.6401 34.1273 23.7089L31.7003 28.5489C31.6657 28.618 31.6536 28.6962 31.6656 28.7726C31.6776 28.849 31.7132 28.9197 31.7673 28.9749L34.9223 32.2029C34.4248 34.2822 34.2694 36.4286 34.4623 38.5579L30.8733 41.2999C30.812 41.3468 30.7668 41.4118 30.744 41.4856C30.7213 41.5594 30.7221 41.6385 30.7463 41.7119L32.4533 46.8509C32.4778 46.9241 32.5244 46.9879 32.5868 47.0334C32.6492 47.0789 32.7241 47.1039 32.8013 47.1049L37.3123 47.1569C38.4322 48.9778 39.841 50.6044 41.4833 51.9729L40.8833 56.4479C40.8728 56.5242 40.8865 56.6018 40.9223 56.6699C40.9582 56.7381 41.0145 56.7933 41.0833 56.8279L45.9233 59.2549C45.9923 59.2896 46.0705 59.3019 46.1469 59.2901C46.2233 59.2783 46.294 59.2429 46.3493 59.1889L49.5773 56.0329C51.6565 56.5307 53.803 56.6864 55.9323 56.4939L58.6733 60.0779C58.72 60.1392 58.7848 60.1845 58.8585 60.2072C58.9322 60.23 59.0111 60.2292 59.0843 60.2049L64.2233 58.4979C64.2965 58.4734 64.3603 58.4267 64.4058 58.3644C64.4513 58.302 64.4763 58.2271 64.4773 58.1499L64.5283 53.6389C66.35 52.5192 67.977 51.11 69.3453 49.4669L73.8203 50.0669C73.8966 50.0773 73.9743 50.0637 74.0424 50.0278C74.1105 49.992 74.1658 49.9357 74.2003 49.8669L76.6273 45.0259C76.6621 44.957 76.6745 44.879 76.6626 44.8028C76.6508 44.7265 76.6154 44.6559 76.5613 44.6009L73.4053 41.3719C73.9032 39.2926 74.0589 37.1462 73.8663 35.0169L77.4503 32.2769C77.5117 32.2301 77.5569 32.1654 77.5797 32.0917C77.6025 32.018 77.6016 31.9391 77.5773 31.8659L75.8703 26.7269C75.846 26.6535 75.7994 26.5895 75.7371 26.5438C75.6747 26.4981 75.5996 26.4729 75.5223 26.4719L71.0113 26.4209C69.8936 24.5981 68.4861 22.9697 66.8443 21.5999L67.4443 17.1249C67.4546 17.0485 67.4408 16.9708 67.405 16.9025C67.3692 16.8343 67.313 16.7788 67.2443 16.7439L62.3993 14.3209Z" fill="#91B3FA"/>
<path d="M54.5399 42.138C54.0254 42.1732 53.5085 42.1344 53.0049 42.023C51.6893 41.7296 50.5335 40.9489 49.77 39.8379C49.0065 38.7269 48.692 37.3681 48.8897 36.0347C49.0874 34.7013 49.7826 33.4921 50.8356 32.6504C51.8885 31.8088 53.2211 31.397 54.5653 31.4979C55.9095 31.5988 57.1657 32.2049 58.0812 33.1943C58.9967 34.1838 59.5036 35.4831 59.5 36.8311C59.4964 38.1791 58.9826 39.4758 58.0618 40.4603C57.1411 41.4449 55.8817 42.0443 54.5369 42.138H54.5399ZM53.8649 32.538C52.7893 32.6123 51.7817 33.0912 51.0449 33.8783C50.3081 34.6655 49.8968 35.7025 49.8937 36.7807C49.8906 37.8589 50.296 38.8983 51.0283 39.6896C51.7606 40.481 52.7655 40.9656 53.8407 41.046C54.9159 41.1264 55.9816 40.7966 56.8234 40.1229C57.6653 39.4493 58.2207 38.4818 58.378 37.4151C58.5353 36.3485 58.2828 35.2618 57.6713 34.3738C57.0597 33.4858 56.1346 32.8624 55.0819 32.629C54.6825 32.5417 54.2727 32.5121 53.8649 32.541V32.538Z" fill="#BDD0FB"/>
<path d="M55.0366 50.4891C52.0261 50.6887 49.0344 49.884 46.5302 48.201C44.0261 46.5181 42.1509 44.0519 41.1986 41.1891C40.8341 40.0954 40.6089 38.9601 40.5286 37.81C40.3301 34.7998 41.1352 31.8088 42.8181 29.305C44.5009 26.8012 46.9663 24.9261 49.8286 23.973C49.9196 23.944 50.0096 23.914 50.1006 23.887C50.8429 23.6558 51.6037 23.4885 52.3746 23.387C52.4696 23.374 52.5656 23.3631 52.6616 23.3521L52.7806 24.4521C51.8963 24.5495 51.0248 24.7402 50.1806 25.0211C47.1983 26.0006 44.6974 28.0728 43.1806 30.8211C43.0946 30.9764 43.0116 31.1334 42.9316 31.292C41.9274 33.2858 41.4784 35.513 41.6316 37.7401C41.7053 38.7971 41.9119 39.8407 42.2466 40.8461C42.8547 42.6753 43.8772 44.3394 45.2343 45.7085C46.5914 47.0776 48.2464 48.1148 50.0702 48.7391C51.894 49.3634 53.8374 49.5579 55.7488 49.3076C57.6602 49.0572 59.488 48.3688 61.0895 47.2958C62.6911 46.2229 64.0231 44.7945 64.9819 43.1221C65.9406 41.4497 66.5 39.5784 66.6166 37.6542C66.7331 35.73 66.4036 33.8049 65.6537 32.029C64.9039 30.2531 63.7539 28.6744 62.2936 27.416L63.0116 26.58C64.3752 27.7559 65.4925 29.19 66.2992 30.7997C67.1059 32.4094 67.5859 34.1629 67.7116 35.9591C68.1306 42.0101 64.4336 47.826 58.4176 49.824C57.3231 50.1872 56.1871 50.4107 55.0366 50.4891Z" fill="#BDD0FB"/>
<path d="M45.3328 64.8002C45.2555 64.806 45.178 64.7916 45.1079 64.7585C45.0378 64.7254 44.9775 64.6746 44.9328 64.6112C44.5968 64.1342 44.2328 63.6682 43.8568 63.2262C43.8185 63.1813 43.7894 63.1294 43.7711 63.0733C43.7528 63.0172 43.7458 62.958 43.7504 62.8992C43.755 62.8404 43.7711 62.783 43.7979 62.7304C43.8246 62.6778 43.8615 62.631 43.9063 62.5927C43.9512 62.5543 44.0031 62.5252 44.0593 62.5069C44.1154 62.4887 44.1745 62.4816 44.2333 62.4862C44.2922 62.4908 44.3495 62.507 44.4021 62.5337C44.4547 62.5605 44.5015 62.5973 44.5398 62.6422C44.9398 63.1052 45.3148 63.5942 45.6678 64.0932C45.7018 64.1414 45.726 64.1959 45.7389 64.2535C45.7518 64.3111 45.7532 64.3706 45.7431 64.4288C45.733 64.4869 45.7115 64.5425 45.6799 64.5923C45.6483 64.6422 45.6071 64.6853 45.5588 64.7192C45.4925 64.7666 45.4142 64.7947 45.3328 64.8002Z" fill="#91B3FA"/>
<path d="M33.5813 94.9731C33.4678 94.9814 33.3554 94.9463 33.2668 94.8749C33.1782 94.8035 33.1201 94.7011 33.1041 94.5884C33.0881 94.4758 33.1154 94.3613 33.1806 94.268C33.2458 94.1748 33.344 94.1098 33.4553 94.0861C34.3138 93.8981 35.1584 93.6516 35.9833 93.3481C36.2753 93.2401 36.5626 93.1264 36.8453 93.0071C36.9549 92.9607 37.0785 92.9598 37.1889 93.0045C37.2993 93.0492 37.3873 93.1359 37.4338 93.2456C37.4802 93.3553 37.4811 93.4789 37.4364 93.5893C37.3917 93.6996 37.3049 93.7877 37.1953 93.8341C36.9003 93.9601 36.5953 94.0781 36.2953 94.1911C35.4312 94.5088 34.5465 94.7671 33.6473 94.9641C33.6256 94.9691 33.6035 94.9721 33.5813 94.9731ZM42.0733 90.7731C41.9791 90.7796 41.8852 90.7563 41.8051 90.7064C41.7249 90.6565 41.6625 90.5827 41.6267 90.4953C41.591 90.4079 41.5837 90.3115 41.6058 90.2197C41.628 90.128 41.6785 90.0455 41.7503 89.9841C42.6536 89.213 43.4819 88.3582 44.2243 87.4311C44.2606 87.3834 44.306 87.3434 44.358 87.3135C44.41 87.2837 44.4675 87.2645 44.527 87.2572C44.5865 87.2499 44.6469 87.2546 44.7045 87.271C44.7622 87.2874 44.816 87.3152 44.8628 87.3528C44.9095 87.3903 44.9483 87.4368 44.9768 87.4896C45.0053 87.5424 45.0229 87.6003 45.0286 87.66C45.0343 87.7197 45.0281 87.7799 45.0101 87.8371C44.9922 87.8943 44.963 87.9474 44.9243 87.9931C44.1459 88.9637 43.2781 89.859 42.3323 90.6671C42.259 90.7278 42.1682 90.7632 42.0733 90.7681V90.7731ZM47.5573 83.0481C47.4912 83.0532 47.4249 83.0433 47.3633 83.0191C47.2524 82.9756 47.1633 82.8899 47.1155 82.7808C47.0677 82.6717 47.0651 82.5481 47.1083 82.4371C47.5399 81.3298 47.867 80.1844 48.0853 79.0161C48.1071 78.899 48.1746 78.7954 48.2729 78.7281C48.3712 78.6608 48.4922 78.6352 48.6093 78.6571C48.7263 78.679 48.83 78.7465 48.8973 78.8448C48.9646 78.943 48.9901 79.064 48.9683 79.1811C48.7391 80.4043 48.3967 81.6034 47.9453 82.7631C47.9137 82.8417 47.8604 82.9097 47.7918 82.9593C47.7231 83.0088 47.6418 83.0379 47.5573 83.0431V83.0481ZM48.7423 73.6481C48.6275 73.6562 48.5141 73.6199 48.4254 73.5468C48.3366 73.4736 48.2793 73.3693 48.2653 73.2551C48.1199 72.0758 47.8641 70.9127 47.5013 69.7811C47.4708 69.6694 47.4847 69.5501 47.5399 69.4483C47.5951 69.3465 47.6875 69.2699 47.7978 69.2345C47.9081 69.199 48.0278 69.2075 48.132 69.2581C48.2362 69.3087 48.3169 69.3975 48.3573 69.5061C48.737 70.6915 49.0048 71.9098 49.1573 73.1451C49.1714 73.2632 49.1382 73.3821 49.0649 73.4758C48.9917 73.5695 48.8843 73.6304 48.7663 73.6451L48.7423 73.6481Z" fill="#91B3FA"/>
<path d="M27.669 95.3329C27.6447 95.3344 27.6203 95.3344 27.596 95.3329C26.987 95.2759 26.375 95.1899 25.776 95.0769C25.718 95.0659 25.6627 95.0436 25.6134 95.0113C25.564 94.979 25.5215 94.9373 25.4883 94.8885C25.455 94.8398 25.4317 94.7849 25.4196 94.7272C25.4076 94.6694 25.407 94.6098 25.418 94.5519C25.4289 94.4939 25.4512 94.4386 25.4835 94.3893C25.5159 94.3399 25.5576 94.2974 25.6063 94.2641C25.6551 94.2309 25.7099 94.2076 25.7677 94.1955C25.8254 94.1835 25.885 94.1829 25.943 94.1939C26.514 94.3019 27.098 94.3839 27.679 94.4379C27.7381 94.4385 27.7965 94.4508 27.8508 94.474C27.9052 94.4973 27.9544 94.531 27.9957 94.5732C28.037 94.6155 28.0696 94.6654 28.0916 94.7203C28.1136 94.7751 28.1246 94.8338 28.124 94.8929C28.1233 94.952 28.111 95.0104 28.0878 95.0647C28.0646 95.119 28.0309 95.1683 27.9886 95.2096C27.9464 95.2509 27.8964 95.2835 27.8416 95.3055C27.7867 95.3275 27.7281 95.3385 27.669 95.3379V95.3329Z" fill="#91B3FA"/>
<path d="M13.6869 87.319C13.6099 87.3249 13.5326 87.311 13.4626 87.2784C13.3925 87.2458 13.332 87.1957 13.2869 87.133C12.9319 86.638 12.5959 86.119 12.2869 85.59C12.2306 85.4874 12.2165 85.3669 12.2477 85.2542C12.2789 85.1414 12.3528 85.0452 12.4539 84.9862C12.5549 84.9271 12.675 84.9098 12.7885 84.938C12.9021 84.9662 13.0002 85.0376 13.0619 85.137C13.3569 85.642 13.6779 86.137 14.0169 86.609C14.0633 86.6741 14.0915 86.7503 14.0987 86.8298C14.1058 86.9094 14.0917 86.9894 14.0577 87.0617C14.0237 87.134 13.971 87.1959 13.9052 87.2412C13.8393 87.2864 13.7626 87.3132 13.6829 87.319H13.6869Z" fill="#91B3FA"/>
<path d="M10.557 80.4182C10.4507 80.4251 10.3454 80.3941 10.2597 80.3308C10.1741 80.2675 10.1136 80.1759 10.089 80.0722C9.84452 79.0322 9.68466 77.9741 9.61103 76.9082C9.60003 76.7522 9.59103 76.5972 9.58403 76.4422C9.58242 76.3241 9.6259 76.2099 9.70562 76.1227C9.78533 76.0356 9.89527 75.9821 10.013 75.9732C10.072 75.9705 10.1308 75.9795 10.1863 75.9996C10.2417 76.0198 10.2927 76.0507 10.3361 76.0905C10.3796 76.1304 10.4148 76.1784 10.4397 76.2319C10.4645 76.2854 10.4786 76.3433 10.481 76.4022C10.488 76.5502 10.497 76.7022 10.507 76.8462C10.5779 77.8638 10.7304 78.8741 10.963 79.8672C10.9903 79.9831 10.9705 80.1051 10.9079 80.2064C10.8452 80.3077 10.7449 80.3799 10.629 80.4072C10.6053 80.4123 10.5812 80.416 10.557 80.4182ZM10.675 71.0982C10.6266 71.1015 10.5779 71.0967 10.531 71.0842C10.4739 71.0694 10.4202 71.0435 10.3732 71.0079C10.3261 70.9724 10.2865 70.9278 10.2566 70.8769C10.2268 70.826 10.2073 70.7697 10.1993 70.7112C10.1913 70.6528 10.195 70.5933 10.21 70.5362C10.5203 69.3529 10.9381 68.2005 11.458 67.0932C11.4832 67.0398 11.5186 66.9919 11.5623 66.9522C11.6059 66.9125 11.657 66.8818 11.7125 66.8619C11.768 66.8419 11.8269 66.8331 11.8859 66.8359C11.9448 66.8387 12.0026 66.8531 12.056 66.8782C12.1094 66.9034 12.1573 66.9388 12.197 66.9824C12.2367 67.0261 12.2674 67.0772 12.2874 67.1327C12.3073 67.1882 12.3162 67.2471 12.3134 67.3061C12.3106 67.365 12.2962 67.4228 12.271 67.4762C11.7742 68.5335 11.3752 69.6341 11.079 70.7642C11.0555 70.8556 11.0038 70.9372 10.9313 70.9975C10.8588 71.0578 10.7691 71.0937 10.675 71.1002V71.0982ZM15.12 62.9062C15.0306 62.9124 14.9414 62.8916 14.8639 62.8467C14.7864 62.8017 14.7241 62.7345 14.6851 62.6539C14.646 62.5732 14.632 62.4827 14.6449 62.394C14.6577 62.3054 14.6967 62.2225 14.757 62.1562C15.5812 61.2517 16.4874 60.4255 17.464 59.6882C17.5111 59.6527 17.5647 59.6268 17.6218 59.612C17.6789 59.5972 17.7383 59.5938 17.7968 59.602C17.8552 59.6101 17.9114 59.6297 17.9622 59.6596C18.0131 59.6895 18.0575 59.7291 18.093 59.7762C18.1286 59.8233 18.1545 59.8769 18.1693 59.934C18.1841 59.9911 18.1875 60.0505 18.1793 60.1089C18.1711 60.1674 18.1515 60.2236 18.1216 60.2744C18.0917 60.3252 18.0521 60.3697 18.005 60.4052C17.0726 61.1089 16.2076 61.8976 15.421 62.7612C15.3434 62.8469 15.2354 62.8989 15.12 62.9062ZM22.87 57.7342C22.7621 57.7413 22.6553 57.7093 22.5692 57.644C22.483 57.5786 22.4233 57.4844 22.4011 57.3786C22.3788 57.2728 22.3955 57.1625 22.448 57.068C22.5006 56.9735 22.5854 56.9012 22.687 56.8642C23.8375 56.4479 25.0238 56.1383 26.231 55.9392C26.2895 55.9282 26.3496 55.9292 26.4076 55.9421C26.4657 55.955 26.5205 55.9795 26.5689 56.0142C26.6172 56.0488 26.658 56.0929 26.6888 56.1438C26.7196 56.1947 26.7397 56.2513 26.748 56.3102C26.7671 56.4277 26.7387 56.5479 26.6691 56.6445C26.5996 56.7411 26.4945 56.8061 26.377 56.8252C25.2241 57.0161 24.091 57.312 22.992 57.7092C22.9528 57.7234 22.9117 57.7318 22.87 57.7342Z" fill="#91B3FA"/>
<path d="M33.9201 57.1001C33.8748 57.1034 33.8293 57.0997 33.7851 57.0891C33.2181 56.9551 32.6381 56.8451 32.0621 56.7641C32.0027 56.7572 31.9452 56.7385 31.8931 56.709C31.841 56.6796 31.7953 56.64 31.7587 56.5926C31.7221 56.5452 31.6953 56.491 31.68 56.4331C31.6647 56.3753 31.6611 56.3149 31.6694 56.2556C31.6777 56.1963 31.6979 56.1393 31.7285 56.0879C31.7592 56.0365 31.7999 55.9918 31.8481 55.9563C31.8964 55.9209 31.9512 55.8954 32.0094 55.8815C32.0676 55.8675 32.1281 55.8654 32.1871 55.8751C32.7871 55.9601 33.3981 56.0751 33.9871 56.2151C34.0917 56.2397 34.184 56.3011 34.2473 56.3879C34.3105 56.4748 34.3405 56.5815 34.3318 56.6886C34.3231 56.7957 34.2763 56.8961 34.1998 56.9717C34.1233 57.0472 34.0223 57.0927 33.9151 57.1001H33.9201Z" fill="#91B3FA"/>
<path d="M34.6589 61.5771C34.6154 61.5554 34.5662 61.5477 34.5182 61.5553C34.4701 61.5628 34.4256 61.5851 34.3909 61.6191L32.3629 63.6001C31.0567 63.2875 29.7084 63.1899 28.3709 63.3111L26.6489 61.0591C26.6194 61.0204 26.5786 60.992 26.5321 60.9779C26.4856 60.9637 26.4359 60.9645 26.3899 60.9801L23.1619 62.0521C23.1157 62.0673 23.0754 62.0966 23.0467 62.1359C23.018 62.1752 23.0023 62.2224 23.0019 62.2711L22.9699 65.1051C21.8256 65.8083 20.8036 66.6932 19.9439 67.7251L17.1329 67.3501C17.0848 67.3436 17.0358 67.3523 16.9929 67.3751C16.95 67.3979 16.9154 67.4336 16.8939 67.4771L15.3689 70.5181C15.3472 70.5614 15.3397 70.6104 15.3472 70.6583C15.3547 70.7061 15.377 70.7505 15.4109 70.7851L17.3929 72.8141C17.0803 74.1202 16.9826 75.4685 17.1039 76.8061L14.8519 78.5271C14.8134 78.5566 14.785 78.5975 14.7709 78.6439C14.7567 78.6904 14.7574 78.74 14.7729 78.7861L15.8449 82.0151C15.8603 82.0611 15.8897 82.1011 15.9289 82.1296C15.9682 82.1581 16.0154 82.1737 16.0639 82.1741L18.8979 82.2061C19.6008 83.3505 20.4858 84.3726 21.5179 85.2321L21.1429 88.0441C21.1367 88.0922 21.1456 88.141 21.1683 88.1838C21.1911 88.2266 21.2265 88.2613 21.2699 88.2831L24.3109 89.8071C24.3541 89.829 24.4031 89.8368 24.4509 89.8294C24.4988 89.8221 24.5432 89.7999 24.5779 89.7661L26.6049 87.7841C27.9113 88.097 29.2599 88.1949 30.5979 88.0741L32.3189 90.3251C32.3485 90.3635 32.3893 90.3918 32.4357 90.4062C32.482 90.4205 32.5317 90.4201 32.5779 90.4051L35.8049 89.3331C35.8508 89.3175 35.8908 89.2881 35.9192 89.2489C35.9477 89.2097 35.9633 89.1625 35.9639 89.1141L35.9959 86.2801C37.1403 85.5768 38.1624 84.6915 39.0219 83.6591L41.8339 84.0341C41.8819 84.0407 41.9307 84.032 41.9736 84.0094C42.0165 83.9868 42.0512 83.9514 42.0729 83.9081L43.6049 80.8671C43.6267 80.8237 43.6345 80.7745 43.6271 80.7265C43.6198 80.6785 43.5977 80.634 43.5639 80.5991L41.5809 78.5711C41.8939 77.265 41.9915 75.9166 41.8699 74.5791L44.1219 72.8571C44.1603 72.8277 44.1887 72.7871 44.2031 72.7408C44.2174 72.6946 44.217 72.6451 44.2019 72.5991L43.1289 69.3701C43.1134 69.3242 43.0842 69.2842 43.0452 69.2556C43.0062 69.2269 42.9593 69.211 42.9109 69.2101L40.0769 69.1781C39.3733 68.0338 38.488 67.0117 37.4559 66.1521L37.8309 63.3411C37.8382 63.2927 37.83 63.2433 37.8073 63.1999C37.7846 63.1566 37.7488 63.1216 37.7049 63.1001L34.6589 61.5771Z" fill="#91B3FA"/>
<path d="M29.7451 79.3771C28.9253 79.4356 28.1094 79.219 27.4265 78.7617C26.7436 78.3043 26.2328 77.6323 25.9748 76.8519C25.7168 76.0716 25.7264 75.2274 26.0022 74.4532C26.2779 73.6789 26.804 73.0187 27.4971 72.5771C27.9719 72.2703 28.5106 72.0765 29.0719 72.0103C29.6332 71.9441 30.2022 72.0074 30.7353 72.1954C31.2683 72.3833 31.7512 72.6909 32.1469 73.0944C32.5426 73.498 32.8406 73.9869 33.018 74.5235C33.1954 75.0601 33.2475 75.6303 33.1703 76.1902C33.0931 76.7501 32.8887 77.2849 32.5727 77.7535C32.2567 78.2221 31.8375 78.6121 31.3474 78.8935C30.8573 79.175 30.3091 79.3404 29.7451 79.3771ZM28.2221 73.7141C27.8308 73.9638 27.5223 74.3239 27.3357 74.7489C27.1491 75.1739 27.0926 75.6448 27.1736 76.1018C27.2545 76.5589 27.4692 76.9817 27.7904 77.3168C28.1117 77.6519 28.5251 77.8842 28.9783 77.9843C29.4316 78.0845 29.9044 78.0479 30.3369 77.8794C30.7694 77.7108 31.1422 77.4178 31.4082 77.0373C31.6741 76.6569 31.8213 76.2061 31.8311 75.742C31.8409 75.2779 31.7128 74.8214 31.4631 74.4301C31.1276 73.9062 30.598 73.5366 29.9906 73.4024C29.3831 73.2682 28.7472 73.3803 28.2221 73.7141Z" fill="#BDD0FB"/>
<path d="M30.0556 84.6258C28.0917 84.7564 26.14 84.2317 24.5064 83.134C22.8728 82.0362 21.6496 80.4274 21.0286 78.5598C20.7912 77.8477 20.6443 77.1085 20.5916 76.3598C20.4406 74.0705 21.1795 71.8114 22.6541 70.0538C24.1286 68.2962 26.2249 67.176 28.5056 66.9268L28.6506 68.2658C28.1176 68.3243 27.5923 68.4393 27.0836 68.6088C25.2703 69.2051 23.7536 70.4718 22.8436 72.1498L22.8026 72.2258L22.7216 72.3828C22.1166 73.5833 21.8455 74.9245 21.9366 76.2658C21.981 76.9018 22.1053 77.5297 22.3066 78.1348C22.6724 79.2365 23.2879 80.2388 24.1049 81.0635C24.9219 81.8882 25.9184 82.513 27.0166 82.8892C28.1149 83.2653 29.2852 83.3827 30.4362 83.2321C31.5873 83.0815 32.688 82.667 33.6525 82.0209C34.617 81.3748 35.4192 80.5147 35.9965 79.5076C36.5739 78.5004 36.9107 77.3735 36.9808 76.2147C37.0509 75.056 36.8523 73.8967 36.4006 72.8273C35.9489 71.7579 35.2562 70.8074 34.3766 70.0498L35.2556 69.0278C36.5897 70.1789 37.5517 71.7006 38.0192 73.3995C38.4868 75.0985 38.439 76.8981 37.8817 78.5698C37.3245 80.2415 36.283 81.7099 34.8896 82.7885C33.4961 83.8671 31.8136 84.5073 30.0556 84.6278V84.6258Z" fill="#BDD0FB"/>
<path d="M123.158 185.214C123.458 185.265 123.767 185.314 124.073 185.365C170.28 192.671 213.726 160.726 221.112 114.013L136.532 100.639L123.158 185.214Z" fill="url(#paint1_linear_739_628)"/>
<path d="M136.925 100.535L80.0781 164.591C91.6281 174.86 106.098 182.13 122.452 184.935C122.967 185.023 123.482 185.105 123.996 185.184L136.925 100.535Z" fill="url(#paint2_linear_739_628)"/>
<path d="M136.532 100.638L52.6369 83.4849C52.5289 84.0109 52.4255 84.5389 52.3268 85.0689C46.6728 115.65 58.0269 145.436 79.6849 164.694L136.532 100.638Z" fill="#91B3FA"/>
<path d="M146.986 93.5931L230.024 109.7C237.54 70.9541 217.653 33.2511 183.882 16.6001L146.664 92.9471C146.634 93.0098 146.618 93.0787 146.618 93.1485C146.618 93.2183 146.635 93.287 146.666 93.3495C146.697 93.4119 146.742 93.4664 146.798 93.5086C146.853 93.5509 146.918 93.5798 146.986 93.5931Z" fill="url(#paint3_linear_739_628)"/>
<path d="M136.843 100.824L172.353 23.0561C165.585 19.8371 159.536 18.0441 151.801 16.6651C115.718 10.2341 80.8926 27.4191 63.1836 57.1491L136.843 100.824Z" fill="#7D97F4"/>
<path d="M63.2222 56.3872C58.1367 64.7728 54.5343 73.9721 52.5732 83.5812L136.449 100.821L63.2222 56.3872Z" fill="#BDD0FB"/>
<path d="M77.892 43.7822C77.7579 43.782 77.6269 43.7421 77.5155 43.6675C77.4041 43.5928 77.3173 43.4869 77.2661 43.3629C77.215 43.239 77.2017 43.1026 77.228 42.9711C77.2544 42.8396 77.3191 42.7189 77.414 42.6242C86.5295 33.55 97.6132 26.6981 109.805 22.6002C122.33 18.4112 135.893 17.2942 149.028 19.3712C150.202 19.5572 151.387 19.7712 152.549 20.0052C152.722 20.0436 152.874 20.1485 152.971 20.2974C153.067 20.4462 153.102 20.6271 153.067 20.8012C153.032 20.9752 152.93 21.1286 152.783 21.2283C152.636 21.3279 152.456 21.366 152.281 21.3342C151.137 21.1032 149.971 20.8932 148.816 20.7112C123.139 16.6472 96.805 25.2002 78.371 43.5842C78.3081 43.6471 78.2334 43.697 78.1512 43.7309C78.069 43.7649 77.981 43.7823 77.892 43.7822Z" fill="#91B3FA"/>
<path d="M79.4054 161.722C79.2312 161.722 79.0636 161.655 78.9374 161.535C62.1094 145.535 52.6874 123.108 53.0874 100.006C53.0906 99.8283 53.1633 99.659 53.2899 99.5345C53.4164 99.41 53.5869 99.3401 53.7644 99.3398H53.7764C53.9563 99.343 54.1277 99.4174 54.2527 99.5468C54.3778 99.6762 54.4464 99.8499 54.4434 100.03C54.0494 122.753 63.3184 144.812 79.8724 160.553C79.9705 160.646 80.0384 160.767 80.0673 160.899C80.0962 161.032 80.0848 161.17 80.0345 161.295C79.9842 161.421 79.8975 161.529 79.7853 161.605C79.6732 161.681 79.5409 161.722 79.4054 161.722Z" fill="white"/>
<path d="M156.524 181.766C156.36 181.765 156.201 181.705 156.077 181.596C155.954 181.487 155.875 181.336 155.854 181.173C155.833 181.01 155.873 180.844 155.965 180.708C156.057 180.572 156.196 180.474 156.355 180.432C172.755 176.216 187.255 167.155 198.264 154.232C198.321 154.162 198.392 154.104 198.471 154.061C198.551 154.018 198.639 153.992 198.729 153.984C198.819 153.976 198.91 153.985 198.996 154.013C199.082 154.04 199.162 154.084 199.231 154.143C199.299 154.201 199.356 154.273 199.396 154.354C199.437 154.435 199.461 154.523 199.467 154.613C199.474 154.703 199.462 154.794 199.432 154.879C199.403 154.965 199.357 155.044 199.296 155.111C188.101 168.25 173.369 177.46 156.696 181.746C156.64 181.76 156.582 181.767 156.524 181.766Z" fill="url(#paint4_linear_739_628)"/>
<path d="M166.857 60.6082C166.741 60.6079 166.628 60.5782 166.528 60.522C166.427 60.4658 166.342 60.3849 166.282 60.287C166.221 60.1891 166.186 60.0773 166.18 59.9623C166.175 59.8472 166.199 59.7326 166.25 59.6292L185.639 20.4492L186.271 20.8362C192.645 24.7362 198.517 29.2272 204.752 34.9712C204.817 35.0316 204.87 35.1042 204.908 35.1851C204.946 35.266 204.967 35.3535 204.971 35.4426C204.974 35.5317 204.96 35.6206 204.93 35.7044C204.899 35.7882 204.852 35.8651 204.792 35.9307C204.732 35.9964 204.659 36.0495 204.578 36.0871C204.497 36.1247 204.41 36.1459 204.321 36.1497C204.232 36.1534 204.143 36.1396 204.059 36.109C203.975 36.0784 203.898 36.0316 203.833 35.9712C197.871 30.4792 192.249 26.1472 186.195 22.3852L167.466 60.2302C167.409 60.3437 167.323 60.4392 167.215 60.506C167.107 60.5728 166.983 60.6082 166.857 60.6082Z" fill="#91B3FA"/>
<path d="M195.678 99.9002C195.636 99.9002 195.594 99.8961 195.552 99.8882L151.826 91.7182C151.67 91.6892 151.523 91.6246 151.397 91.5292C151.271 91.4339 151.168 91.3106 151.097 91.1689C151.026 91.0272 150.989 90.871 150.989 90.7127C150.989 90.5543 151.026 90.3981 151.096 90.2562L155.041 82.2872C155.078 82.204 155.132 82.1293 155.199 82.0673C155.266 82.0054 155.344 81.9576 155.43 81.9267C155.516 81.8959 155.607 81.8826 155.698 81.8878C155.789 81.893 155.878 81.9164 155.96 81.9568C156.042 81.9972 156.114 82.0536 156.174 82.1227C156.233 82.1918 156.278 82.2722 156.306 82.359C156.333 82.4459 156.343 82.5374 156.335 82.6282C156.326 82.7189 156.299 82.807 156.256 82.8872L152.505 90.4642L195.805 98.5532C195.972 98.5836 196.121 98.6752 196.223 98.8101C196.326 98.9449 196.374 99.1133 196.359 99.2819C196.343 99.4506 196.265 99.6074 196.14 99.7214C196.015 99.8355 195.851 99.8985 195.682 99.8982L195.678 99.9002Z" fill="#91B3FA"/>
<path d="M179.683 251.36L231.475 152.136H220.864C218.907 152.136 217.831 149.861 219.072 148.348L274.272 81.07C276.664 78.154 281.39 80.003 281.172 83.77L277.292 149.56C277.239 150.452 277.005 151.324 276.604 152.123C276.203 152.922 275.643 153.631 274.959 154.206C274.275 154.781 273.481 155.21 272.625 155.468C271.769 155.726 270.87 155.807 269.982 155.705L262.582 154.858L211.192 266.145C210.537 267.564 209.489 268.766 208.172 269.608C206.856 270.45 205.326 270.898 203.763 270.898H185.952L179.683 251.36Z" fill="url(#paint5_linear_739_628)"/>
<path d="M136.86 181.769L173.425 262.993C174.485 265.349 176.203 267.348 178.372 268.751C180.541 270.153 183.069 270.9 185.652 270.9H204.505C205.733 270.9 206.939 270.571 207.997 269.948C209.056 269.325 209.928 268.43 210.523 267.356L211.194 266.147C210.201 266.147 209.227 265.873 208.38 265.354C207.533 264.835 206.846 264.093 206.394 263.208L157.673 167.75L136.86 181.769Z" fill="url(#paint6_linear_739_628)"/>
<path d="M162.594 177.392C161.727 176.708 160.727 176.21 159.658 175.932C158.59 175.653 157.474 175.598 156.384 175.772C155.293 175.945 154.249 176.342 153.319 176.939C152.39 177.535 151.593 178.318 150.981 179.237L97.221 260.008C95.1009 263.193 92.2267 265.805 88.8539 267.612C85.4811 269.418 81.7142 270.364 77.888 270.364H70.324L64.167 252.629C64.167 252.629 114.146 176 127.027 164.4C127.027 164.4 139.856 152.838 152.504 161.58C155.846 163.889 158.383 167.18 159.932 170.94L162.594 177.392Z" fill="url(#paint7_linear_739_628)"/>
<path d="M5.69629 204.932C5.69629 204.932 14.6963 193.684 32.1333 191.932C32.1333 191.932 40.4153 194.754 56.9163 224.32C73.4173 253.886 84.3693 267.37 97.2213 260.006L96.1573 261.772C94.4337 264.634 91.9995 267.002 89.091 268.646C86.1824 270.29 82.8983 271.154 79.5573 271.155H72.4453C64.6193 271.155 57.8233 259.1 53.2533 252.747C40.4113 234.9 13.5853 207.7 5.69629 204.932Z" fill="url(#paint8_linear_739_628)"/>
<path d="M274.94 104.567C274.921 104.569 274.901 104.569 274.882 104.567C274.816 104.56 274.751 104.539 274.693 104.507C274.634 104.475 274.583 104.432 274.541 104.379C274.5 104.327 274.469 104.267 274.45 104.203C274.432 104.139 274.426 104.072 274.434 104.005L274.798 100.792C274.822 100.667 274.892 100.555 274.994 100.479C275.097 100.402 275.224 100.368 275.351 100.381C275.478 100.395 275.596 100.456 275.68 100.552C275.764 100.648 275.808 100.773 275.805 100.9L275.441 104.112C275.428 104.236 275.37 104.351 275.277 104.435C275.185 104.519 275.065 104.566 274.94 104.567Z" fill="#91B3FA"/>
<path d="M228.861 145.117C228.766 145.117 228.673 145.09 228.593 145.039C228.512 144.989 228.448 144.917 228.406 144.832C228.364 144.747 228.347 144.651 228.357 144.557C228.367 144.463 228.403 144.373 228.461 144.298L274.043 85.071C274.297 84.7404 274.652 84.5021 275.054 84.3926C275.457 84.2831 275.884 84.3085 276.27 84.4648C276.657 84.6211 276.981 84.8998 277.194 85.2581C277.407 85.6165 277.497 86.0348 277.45 86.449L276.65 93.549C276.631 93.6795 276.561 93.7975 276.457 93.878C276.352 93.9586 276.22 93.9953 276.089 93.9805C275.958 93.9657 275.838 93.9006 275.754 93.7988C275.67 93.697 275.629 93.5666 275.639 93.435L276.439 86.335C276.46 86.1417 276.418 85.9467 276.319 85.7798C276.219 85.6128 276.067 85.4829 275.887 85.4101C275.707 85.3372 275.508 85.3253 275.32 85.3762C275.132 85.4271 274.967 85.538 274.848 85.692L229.266 144.92C229.218 144.982 229.157 145.032 229.086 145.066C229.016 145.1 228.939 145.118 228.861 145.117Z" fill="#91B3FA"/>
<path d="M125.452 207.207C125.36 207.207 125.269 207.182 125.19 207.135C125.111 207.087 125.046 207.019 125.003 206.938C124.959 206.856 124.939 206.765 124.944 206.672C124.949 206.58 124.979 206.491 125.031 206.415L148.605 171.471C149.015 170.863 149.578 170.375 150.238 170.056C150.897 169.737 151.63 169.598 152.36 169.654C153.091 169.709 153.794 169.957 154.398 170.372C155.001 170.787 155.485 171.355 155.798 172.017C155.856 172.139 155.863 172.279 155.817 172.405C155.772 172.532 155.678 172.636 155.556 172.694C155.434 172.752 155.294 172.758 155.167 172.713C155.04 172.668 154.937 172.574 154.879 172.452C154.642 171.952 154.278 171.523 153.822 171.21C153.366 170.896 152.835 170.709 152.283 170.667C151.732 170.626 151.179 170.73 150.681 170.972C150.183 171.213 149.757 171.581 149.448 172.04L125.874 206.983C125.828 207.052 125.765 207.109 125.691 207.148C125.617 207.187 125.535 207.207 125.452 207.207Z" fill="#91B3FA"/>
<path d="M119.326 216.288C119.235 216.287 119.145 216.262 119.067 216.215C118.988 216.167 118.924 216.1 118.881 216.019C118.838 215.938 118.818 215.848 118.822 215.756C118.826 215.665 118.855 215.576 118.905 215.5L120.417 213.259C120.455 213.203 120.503 213.156 120.558 213.119C120.614 213.083 120.676 213.057 120.742 213.044C120.807 213.032 120.875 213.032 120.94 213.045C121.006 213.059 121.068 213.085 121.123 213.122C121.178 213.16 121.226 213.208 121.262 213.263C121.299 213.319 121.325 213.381 121.337 213.447C121.35 213.512 121.35 213.58 121.336 213.645C121.323 213.71 121.297 213.772 121.259 213.828L119.748 216.069C119.701 216.137 119.638 216.192 119.565 216.23C119.491 216.269 119.409 216.288 119.326 216.288Z" fill="#91B3FA"/>
<path d="M194.53 68.0149C198.202 62.0034 196.306 54.1532 190.295 50.4809C184.283 46.8086 176.433 48.7049 172.761 54.7164C169.088 60.7278 170.985 68.5781 176.996 72.2504C183.008 75.9226 190.858 74.0264 194.53 68.0149Z" fill="url(#paint9_linear_739_628)"/>
<path d="M192.375 70.1002C197.19 65.2846 197.19 57.4771 192.375 52.6615C187.559 47.846 179.752 47.846 174.936 52.6615C170.121 57.4771 170.121 65.2846 174.936 70.1002C179.752 74.9158 187.559 74.9157 192.375 70.1002Z" fill="url(#paint10_linear_739_628)"/>
<path opacity="0.78" d="M173.306 57.0922C173.241 57.0951 173.177 57.0824 173.119 57.0552C173.02 57.0093 172.944 56.9262 172.906 56.824C172.869 56.7219 172.873 56.609 172.919 56.5102C173.816 54.5191 175.251 52.8176 177.062 51.597C178.874 50.3763 180.989 49.6849 183.172 49.6002C183.885 49.5698 184.599 49.6033 185.306 49.7002C185.359 49.7077 185.411 49.7258 185.457 49.7533C185.504 49.7807 185.545 49.8171 185.577 49.8604C185.61 49.9036 185.634 49.9528 185.647 50.0052C185.661 50.0576 185.664 50.1121 185.656 50.1657C185.649 50.2193 185.631 50.2708 185.603 50.3175C185.576 50.3641 185.539 50.4048 185.496 50.4374C185.453 50.4699 185.404 50.4936 185.351 50.5071C185.299 50.5207 185.244 50.5237 185.191 50.5162C184.533 50.4242 183.869 50.3908 183.206 50.4162C181.174 50.494 179.204 51.1371 177.518 52.2733C175.832 53.4094 174.497 54.9934 173.662 56.8472C173.631 56.917 173.581 56.9769 173.518 57.0201C173.456 57.0634 173.382 57.0883 173.306 57.0922Z" fill="white"/>
<path opacity="0.78" d="M191.315 69.0178C195.391 64.9419 195.391 58.3335 191.315 54.2576C187.239 50.1817 180.631 50.1817 176.555 54.2576C172.479 58.3335 172.479 64.9419 176.555 69.0178C180.631 73.0937 187.239 73.0937 191.315 69.0178Z" fill="white"/>
<path d="M183.231 69.4322L183.184 68.2982C182.089 68.303 181.001 68.1134 179.973 67.7382C179.826 67.6806 179.705 67.5721 179.631 67.4326C179.558 67.2931 179.537 67.1318 179.573 66.9782L179.818 65.9092C179.839 65.8172 179.88 65.7308 179.937 65.6559C179.995 65.581 180.068 65.5192 180.151 65.4748C180.234 65.4304 180.326 65.4043 180.421 65.3983C180.515 65.3924 180.609 65.4066 180.698 65.4402C181.643 65.8001 182.651 65.97 183.663 65.9402C184.802 65.8932 185.636 65.4722 185.603 64.6802C185.574 63.9662 184.903 63.5682 183.303 63.2082C181.019 62.6832 179.356 61.7652 179.275 59.7772C179.201 57.9772 180.458 56.5562 182.721 56.0962L182.674 54.9612C182.667 54.7859 182.729 54.615 182.848 54.486C182.967 54.357 183.132 54.2805 183.308 54.2732L183.975 54.2462C184.061 54.2426 184.148 54.2561 184.23 54.286C184.311 54.3159 184.386 54.3616 184.45 54.4205C184.514 54.4794 184.566 54.5503 184.602 54.6292C184.639 54.7081 184.659 54.7933 184.663 54.8802L184.706 55.9002C185.565 55.8863 186.422 56.0043 187.247 56.2502C187.405 56.2998 187.539 56.4075 187.621 56.5516C187.703 56.6957 187.728 56.8655 187.691 57.0272L187.466 58.0152C187.445 58.1051 187.406 58.1898 187.351 58.2637C187.296 58.3377 187.227 58.3993 187.146 58.4446C187.066 58.4899 186.977 58.5179 186.885 58.5268C186.794 58.5357 186.701 58.5252 186.614 58.4962C185.811 58.228 184.966 58.1101 184.121 58.1482C182.77 58.2042 182.406 58.7802 182.427 59.2822C182.452 59.9002 183.281 60.2912 185.06 60.7592C187.601 61.4092 188.686 62.4092 188.76 64.2822C188.831 66.0002 187.62 67.5972 185.16 68.0822L185.212 69.3522C185.219 69.5275 185.156 69.6984 185.037 69.8274C184.918 69.9564 184.753 70.0329 184.578 70.0402L183.911 70.0672C183.737 70.0721 183.568 70.0081 183.44 69.8893C183.313 69.7704 183.238 69.6062 183.231 69.4322Z" fill="url(#paint11_linear_739_628)"/>
<path d="M216.034 52.5261C227.531 52.5261 236.851 43.206 236.851 31.7091C236.851 20.2122 227.531 10.8921 216.034 10.8921C204.537 10.8921 195.217 20.2122 195.217 31.7091C195.217 43.206 204.537 52.5261 216.034 52.5261Z" fill="url(#paint12_linear_739_628)"/>
<path d="M230.264 45.9388C238.123 38.0799 238.123 25.3381 230.264 17.4792C222.405 9.62026 209.663 9.62026 201.804 17.4792C193.945 25.3381 193.945 38.0799 201.804 45.9388C209.663 53.7977 222.405 53.7977 230.264 45.9388Z" fill="url(#paint13_linear_739_628)"/>
<path opacity="0.78" d="M199.125 24.4238C199.065 24.4259 199.005 24.4139 198.95 24.3888C198.904 24.368 198.863 24.3382 198.828 24.3012C198.793 24.2642 198.766 24.2207 198.748 24.1733C198.73 24.1258 198.722 24.0752 198.724 24.0245C198.726 23.9738 198.737 23.924 198.758 23.8778C200.202 20.6727 202.511 17.934 205.426 15.97C208.341 14.006 211.746 12.8945 215.258 12.7608C216.404 12.7136 217.552 12.7695 218.688 12.9278C218.787 12.9455 218.875 13.0006 218.934 13.0816C218.992 13.1626 219.017 13.2632 219.004 13.3623C218.99 13.4615 218.938 13.5514 218.859 13.6132C218.781 13.675 218.681 13.7039 218.581 13.6938C217.491 13.5415 216.389 13.4876 215.289 13.5328C211.92 13.6617 208.653 14.7284 205.857 16.6129C203.06 18.4974 200.846 21.125 199.461 24.1998C199.432 24.2646 199.384 24.3197 199.325 24.3593C199.266 24.3988 199.197 24.4212 199.125 24.4238Z" fill="white"/>
<path opacity="0.78" d="M228.533 44.1735C235.185 37.5217 235.185 26.737 228.533 20.0852C221.881 13.4334 211.096 13.4334 204.445 20.0852C197.793 26.737 197.793 37.5217 204.445 44.1735C211.096 50.8253 221.881 50.8253 228.533 44.1735Z" fill="white"/>
<path d="M215.339 44.8488L215.263 42.9978C213.33 42.9978 211.402 42.6228 210.022 42.0848C209.784 41.9894 209.588 41.8117 209.469 41.5839C209.351 41.3562 209.319 41.0935 209.378 40.8438L209.778 39.0998C209.813 38.9495 209.879 38.8083 209.973 38.6859C210.067 38.5634 210.186 38.4624 210.322 38.3898C210.458 38.3171 210.608 38.2744 210.762 38.2646C210.916 38.2548 211.071 38.2781 211.215 38.3328C212.583 38.8418 214.262 39.2198 216.053 39.1458C217.912 39.0698 219.272 38.3818 219.219 37.0908C219.171 35.9248 218.072 35.2758 215.459 34.6908C211.731 33.8338 209.018 32.3358 208.885 29.0908C208.764 26.1598 210.815 23.8348 214.509 23.0838L214.433 21.2318C214.427 21.0902 214.449 20.9487 214.498 20.8155C214.546 20.6824 214.621 20.5601 214.717 20.4558C214.813 20.3515 214.929 20.2671 215.057 20.2076C215.186 20.1481 215.325 20.1145 215.467 20.1088L216.555 20.0638C216.841 20.0525 217.12 20.1552 217.33 20.3495C217.541 20.5438 217.666 20.8137 217.677 21.0998L217.746 22.7618C219.534 22.7618 220.846 23.0118 221.894 23.3328C222.152 23.414 222.37 23.5898 222.505 23.8249C222.639 24.06 222.679 24.3371 222.618 24.6008L222.251 26.2138C222.218 26.3606 222.154 26.4989 222.065 26.6197C221.975 26.7404 221.861 26.841 221.73 26.915C221.599 26.9889 221.453 27.0346 221.304 27.0491C221.154 27.0635 221.003 27.0464 220.86 26.9988C219.55 26.5611 218.171 26.3686 216.792 26.4308C214.586 26.5218 213.992 27.4618 214.027 28.2808C214.068 29.2888 215.42 29.9278 218.327 30.6928C222.474 31.7528 224.245 33.3848 224.371 36.4408C224.486 39.2408 222.51 41.8518 218.503 42.6478L218.588 44.7198C218.6 45.006 218.497 45.2851 218.303 45.4957C218.109 45.7063 217.839 45.8311 217.553 45.8428L216.465 45.8878C216.323 45.8939 216.181 45.8717 216.047 45.8227C215.913 45.7737 215.791 45.6988 215.686 45.6023C215.581 45.5057 215.497 45.3895 215.437 45.2602C215.378 45.1309 215.344 44.9911 215.339 44.8488Z" fill="url(#paint14_linear_739_628)"/>
<path d="M247.434 92.7209C255.799 84.3559 255.799 70.7935 247.434 62.4285C239.069 54.0635 225.506 54.0635 217.141 62.4285C208.776 70.7935 208.776 84.3559 217.141 92.7209C225.506 101.086 239.069 101.086 247.434 92.7209Z" fill="url(#paint15_linear_739_628)"/>
<path d="M246.93 92.2175C255.017 84.1305 255.017 71.0189 246.93 62.9319C238.843 54.845 225.732 54.845 217.645 62.9319C209.558 71.0189 209.558 84.1305 217.645 92.2175C225.732 100.304 238.843 100.304 246.93 92.2175Z" fill="url(#paint16_linear_739_628)"/>
<path opacity="0.78" d="M214.888 70.0682C214.822 70.0711 214.757 70.057 214.698 70.0272C214.639 69.9975 214.588 69.9531 214.551 69.8983C214.514 69.8435 214.492 69.7801 214.487 69.7143C214.481 69.6484 214.493 69.5823 214.52 69.5222C216.004 66.2266 218.379 63.4105 221.376 61.3907C224.373 59.3709 227.875 58.2275 231.486 58.0892C232.665 58.041 233.846 58.0989 235.014 58.2622C235.064 58.2692 235.113 58.286 235.157 58.3118C235.2 58.3375 235.238 58.3716 235.269 58.412C235.3 58.4525 235.322 58.4986 235.335 58.5477C235.347 58.5968 235.35 58.6479 235.343 58.6982C235.336 58.7484 235.319 58.7968 235.294 58.8405C235.268 58.8842 235.234 58.9224 235.193 58.953C235.153 58.9835 235.107 59.0058 235.058 59.0185C235.009 59.0313 234.957 59.0342 234.907 59.0272C233.785 58.8706 232.651 58.8153 231.518 58.8622C228.05 58.9948 224.687 60.0927 221.808 62.0323C218.93 63.9719 216.65 66.6763 215.224 69.8412C215.195 69.9065 215.148 69.9623 215.088 70.0023C215.029 70.0424 214.96 70.0652 214.888 70.0682Z" fill="white"/>
<path opacity="0.78" d="M245.15 90.4008C251.995 83.5561 251.995 72.4586 245.15 65.6139C238.305 58.7691 227.208 58.7691 220.363 65.6139C213.518 72.4586 213.518 83.5561 220.363 90.4008C227.208 97.2455 238.305 97.2455 245.15 90.4008Z" fill="white"/>
<path d="M231.572 91.1001L231.494 89.1941C229.505 89.1941 227.521 88.8091 226.101 88.2551C225.856 88.1574 225.653 87.9745 225.532 87.74C225.41 87.5056 225.377 87.2351 225.438 86.9781L225.849 85.1841C225.885 85.0294 225.953 84.8841 226.049 84.7581C226.146 84.632 226.268 84.5281 226.408 84.4533C226.549 84.3785 226.703 84.3347 226.861 84.3246C227.02 84.3146 227.179 84.3386 227.327 84.3951C228.735 84.9181 230.463 85.3071 232.306 85.2311C234.219 85.1531 235.619 84.4451 235.564 83.1161C235.515 81.9161 234.383 81.2481 231.695 80.6441C227.859 79.7631 225.067 78.2211 224.93 74.8811C224.806 71.8661 226.916 69.4731 230.717 68.7001L230.639 66.8001C230.633 66.6543 230.655 66.5087 230.706 66.3717C230.756 66.2347 230.832 66.1089 230.931 66.0015C231.03 65.8941 231.149 65.8073 231.282 65.746C231.414 65.6846 231.557 65.65 231.703 65.6441L232.823 65.5981C232.969 65.5921 233.114 65.6149 233.251 65.6651C233.388 65.7154 233.514 65.7922 233.621 65.8911C233.729 65.9901 233.815 66.1091 233.877 66.2416C233.938 66.3741 233.972 66.5173 233.978 66.6631L234.049 68.3731C235.889 68.3731 237.24 68.6311 238.317 68.9601C238.582 69.0438 238.805 69.2239 238.943 69.4647C239.081 69.7056 239.124 69.9895 239.062 70.2601L238.685 71.9201C238.651 72.0711 238.586 72.2132 238.493 72.3374C238.401 72.4616 238.283 72.565 238.148 72.641C238.014 72.7171 237.864 72.764 237.71 72.7788C237.556 72.7937 237.401 72.776 237.254 72.7271C235.906 72.2775 234.487 72.0799 233.067 72.1441C230.797 72.2371 230.188 73.2041 230.222 74.0441C230.265 75.0811 231.656 75.7441 234.644 76.5251C238.911 77.6171 240.733 79.2961 240.863 82.4411C240.981 85.3261 238.948 88.0081 234.825 88.8271L234.912 90.9591C234.924 91.2535 234.819 91.5407 234.619 91.7575C234.42 91.9743 234.142 92.1029 233.848 92.1151L232.728 92.1611C232.434 92.1731 232.148 92.0681 231.931 91.8693C231.714 91.6704 231.585 91.3939 231.572 91.1001Z" fill="url(#paint17_linear_739_628)"/>
<path d="M274.663 41.1966C274.864 31.7376 267.36 23.9062 257.901 23.7047C248.442 23.5033 240.61 31.0081 240.409 40.4671C240.207 49.9262 247.712 57.7575 257.171 57.959C266.63 58.1604 274.461 50.6556 274.663 41.1966Z" fill="url(#paint18_linear_739_628)"/>
<path d="M269.26 52.5459C275.728 46.0784 275.728 35.5925 269.26 29.1251C262.793 22.6576 252.307 22.6576 245.839 29.1251C239.372 35.5925 239.372 46.0784 245.839 52.5458C252.307 59.0133 262.793 59.0133 269.26 52.5459Z" fill="url(#paint19_linear_739_628)"/>
<path opacity="0.78" d="M243.639 34.944C243.573 34.947 243.508 34.9343 243.448 34.907C243.346 34.8606 243.267 34.7757 243.227 34.6709C243.188 34.5661 243.192 34.45 243.238 34.348C244.433 31.6932 246.346 29.4248 248.761 27.7978C251.175 26.1709 253.996 25.2501 256.906 25.139C257.855 25.0998 258.806 25.146 259.747 25.277C259.858 25.2925 259.958 25.3514 260.025 25.4408C260.093 25.5302 260.122 25.6426 260.106 25.7535C260.091 25.8644 260.032 25.9645 259.942 26.0319C259.853 26.0994 259.741 26.1285 259.63 26.113C258.739 25.9888 257.838 25.9449 256.94 25.982C254.186 26.0876 251.517 26.9595 249.232 28.4997C246.947 30.0399 245.137 32.1872 244.006 34.7C243.973 34.7706 243.921 34.8308 243.857 34.8739C243.792 34.9169 243.716 34.9412 243.639 34.944Z" fill="white"/>
<path opacity="0.78" d="M267.835 51.0927C273.309 45.6187 273.309 36.7436 267.835 31.2696C262.361 25.7957 253.486 25.7957 248.012 31.2696C242.538 36.7436 242.538 45.6187 248.012 51.0927C253.486 56.5666 262.361 56.5667 267.835 51.0927Z" fill="white"/>
<path d="M256.977 51.6502L256.915 50.1262C255.324 50.1262 253.737 49.8172 252.601 49.3752C252.406 49.2962 252.244 49.1497 252.147 48.9623C252.05 48.7748 252.023 48.5587 252.071 48.3532L252.4 46.9182C252.429 46.7945 252.484 46.6785 252.561 46.5778C252.638 46.4771 252.736 46.3941 252.848 46.3344C252.96 46.2746 253.084 46.2395 253.21 46.2313C253.337 46.2232 253.464 46.2422 253.582 46.2872C254.853 46.7704 256.206 46.9978 257.564 46.9562C259.094 46.8932 260.213 46.3282 260.17 45.2652C260.13 44.3052 259.225 43.7712 257.07 43.2882C254.003 42.5882 251.77 41.3502 251.66 38.6792C251.56 36.2672 253.249 34.3542 256.288 33.7352L256.226 32.2122C256.217 31.9767 256.301 31.7469 256.46 31.5735C256.62 31.4 256.842 31.297 257.077 31.2872L257.972 31.2502C258.09 31.2442 258.207 31.2616 258.317 31.3012C258.428 31.3408 258.529 31.4018 258.616 31.4809C258.703 31.5599 258.773 31.6553 258.823 31.7616C258.872 31.8679 258.9 31.9829 258.905 32.1002L258.961 33.4682C260.433 33.4682 261.513 33.6742 262.375 33.9372C262.588 34.0042 262.767 34.1489 262.878 34.3425C262.988 34.5361 263.021 34.7642 262.97 34.9812L262.67 36.3082C262.643 36.429 262.591 36.5428 262.517 36.6422C262.444 36.7416 262.35 36.8245 262.242 36.8854C262.134 36.9463 262.015 36.9838 261.892 36.9957C261.768 37.0075 261.644 36.9934 261.526 36.9542C260.449 36.5944 259.314 36.4361 258.178 36.4872C256.363 36.5622 255.878 37.3352 255.903 38.0092C255.937 38.8392 257.049 39.3652 259.439 39.9942C262.851 40.8672 264.309 42.2102 264.413 44.7252C264.507 47.0332 262.881 49.1782 259.583 49.8332L259.653 51.5332C259.658 51.6497 259.64 51.7662 259.6 51.8757C259.56 51.9853 259.499 52.0859 259.42 52.1718C259.341 52.2576 259.245 52.327 259.14 52.376C259.034 52.4249 258.919 52.4525 258.802 52.4572L257.902 52.4942C257.668 52.5039 257.439 52.4207 257.266 52.2626C257.093 52.1046 256.989 51.8844 256.977 51.6502Z" fill="url(#paint20_linear_739_628)"/>
<path d="M68.0481 270.809C63.9771 271.161 56.9111 271.733 51.3401 271.978C47.9911 272.125 46.0641 271.797 44.9531 271.353C44.9531 271.478 44.9591 271.596 44.9641 271.706C44.9794 271.991 45.0997 272.26 45.3018 272.461C45.5039 272.662 45.7734 272.78 46.0581 272.794C56.5841 273.382 64.9581 272.994 67.9361 272.816C68.0768 272.809 68.2132 272.766 68.3324 272.691C68.4516 272.616 68.5495 272.512 68.6166 272.388C68.6837 272.264 68.7178 272.125 68.7156 271.984C68.7134 271.844 68.675 271.706 68.6041 271.584C68.4378 271.313 68.252 271.054 68.0481 270.809Z" fill="url(#paint21_linear_739_628)"/>
<path d="M51.3404 271.978C56.9114 271.733 63.9774 271.161 68.0484 270.809C64.0484 265.898 51.3404 262.588 51.3404 262.588H47.7524C45.2844 266.145 44.9264 269.533 44.9524 271.353C46.0644 271.8 47.9914 272.125 51.3404 271.978Z" fill="url(#paint22_linear_739_628)"/>
<path d="M47.1475 256.73L47.4835 263.375C47.501 263.727 47.6403 264.061 47.8774 264.322C48.1146 264.582 48.4349 264.752 48.7835 264.802C49.6886 264.938 50.6129 264.862 51.4835 264.579C51.7882 264.477 52.0601 264.295 52.271 264.053C52.4818 263.81 52.6239 263.516 52.6825 263.2L53.8425 256.732L47.1475 256.73Z" fill="url(#paint23_linear_739_628)"/>
<path d="M5.4989 278.475C3.7339 278.157 2.9349 276.975 2.5989 275.704C2.5989 275.715 2.5939 275.727 2.5919 275.738C2.3319 277.075 2.9349 278.46 4.1389 279.119C5.5939 279.919 7.18491 280.051 8.41991 279.985C9.07114 279.955 9.70493 279.765 10.2649 279.431C10.825 279.098 11.2938 278.631 11.6299 278.072L11.6399 278.055C10.3109 278.905 8.4439 279.006 5.4989 278.475Z" fill="url(#paint24_linear_739_628)"/>
<path d="M13.8246 258.777H10.8656C6.35758 258.658 3.52659 270.945 2.60059 275.704C2.93559 276.971 3.73459 278.157 5.50059 278.475C8.44559 279.006 10.3126 278.905 11.6426 278.055C14.0776 273.913 15.2856 267.847 15.8656 264.307C16.5246 260.281 13.8246 258.777 13.8246 258.777Z" fill="url(#paint25_linear_739_628)"/>
<path d="M11.2458 252.609L9.60582 259.145C9.50911 259.535 9.54777 259.946 9.71547 260.311C9.88317 260.677 10.17 260.974 10.5288 261.155C11.4478 261.627 12.7418 262.123 13.9288 261.979C14.2023 261.943 14.4604 261.832 14.674 261.657C14.8876 261.482 15.0482 261.252 15.1378 260.991L17.5498 254.115L11.2458 252.609Z" fill="url(#paint26_linear_739_628)"/>
<path d="M69.0509 166.529C69.0509 166.529 54.3659 258.323 54.6079 258.829C54.6079 258.829 50.5519 260.673 46.1299 259.064C46.1299 259.064 47.4579 209.994 50.5699 191.179C50.5699 191.179 25.5079 235.038 17.5489 256.893C17.5489 256.893 13.3979 256.398 9.96191 254.136C9.96191 254.136 36.9469 175.192 44.1459 164.677L69.0509 166.529Z" fill="url(#paint27_linear_739_628)"/>
<path d="M51.1559 190.7C51.0749 190.7 50.9954 190.677 50.9269 190.634C50.8782 190.604 50.836 190.564 50.8026 190.518C50.7693 190.471 50.7455 190.419 50.7327 190.363C50.7199 190.307 50.7182 190.249 50.7279 190.193C50.7375 190.136 50.7583 190.082 50.7889 190.034L56.2769 181.268C56.3082 181.218 56.3494 181.175 56.3978 181.142C56.4463 181.108 56.5011 181.085 56.5589 181.073L60.5969 180.26C60.7098 180.237 60.8271 180.26 60.923 180.324C61.0189 180.388 61.0856 180.487 61.1084 180.6C61.1312 180.712 61.1083 180.83 61.0446 180.926C60.9809 181.022 60.8818 181.088 60.7689 181.111L56.9129 181.887L51.5239 190.5C51.4845 190.562 51.4301 190.613 51.3657 190.648C51.3013 190.683 51.2292 190.701 51.1559 190.7Z" fill="url(#paint28_linear_739_628)"/>
<path d="M136.439 76.644C136.439 76.644 126.53 78.829 120.503 81.612C119.308 82.1632 118.35 83.1247 117.803 84.322C116.003 88.271 110.603 98.172 100.148 102.897C101.654 104.897 104.08 109.055 105.136 116.044C111.418 111.369 116.841 103.561 119.444 90.7551C119.444 90.7551 121.427 91.833 123.9 90.632C125.207 89.997 126.716 89.0971 127.848 88.3891C128.983 87.6953 129.806 86.5917 130.148 85.307C130.579 83.616 130.325 82.129 130.325 80.533L135.418 78.9551C135.418 78.9551 136.95 78.377 136.439 76.644Z" fill="url(#paint29_linear_739_628)"/>
<path d="M105.142 116.044C104.086 109.055 101.66 104.896 100.154 102.897C93.6538 105.833 85.2058 106.771 74.4428 103.042C73.4502 102.699 72.4151 102.495 71.3668 102.435C65.6378 102.099 46.7578 101.486 31.1348 106.648C29.5143 107.182 28.0246 108.052 26.7628 109.2C25.501 110.349 24.4955 111.751 23.8118 113.314C19.5858 123.014 12.7438 145.099 31.7378 156.249C32.9597 153.206 34.496 150.298 36.3218 147.574C33.2628 142.415 32.3568 135.368 37.7848 126.191C41.7428 136.879 43.5998 152.473 43.9848 159.374C44.1117 161.646 43.7141 163.918 42.8228 166.012L42.7228 166.241C42.678 166.347 42.657 166.461 42.6613 166.576C42.6656 166.691 42.6952 166.804 42.7479 166.906C42.8005 167.008 42.875 167.098 42.9661 167.168C43.0571 167.238 43.1625 167.288 43.2748 167.313C53.9678 169.713 65.0898 169.063 68.4118 168.788C68.6997 168.765 68.9729 168.651 69.1923 168.463C69.4118 168.275 69.5663 168.023 69.6338 167.742C74.8338 145.832 74.8458 130.887 73.5728 121.442C78.4418 122.527 93.3148 124.846 105.142 116.044Z" fill="url(#paint30_linear_739_628)"/>
<path d="M73.5985 122.029C73.4934 122.029 73.3919 121.991 73.3128 121.921C73.2338 121.852 73.1825 121.756 73.1685 121.652C71.9475 112.427 69.4605 108.402 69.4365 108.362C69.406 108.314 69.3853 108.26 69.3756 108.204C69.3658 108.148 69.3672 108.091 69.3796 108.035C69.3921 107.98 69.4153 107.927 69.4481 107.881C69.4808 107.834 69.5224 107.795 69.5705 107.764C69.6185 107.734 69.6721 107.713 69.7282 107.703C69.7843 107.693 69.8417 107.695 69.8972 107.707C69.9528 107.72 70.0053 107.743 70.0518 107.776C70.0984 107.808 70.138 107.85 70.1685 107.898C70.2745 108.064 72.7785 112.098 74.0285 121.538C74.0361 121.595 74.0324 121.652 74.0178 121.707C74.0031 121.762 73.9777 121.814 73.9431 121.859C73.9084 121.904 73.8652 121.942 73.8158 121.971C73.7665 121.999 73.712 122.018 73.6555 122.025C73.6366 122.027 73.6175 122.029 73.5985 122.029Z" fill="url(#paint31_linear_739_628)"/>
<path d="M47.205 89.6719C47.205 89.6719 46.124 101.11 45.171 104.493C45.101 104.742 45.1167 105.008 45.2155 105.247C45.3143 105.487 45.4905 105.686 45.716 105.814C47.333 106.737 51.21 108.244 56.516 105.645C56.9346 105.438 57.2839 105.114 57.521 104.712C57.7581 104.31 57.8728 103.847 57.851 103.381L57.384 92.3279L47.205 89.6719Z" fill="url(#paint32_linear_739_628)"/>
<path d="M57.6194 75.04C57.6194 75.04 61.0784 82.988 61.3114 87.16C61.5444 91.332 62.4424 94.038 57.6194 94.878C52.7964 95.718 48.7324 93.315 46.5304 89.16C46.5304 89.16 43.0814 82.76 43.8554 80.135C44.6294 77.51 57.6194 75.04 57.6194 75.04Z" fill="url(#paint33_linear_739_628)"/>
<path d="M48.1797 86.1718L48.4537 86.0508C48.5366 86.0146 48.6112 85.9618 48.6729 85.8957C48.7345 85.8296 48.782 85.7515 48.8124 85.6664C48.8427 85.5812 48.8553 85.4907 48.8494 85.4005C48.8434 85.3103 48.819 85.2222 48.7777 85.1418C48.0977 83.8268 46.7717 80.8158 48.4837 80.1128C50.6917 79.2078 59.4367 77.4248 61.3227 74.3218C63.1367 71.3398 61.5297 67.4898 59.1147 66.3948C59.0378 66.3584 58.9499 66.3528 58.869 66.3792C58.7881 66.4056 58.7204 66.462 58.6797 66.5368L58.4797 66.9178C58.4489 66.9744 58.4019 67.0205 58.3449 67.0505C58.2879 67.0805 58.2232 67.093 58.1591 67.0864C58.095 67.0797 58.0343 67.0543 57.9846 67.0133C57.9349 66.9723 57.8984 66.9175 57.8797 66.8558C57.8624 66.7951 57.8279 66.7406 57.7804 66.6991C57.7329 66.6576 57.6743 66.6307 57.6118 66.6217C57.5493 66.6127 57.4855 66.622 57.4282 66.6485C57.3709 66.6749 57.3224 66.7174 57.2887 66.7708C56.7087 67.6998 55.1437 69.2048 50.9567 69.9768C45.0057 71.0768 41.0717 73.4838 40.9737 77.5958C40.9729 77.6544 40.9563 77.7118 40.9257 77.7619C40.8952 77.8119 40.8517 77.8529 40.7999 77.8805C40.7482 77.908 40.6899 77.9212 40.6313 77.9186C40.5727 77.9161 40.5159 77.8978 40.4667 77.8658C40.0267 77.5978 39.3237 77.4728 38.3847 78.2658C36.7497 79.6398 37.4187 83.2048 41.0017 86.1368C41.042 86.1683 41.0742 86.2089 41.0959 86.2552C41.1176 86.3015 41.1281 86.3522 41.1265 86.4033C41.125 86.4544 41.1114 86.5045 41.087 86.5494C41.0625 86.5942 41.0278 86.6328 40.9857 86.6618C40.3367 87.0838 39.3677 88.0898 41.8767 89.4308C44.4767 90.8178 46.4097 90.7048 47.1557 90.5818C47.2001 90.5744 47.2425 90.5579 47.2802 90.5334C47.3179 90.5089 47.3502 90.4769 47.375 90.4394C47.3997 90.4018 47.4165 90.3596 47.4242 90.3152C47.4319 90.2709 47.4304 90.2255 47.4197 90.1818L46.6197 86.5678C46.6089 86.5198 46.6091 86.47 46.6201 86.4221C46.6312 86.3741 46.6529 86.3293 46.6836 86.2909C46.7143 86.2525 46.7533 86.2215 46.7977 86.2002C46.842 86.1789 46.8906 86.1678 46.9397 86.1678L48.1797 86.1718Z" fill="url(#paint34_linear_739_628)"/>
<path d="M48.328 86.9349C48.328 86.9349 47.009 81.8579 44.728 83.2809C42.447 84.7039 45.909 88.9699 47.739 89.1599L48.328 86.9349Z" fill="url(#paint35_linear_739_628)"/>
<path d="M122.092 89.5742C122.01 89.5743 121.93 89.5512 121.86 89.5074C121.791 89.4637 121.735 89.4011 121.7 89.327C121.665 89.253 121.651 89.1704 121.661 89.089C121.671 89.0076 121.704 88.9307 121.756 88.8672C122.131 88.4062 125.456 84.3402 126.737 83.6162C127.203 83.3532 127.481 83.0812 127.537 82.8302C127.564 82.6915 127.543 82.5479 127.479 82.4222L123.572 83.2052L121.358 85.1052C121.315 85.1422 121.265 85.1704 121.211 85.1881C121.156 85.2058 121.099 85.2126 121.043 85.2082C120.986 85.2039 120.931 85.1884 120.88 85.1626C120.829 85.1369 120.784 85.1014 120.747 85.0582C120.71 85.015 120.682 84.9649 120.664 84.9108C120.646 84.8567 120.639 84.7997 120.644 84.743C120.648 84.6862 120.664 84.6309 120.689 84.5801C120.715 84.5294 120.751 84.4842 120.794 84.4472L123.094 82.4742C123.15 82.4235 123.219 82.389 123.294 82.3742L127.62 81.5072C127.704 81.4901 127.791 81.4984 127.87 81.531C127.949 81.5636 128.017 81.619 128.065 81.6902C128.382 82.1602 128.487 82.5972 128.385 83.0262C128.266 83.5332 127.867 83.9722 127.165 84.3692C126.201 84.9132 123.42 88.1932 122.43 89.4112C122.389 89.462 122.338 89.5031 122.28 89.5313C122.221 89.5595 122.157 89.5742 122.092 89.5742Z" fill="#F8A570"/>
<path d="M48.1603 161.746L63.4543 161.935L58.1053 156.9C57.4571 156.287 56.6224 155.909 55.7344 155.826C54.8464 155.743 53.956 155.96 53.2053 156.441C52.1766 157.1 51.2589 157.918 50.4863 158.864C50.4863 158.864 40.9463 155.378 36.3213 147.577C34.4955 150.301 32.9592 153.209 31.7373 156.252C35.8833 158.683 41.2573 160.6 48.1603 161.746Z" fill="url(#paint36_linear_739_628)"/>
<path d="M49.805 163.718C49.8347 163.719 49.8644 163.719 49.894 163.718L88.715 163.676C89.1709 163.676 89.6082 163.495 89.9305 163.172C90.2529 162.85 90.434 162.413 90.434 161.957C90.434 161.501 90.2529 161.064 89.9305 160.741C89.6082 160.419 89.1709 160.238 88.715 160.238L49.895 160.28C49.446 160.279 49.0145 160.454 48.6928 160.767C48.371 161.08 48.1846 161.507 48.1734 161.956C48.1622 162.405 48.327 162.84 48.6326 163.169C48.9383 163.498 49.3605 163.694 49.809 163.716L49.805 163.718Z" fill="url(#paint37_linear_739_628)"/>
<path d="M123.617 128.844H91.2866C90.122 128.841 88.9805 129.169 87.9942 129.788C87.0079 130.408 86.2172 131.294 85.7136 132.344L70.7676 163.7H110.945C111.693 163.702 112.425 163.48 113.046 163.062C113.666 162.644 114.148 162.05 114.428 161.356L126.018 132.34C126.687 130.661 125.439 128.844 123.617 128.844Z" fill="url(#paint38_linear_739_628)"/>
<path d="M105.676 146.481C106.384 144.33 105.877 142.229 104.543 141.79C103.209 141.35 101.552 142.737 100.843 144.888C100.134 147.039 100.641 149.14 101.976 149.579C103.31 150.019 104.967 148.632 105.676 146.481Z" fill="#91B3FA"/>
</g>
<defs>
<linearGradient id="paint0_linear_739_628" x1="310.068" y1="356.768" x2="64.9554" y2="52.3538" gradientUnits="userSpaceOnUse">
<stop stop-color="#DAE3FE"/>
<stop offset="1" stop-color="#E9EFFD"/>
</linearGradient>
<linearGradient id="paint1_linear_739_628" x1="216.916" y1="-16.1258" x2="146.409" y2="215.058" gradientUnits="userSpaceOnUse">
<stop stop-color="#FF928E"/>
<stop offset="1" stop-color="#FE7062"/>
</linearGradient>
<linearGradient id="paint2_linear_739_628" x1="80.0781" y1="142.859" x2="136.925" y2="142.859" gradientUnits="userSpaceOnUse">
<stop stop-color="#FEBBBA"/>
<stop offset="1" stop-color="#FF928E"/>
</linearGradient>
<linearGradient id="paint3_linear_739_628" x1="161.987" y1="132.099" x2="224.546" y2="36.1751" gradientUnits="userSpaceOnUse">
<stop stop-color="#4F52FF"/>
<stop offset="1" stop-color="#4042E2"/>
</linearGradient>
<linearGradient id="paint4_linear_739_628" x1="180.512" y1="142.354" x2="189.326" y2="63.7109" gradientUnits="userSpaceOnUse">
<stop stop-color="#FEBBBA"/>
<stop offset="1" stop-color="#FF928E"/>
</linearGradient>
<linearGradient id="paint5_linear_739_628" x1="278.987" y1="84.5179" x2="184.073" y2="284.516" gradientUnits="userSpaceOnUse">
<stop stop-color="#4F52FF"/>
<stop offset="1" stop-color="#4042E2"/>
</linearGradient>
<linearGradient id="paint6_linear_739_628" x1="199.965" y1="279.063" x2="145.051" y2="175.335" gradientUnits="userSpaceOnUse">
<stop stop-color="#4F52FF"/>
<stop offset="1" stop-color="#4042E2"/>
</linearGradient>
<linearGradient id="paint7_linear_739_628" x1="165.566" y1="145.808" x2="65.228" y2="269.875" gradientUnits="userSpaceOnUse">
<stop stop-color="#4F52FF"/>
<stop offset="1" stop-color="#4042E2"/>
</linearGradient>
<linearGradient id="paint8_linear_739_628" x1="76.0173" y1="257.609" x2="-17.1517" y2="161.46" gradientUnits="userSpaceOnUse">
<stop stop-color="#4F52FF"/>
<stop offset="1" stop-color="#4042E2"/>
</linearGradient>
<linearGradient id="paint9_linear_739_628" x1="167.045" y1="82.3582" x2="183.326" y2="61.8133" gradientUnits="userSpaceOnUse">
<stop stop-color="#E1473D"/>
<stop offset="1" stop-color="#E9605A"/>
</linearGradient>
<linearGradient id="paint10_linear_739_628" x1="194.286" y1="47.1258" x2="146.727" y2="126.019" gradientUnits="userSpaceOnUse">
<stop stop-color="#FF928E"/>
<stop offset="1" stop-color="#FE7062"/>
</linearGradient>
<linearGradient id="paint11_linear_739_628" x1="181.31" y1="78.4952" x2="189.784" y2="26.9712" gradientUnits="userSpaceOnUse">
<stop stop-color="#FF928E"/>
<stop offset="1" stop-color="#FE7062"/>
</linearGradient>
<linearGradient id="paint12_linear_739_628" x1="188.948" y1="65.9205" x2="215.519" y2="32.3918" gradientUnits="userSpaceOnUse">
<stop stop-color="#E1473D"/>
<stop offset="1" stop-color="#E9605A"/>
</linearGradient>
<linearGradient id="paint13_linear_739_628" x1="232.33" y1="8.07777" x2="154.714" y2="136.831" gradientUnits="userSpaceOnUse">
<stop stop-color="#FF928E"/>
<stop offset="1" stop-color="#FE7062"/>
</linearGradient>
<linearGradient id="paint14_linear_739_628" x1="67.2035" y1="310.077" x2="91.8942" y2="264.251" gradientUnits="userSpaceOnUse">
<stop stop-color="#FF928E"/>
<stop offset="1" stop-color="#FE7062"/>
</linearGradient>
<linearGradient id="paint15_linear_739_628" x1="206.43" y1="113.287" x2="233.866" y2="78.5807" gradientUnits="userSpaceOnUse">
<stop stop-color="#E1473D"/>
<stop offset="1" stop-color="#E9605A"/>
</linearGradient>
<linearGradient id="paint16_linear_739_628" x1="249.136" y1="53.4683" x2="169.27" y2="185.953" gradientUnits="userSpaceOnUse">
<stop stop-color="#FF928E"/>
<stop offset="1" stop-color="#FE7062"/>
</linearGradient>
<linearGradient id="paint17_linear_739_628" x1="49.0707" y1="317.702" x2="85.127" y2="270.813" gradientUnits="userSpaceOnUse">
<stop stop-color="#FF928E"/>
<stop offset="1" stop-color="#FE7062"/>
</linearGradient>
<linearGradient id="paint18_linear_739_628" x1="235.247" y1="69.0054" x2="257.114" y2="41.4136" gradientUnits="userSpaceOnUse">
<stop stop-color="#E1473D"/>
<stop offset="1" stop-color="#E9605A"/>
</linearGradient>
<linearGradient id="paint19_linear_739_628" x1="271.534" y1="21.4" x2="207.66" y2="127.357" gradientUnits="userSpaceOnUse">
<stop stop-color="#FF928E"/>
<stop offset="1" stop-color="#FE7062"/>
</linearGradient>
<linearGradient id="paint20_linear_739_628" x1="94.2039" y1="309.137" x2="122.703" y2="262.613" gradientUnits="userSpaceOnUse">
<stop stop-color="#FF928E"/>
<stop offset="1" stop-color="#FE7062"/>
</linearGradient>
<linearGradient id="paint21_linear_739_628" x1="44.9531" y1="271.959" x2="68.7201" y2="271.959" gradientUnits="userSpaceOnUse">
<stop stop-color="#53D8FF"/>
<stop offset="1" stop-color="#3840F7"/>
</linearGradient>
<linearGradient id="paint22_linear_739_628" x1="44.9524" y1="267.301" x2="68.0484" y2="267.301" gradientUnits="userSpaceOnUse">
<stop stop-color="#09005D"/>
<stop offset="1" stop-color="#1A0F91"/>
</linearGradient>
<linearGradient id="paint23_linear_739_628" x1="47.1475" y1="260.798" x2="53.8425" y2="260.798" gradientUnits="userSpaceOnUse">
<stop stop-color="#FEBBBA"/>
<stop offset="1" stop-color="#FF928E"/>
</linearGradient>
<linearGradient id="paint24_linear_739_628" x1="2.5339" y1="277.852" x2="11.6409" y2="277.852" gradientUnits="userSpaceOnUse">
<stop stop-color="#53D8FF"/>
<stop offset="1" stop-color="#3840F7"/>
</linearGradient>
<linearGradient id="paint25_linear_739_628" x1="2.60059" y1="268.789" x2="15.9686" y2="268.789" gradientUnits="userSpaceOnUse">
<stop stop-color="#09005D"/>
<stop offset="1" stop-color="#1A0F91"/>
</linearGradient>
<linearGradient id="paint26_linear_739_628" x1="9.54882" y1="257.307" x2="17.5498" y2="257.307" gradientUnits="userSpaceOnUse">
<stop stop-color="#FEBBBA"/>
<stop offset="1" stop-color="#FF928E"/>
</linearGradient>
<linearGradient id="paint27_linear_739_628" x1="-144.125" y1="389.564" x2="156.888" y2="112.957" gradientUnits="userSpaceOnUse">
<stop stop-color="#09005D"/>
<stop offset="1" stop-color="#1A0F91"/>
</linearGradient>
<linearGradient id="paint28_linear_739_628" x1="52.8009" y1="191.592" x2="59.0379" y2="179.362" gradientUnits="userSpaceOnUse">
<stop stop-color="#4F52FF"/>
<stop offset="1" stop-color="#4042E2"/>
</linearGradient>
<linearGradient id="paint29_linear_739_628" x1="119.593" y1="88.783" x2="87.9064" y2="130.007" gradientUnits="userSpaceOnUse">
<stop stop-color="#FEBBBA"/>
<stop offset="1" stop-color="#FF928E"/>
</linearGradient>
<linearGradient id="paint30_linear_739_628" x1="-7.74021" y1="204.043" x2="63.4448" y2="120.654" gradientUnits="userSpaceOnUse">
<stop stop-color="#FF928E"/>
<stop offset="1" stop-color="#FE7062"/>
</linearGradient>
<linearGradient id="paint31_linear_739_628" x1="132.768" y1="22.0871" x2="27.0065" y2="182.763" gradientUnits="userSpaceOnUse">
<stop stop-color="#E1473D"/>
<stop offset="1" stop-color="#E9605A"/>
</linearGradient>
<linearGradient id="paint32_linear_739_628" x1="50.768" y1="121.558" x2="52.124" y2="89.0159" gradientUnits="userSpaceOnUse">
<stop stop-color="#FEBBBA"/>
<stop offset="1" stop-color="#FF928E"/>
</linearGradient>
<linearGradient id="paint33_linear_739_628" x1="58.3444" y1="82.036" x2="38.5654" y2="97.17" gradientUnits="userSpaceOnUse">
<stop stop-color="#FEBBBA"/>
<stop offset="1" stop-color="#FF928E"/>
</linearGradient>
<linearGradient id="paint34_linear_739_628" x1="44.4207" y1="70.0528" x2="62.8417" y2="93.7698" gradientUnits="userSpaceOnUse">
<stop stop-color="#09005D"/>
<stop offset="1" stop-color="#1A0F91"/>
</linearGradient>
<linearGradient id="paint35_linear_739_628" x1="55.89" y1="78.8299" x2="36.111" y2="93.9629" gradientUnits="userSpaceOnUse">
<stop stop-color="#FEBBBA"/>
<stop offset="1" stop-color="#FF928E"/>
</linearGradient>
<linearGradient id="paint36_linear_739_628" x1="32.6213" y1="177.019" x2="84.1463" y2="110.579" gradientUnits="userSpaceOnUse">
<stop stop-color="#FEBBBA"/>
<stop offset="1" stop-color="#FF928E"/>
</linearGradient>
<linearGradient id="paint37_linear_739_628" x1="43.5139" y1="153.851" x2="74.3604" y2="163.985" gradientUnits="userSpaceOnUse">
<stop stop-color="#09005D"/>
<stop offset="1" stop-color="#1A0F91"/>
</linearGradient>
<linearGradient id="paint38_linear_739_628" x1="85.6366" y1="133.466" x2="107.697" y2="156.783" gradientUnits="userSpaceOnUse">
<stop stop-color="#09005D"/>
<stop offset="1" stop-color="#1A0F91"/>
</linearGradient>
<clipPath id="clip0_739_628">
<rect width="280.941" height="280" fill="white" transform="translate(0.234375)"/>
</clipPath>
</defs>
</svg>
