<svg width="1663" height="1663" viewBox="0 0 1663 1663" fill="none" xmlns="http://www.w3.org/2000/svg">
<path d="M831.148 0L963.226 490.544C979.341 550.404 987.404 580.334 1003.31 604.803C1017.38 626.454 1035.84 644.912 1057.5 658.989C1081.96 674.892 1111.89 682.954 1171.75 699.069L1662.3 831.148L1171.75 963.226C1111.89 979.341 1081.96 987.404 1057.5 1003.31C1035.84 1017.38 1017.38 1035.84 1003.31 1057.5C987.404 1081.96 979.341 1111.89 963.226 1171.75L831.148 1662.3L699.069 1171.75C682.954 1111.89 674.892 1081.96 658.989 1057.5C644.912 1035.84 626.454 1017.38 604.803 1003.31C580.334 987.404 550.404 979.341 490.544 963.226L0 831.148L490.544 699.069C550.404 682.954 580.334 674.892 604.803 658.989C626.454 644.912 644.912 626.454 658.989 604.803C674.892 580.334 682.954 550.404 699.069 490.544L831.148 0Z" fill="#0C092A"/>
</svg>
