<svg width="13" height="14" viewBox="0 0 13 14" fill="none" xmlns="http://www.w3.org/2000/svg">
<path d="M8.54612 1.1665H6.59403C6.11849 1.1665 5.88068 1.1665 5.65687 1.22023C5.45848 1.26786 5.26883 1.34642 5.0948 1.45304C4.89861 1.57328 4.73048 1.74143 4.39415 2.07773L0.768346 5.70354M9.16199 5.73582H9.15551M7.89034 3.11095H8.67575C9.76475 3.11095 10.3092 3.11095 10.7252 3.32288C11.0911 3.5093 11.3885 3.80676 11.5749 4.17263C11.7869 4.58857 11.7869 5.13307 11.7869 6.22206V7.00749C11.7869 7.48303 11.7869 7.72084 11.7331 7.94464C11.6855 8.14304 11.6069 8.33269 11.5003 8.50672C11.3801 8.70291 11.2119 8.87104 10.8756 9.20737L8.80157 11.2814C8.03153 12.0514 7.64652 12.4365 7.20258 12.5807C6.812 12.7076 6.39136 12.7076 6.00078 12.5807C5.55686 12.4365 5.1718 12.0514 4.4018 11.2814L3.61637 10.496C2.84637 9.72601 2.46131 9.34095 2.3171 8.89703C2.19019 8.50646 2.19019 8.08581 2.3171 7.69524C2.46131 7.25132 2.84637 6.86625 3.61637 6.09625L5.69045 4.02217C6.02677 3.68588 6.1949 3.51773 6.3911 3.39748C6.56512 3.29087 6.75477 3.21231 6.95317 3.16467C7.17698 3.11095 7.41478 3.11095 7.89034 3.11095ZM8.83792 5.73582C8.83792 5.91477 8.98301 6.05989 9.16199 6.05989C9.34097 6.05989 9.48607 5.91477 9.48607 5.73582C9.48607 5.55684 9.34097 5.41174 9.16199 5.41174C8.98301 5.41174 8.83792 5.55684 8.83792 5.73582Z" stroke="#F3F2FC" stroke-width="1.2963" stroke-linecap="round" stroke-linejoin="round"/>
</svg>
